<svg width="45" height="57" viewBox="0 0 45 57" fill="none" xmlns="http://www.w3.org/2000/svg">
<path d="M22.5 0C26.0804 0 29.5132 1.42334 32.0449 3.95508C34.4188 6.32892 35.8172 9.49482 35.9824 12.832L36 13.5V21H37.5C39.4891 21 41.3962 21.7907 42.8027 23.1973C44.2093 24.6038 45 26.5109 45 28.5V49.5L44.9619 50.2412C44.7914 51.9581 44.0334 53.572 42.8027 54.8027C41.572 56.0334 39.9581 56.7914 38.2412 56.9619L37.5 57H7.5C5.51088 57 3.60379 56.2093 2.19727 54.8027C0.790743 53.3962 0 51.4891 0 49.5V28.5C0 26.5109 0.790743 24.6038 2.19727 23.1973C3.60379 21.7907 5.51088 21 7.5 21H9V13.5C9 9.91958 10.4233 6.48682 12.9551 3.95508C15.4868 1.42334 18.9196 0 22.5 0ZM7.5 24C6.30652 24 5.16227 24.4744 4.31836 25.3184C3.47445 26.1623 3 27.3065 3 28.5V49.5C3 50.6935 3.47445 51.8377 4.31836 52.6816C5.16227 53.5256 6.30653 54 7.5 54H37.5C38.6935 54 39.8377 53.5256 40.6816 52.6816C41.5256 51.8377 42 50.6935 42 49.5V28.5C42 27.3065 41.5256 26.1623 40.6816 25.3184C39.8377 24.4744 38.6935 24 37.5 24H7.5ZM22.5176 33C23.1241 32.9929 23.7179 33.1721 24.2197 33.5127C24.7217 33.8536 25.1071 34.3407 25.3242 34.9072C25.5414 35.4739 25.5812 36.0935 25.4355 36.6826C25.2899 37.2718 24.966 37.8029 24.5098 38.2031L24 38.6514V43.5C24 43.8978 23.8419 44.2792 23.5605 44.5605C23.2792 44.8419 22.8978 45 22.5 45C22.1022 45 21.7208 44.8419 21.4395 44.5605C21.1581 44.2792 21 43.8978 21 43.5V38.6514L20.4902 38.2031C20.034 37.8029 19.7101 37.2718 19.5645 36.6826C19.4188 36.0935 19.4586 35.4739 19.6758 34.9072C19.8929 34.3407 20.2783 33.8536 20.7803 33.5127C21.2821 33.1721 21.8759 32.9929 22.4824 33H22.5176ZM22.5 3C19.7152 3 17.0453 4.10704 15.0762 6.07617C13.107 8.0453 12 10.7152 12 13.5V21H33V13.5C33 10.7152 31.893 8.0453 29.9238 6.07617C27.9547 4.10704 25.2848 3 22.5 3Z" fill="black"/>
</svg>
