<svg width="83" height="102" viewBox="0 0 83 102" fill="none" xmlns="http://www.w3.org/2000/svg">
<path d="M3.90708e-05 24.92L10.52 5.27999H0.720039V0.559993H17.16V4.91999L6.48004 24.4H17.32V29.12H3.90708e-05V24.92ZM35.0579 0.559993V5.27999H24.8579V12H34.4579V16.72H24.8579V24.4H35.4579V29.12H19.0979V0.559993H35.0579ZM37.1557 0.559993H47.7957C50.1957 0.559993 52.0623 1.17333 53.3957 2.39999C54.729 3.59999 55.3957 5.43999 55.3957 7.91999C55.3957 9.83999 55.009 11.4133 54.2357 12.64C53.4623 13.84 52.2623 14.6133 50.6357 14.96V15.04C52.0757 15.2533 53.129 15.72 53.7957 16.44C54.4623 17.16 54.8757 18.32 55.0357 19.92C55.089 20.4533 55.129 21.04 55.1557 21.68C55.1823 22.2933 55.209 22.9867 55.2357 23.76C55.289 25.28 55.369 26.44 55.4757 27.24C55.6357 28.04 55.9823 28.5867 56.5157 28.88V29.12H50.2757C49.9823 28.72 49.7957 28.2667 49.7157 27.76C49.6357 27.2267 49.5823 26.68 49.5557 26.12L49.3957 20.64C49.3423 19.52 49.0623 18.64 48.5557 18C48.049 17.36 47.1957 17.04 45.9957 17.04H42.9157V29.12H37.1557V0.559993ZM42.9157 13.04H45.3157C46.7023 13.04 47.769 12.72 48.5157 12.08C49.2623 11.4133 49.6357 10.3067 49.6357 8.75999C49.6357 6.11999 48.3023 4.79999 45.6357 4.79999H42.9157V13.04ZM63.3422 14.84C63.3422 16.76 63.3822 18.4 63.4622 19.76C63.5689 21.0933 63.7556 22.1867 64.0222 23.04C64.3156 23.8667 64.7156 24.48 65.2222 24.88C65.7556 25.2533 66.4489 25.44 67.3022 25.44C68.1556 25.44 68.8356 25.2533 69.3422 24.88C69.8756 24.48 70.2756 23.8667 70.5422 23.04C70.8356 22.1867 71.0222 21.0933 71.1022 19.76C71.2089 18.4 71.2622 16.76 71.2622 14.84C71.2622 12.92 71.2089 11.2933 71.1022 9.95999C71.0222 8.62666 70.8356 7.53333 70.5422 6.67999C70.2756 5.82666 69.8756 5.21333 69.3422 4.83999C68.8356 4.43999 68.1556 4.23999 67.3022 4.23999C66.4489 4.23999 65.7556 4.43999 65.2222 4.83999C64.7156 5.21333 64.3156 5.82666 64.0222 6.67999C63.7556 7.53333 63.5689 8.62666 63.4622 9.95999C63.3822 11.2933 63.3422 12.92 63.3422 14.84ZM57.5822 14.84C57.5822 12.68 57.6756 10.6933 57.8622 8.87999C58.0756 7.03999 58.5156 5.46666 59.1822 4.15999C59.8756 2.85333 60.8622 1.83999 62.1422 1.11999C63.4222 0.373327 65.1422 -6.67572e-06 67.3022 -6.67572e-06C69.4622 -6.67572e-06 71.1822 0.373327 72.4622 1.11999C73.7422 1.83999 74.7156 2.85333 75.3822 4.15999C76.0756 5.46666 76.5156 7.03999 76.7022 8.87999C76.9156 10.6933 77.0222 12.68 77.0222 14.84C77.0222 17.0267 76.9156 19.0267 76.7022 20.84C76.5156 22.6533 76.0756 24.2133 75.3822 25.52C74.7156 26.8267 73.7422 27.8267 72.4622 28.52C71.1822 29.2133 69.4622 29.56 67.3022 29.56C65.1422 29.56 63.4222 29.2133 62.1422 28.52C60.8622 27.8267 59.8756 26.8267 59.1822 25.52C58.5156 24.2133 58.0756 22.6533 57.8622 20.84C57.6756 19.0267 57.5822 17.0267 57.5822 14.84ZM1.04004 36.56H6.80004V47.48H13.52V36.56H19.28V65.12H13.52V52.44H6.80004V65.12H1.04004V36.56ZM27.2266 50.84C27.2266 52.76 27.2666 54.4 27.3466 55.76C27.4533 57.0933 27.6399 58.1867 27.9066 59.04C28.1999 59.8667 28.5999 60.48 29.1066 60.88C29.6399 61.2533 30.3333 61.44 31.1866 61.44C32.0399 61.44 32.7199 61.2533 33.2266 60.88C33.7599 60.48 34.1599 59.8667 34.4266 59.04C34.7199 58.1867 34.9066 57.0933 34.9866 55.76C35.0933 54.4 35.1466 52.76 35.1466 50.84C35.1466 48.92 35.0933 47.2933 34.9866 45.96C34.9066 44.6267 34.7199 43.5333 34.4266 42.68C34.1599 41.8267 33.7599 41.2133 33.2266 40.84C32.7199 40.44 32.0399 40.24 31.1866 40.24C30.3333 40.24 29.6399 40.44 29.1066 40.84C28.5999 41.2133 28.1999 41.8267 27.9066 42.68C27.6399 43.5333 27.4533 44.6267 27.3466 45.96C27.2666 47.2933 27.2266 48.92 27.2266 50.84ZM21.4666 50.84C21.4666 48.68 21.5599 46.6933 21.7466 44.88C21.9599 43.04 22.3999 41.4667 23.0666 40.16C23.7599 38.8533 24.7466 37.84 26.0266 37.12C27.3066 36.3733 29.0266 36 31.1866 36C33.3466 36 35.0666 36.3733 36.3466 37.12C37.6266 37.84 38.5999 38.8533 39.2666 40.16C39.9599 41.4667 40.3999 43.04 40.5866 44.88C40.7999 46.6933 40.9066 48.68 40.9066 50.84C40.9066 53.0267 40.7999 55.0267 40.5866 56.84C40.3999 58.6533 39.9599 60.2133 39.2666 61.52C38.5999 62.8267 37.6266 63.8267 36.3466 64.52C35.0666 65.2133 33.3466 65.56 31.1866 65.56C29.0266 65.56 27.3066 65.2133 26.0266 64.52C24.7466 63.8267 23.7599 62.8267 23.0666 61.52C22.3999 60.2133 21.9599 58.6533 21.7466 56.84C21.5599 55.0267 21.4666 53.0267 21.4666 50.84ZM48.4932 36.56V56.48C48.4932 57.2 48.5332 57.8667 48.6132 58.48C48.7198 59.0667 48.8932 59.5867 49.1332 60.04C49.3998 60.4667 49.7465 60.8133 50.1732 61.08C50.6265 61.32 51.1865 61.44 51.8532 61.44C52.5465 61.44 53.1065 61.32 53.5332 61.08C53.9598 60.8133 54.2932 60.4667 54.5332 60.04C54.7998 59.5867 54.9732 59.0667 55.0532 58.48C55.1598 57.8667 55.2132 57.2 55.2132 56.48V36.56H60.9732V56.48C60.9732 58.2933 60.7198 59.8 60.2132 61C59.7065 62.1733 59.0265 63.1067 58.1732 63.8C57.3198 64.4933 56.3465 64.96 55.2532 65.2C54.1598 65.44 53.0265 65.56 51.8532 65.56C50.6798 65.56 49.5465 65.4533 48.4532 65.24C47.3598 65.0267 46.3865 64.6 45.5332 63.96C44.6798 63.2933 43.9998 62.36 43.4932 61.16C42.9865 59.96 42.7332 58.4 42.7332 56.48V36.56H48.4932ZM63.4166 36.56H74.0566C76.4566 36.56 78.3233 37.1733 79.6566 38.4C80.9899 39.6 81.6566 41.44 81.6566 43.92C81.6566 45.84 81.2699 47.4133 80.4966 48.64C79.7233 49.84 78.5233 50.6133 76.8966 50.96V51.04C78.3366 51.2533 79.3899 51.72 80.0566 52.44C80.7233 53.16 81.1366 54.32 81.2966 55.92C81.3499 56.4533 81.3899 57.04 81.4166 57.68C81.4433 58.2933 81.4699 58.9867 81.4966 59.76C81.5499 61.28 81.6299 62.44 81.7366 63.24C81.8966 64.04 82.2433 64.5867 82.7766 64.88V65.12H76.5366C76.2433 64.72 76.0566 64.2667 75.9766 63.76C75.8966 63.2267 75.8433 62.68 75.8166 62.12L75.6566 56.64C75.6033 55.52 75.3233 54.64 74.8166 54C74.3099 53.36 73.4566 53.04 72.2566 53.04H69.1766V65.12H63.4166V36.56ZM69.1766 49.04H71.5766C72.9633 49.04 74.0299 48.72 74.7766 48.08C75.5233 47.4133 75.8966 46.3067 75.8966 44.76C75.8966 42.12 74.5633 40.8 71.8966 40.8H69.1766V49.04ZM7.08004 96.88H9.64004C10.6534 96.88 11.4667 96.7067 12.08 96.36C12.6934 96.0133 13.1734 95.44 13.52 94.64C13.8934 93.84 14.1334 92.7867 14.24 91.48C14.3734 90.1733 14.44 88.5467 14.44 86.6C14.44 84.9733 14.3867 83.5467 14.28 82.32C14.1734 81.0933 13.9467 80.08 13.6 79.28C13.28 78.4533 12.7867 77.84 12.12 77.44C11.48 77.0133 10.6134 76.8 9.52004 76.8H7.08004V96.88ZM1.32004 72.56H10.76C12.76 72.56 14.3734 72.8933 15.6 73.56C16.8267 74.2 17.7734 75.1333 18.44 76.36C19.1334 77.56 19.6 79.0133 19.84 80.72C20.08 82.4267 20.2 84.3333 20.2 86.44C20.2 88.9467 20.04 91.1333 19.72 93C19.4267 94.84 18.9067 96.36 18.16 97.56C17.4134 98.76 16.4134 99.6533 15.16 100.24C13.9067 100.827 12.32 101.12 10.4 101.12H1.32004V72.56ZM34.7288 90.36L31.9688 77.52H31.8888L29.1288 90.36H34.7288ZM35.4888 72.56L43.0488 101.12H37.0488L35.7288 95.08H28.1288L26.8088 101.12H20.8088L28.3688 72.56H35.4888ZM46.2479 72.56L50.0079 83.6H50.0879L54.0879 72.56H60.3279L52.9279 89.88V101.12H47.1679V89.88L39.7679 72.56H46.2479Z" fill="black"/>
</svg>
