<svg width="325" height="325" viewBox="0 0 325 324" fill="none" xmlns="http://www.w3.org/2000/svg">
<g clip-path="url(#clip0_3855_8641)">
<rect x="155.435" width="14.1304" height="36.2236" fill="#1A1A1A"/>
<rect x="155.435" y="287.776" width="14.1304" height="36.2236" fill="#1A1A1A"/>
<rect width="14.1275" height="36.2311" transform="matrix(0.966125 -0.258076 0.259564 0.965726 113.617 7.34302)" fill="#1A1A1A" fill-opacity="0.2"/>
<rect width="14.1275" height="36.2311" transform="matrix(0.966125 -0.258076 0.259564 0.965726 188.329 285.314)" fill="#1A1A1A"/>
<rect width="14.1196" height="36.2516" transform="matrix(0.866691 -0.498845 0.501156 0.865357 75.1313 25.2258)" fill="#1A1A1A" fill-opacity="0.2"/>
<rect width="14.1196" height="36.2516" transform="matrix(0.866691 -0.498845 0.501156 0.865357 219.464 274.448)" fill="#1A1A1A"/>
<rect width="14.1087" height="36.2795" transform="matrix(0.708195 -0.706016 0.708195 0.706016 42.5992 52.4297)" fill="#1A1A1A" fill-opacity="0.2"/>
<rect width="14.1087" height="36.2795" transform="matrix(0.708195 -0.706016 0.708195 0.706016 246.716 255.918)" fill="#1A1A1A"/>
<rect width="14.0978" height="36.3075" transform="matrix(0.501156 -0.865357 0.866691 0.498845 18.2383 87.1003)" fill="#1A1A1A" fill-opacity="0.2"/>
<rect width="14.0978" height="36.3075" transform="matrix(0.501156 -0.865357 0.866691 0.498845 268.229 230.989)" fill="#1A1A1A"/>
<rect width="14.0899" height="36.3279" transform="matrix(0.259564 -0.965726 0.966125 0.258076 3.70837 126.875)" fill="#1A1A1A" fill-opacity="0.2"/>
<rect width="14.0899" height="36.3279" transform="matrix(0.259564 -0.965726 0.966125 0.258076 282.537 201.357)" fill="#1A1A1A"/>
<rect width="14.1304" height="36.2236" transform="matrix(-1 0 0 1 169.565 287.776)" fill="#1A1A1A"/>
<rect width="14.1275" height="36.2311" transform="matrix(-0.966125 -0.258076 -0.259564 0.965726 211.382 7.34326)" fill="#1A1A1A"/>
<rect width="14.1275" height="36.2311" transform="matrix(-0.966125 -0.258076 -0.259564 0.965726 136.67 285.314)" fill="#1A1A1A"/>
<rect width="14.1196" height="36.2516" transform="matrix(-0.866691 -0.498845 -0.501156 0.865357 249.869 25.2261)" fill="#1A1A1A"/>
<rect width="14.1196" height="36.2516" transform="matrix(-0.866691 -0.498845 -0.501156 0.865357 105.536 274.448)" fill="#1A1A1A"/>
<rect width="14.1087" height="36.2795" transform="matrix(-0.708195 -0.706016 -0.708195 0.706016 282.4 52.4297)" fill="#1A1A1A"/>
<rect width="14.1087" height="36.2795" transform="matrix(-0.708195 -0.706016 -0.708195 0.706016 78.2838 255.918)" fill="#1A1A1A"/>
<rect width="14.0978" height="36.3075" transform="matrix(-0.501156 -0.865357 -0.866691 0.498845 306.761 87.1001)" fill="#1A1A1A"/>
<rect width="14.0978" height="36.3075" transform="matrix(-0.501156 -0.865357 -0.866691 0.498845 56.7708 230.988)" fill="#1A1A1A"/>
<rect width="14.0899" height="36.3279" transform="matrix(-0.259564 -0.965726 -0.966125 0.258076 321.291 126.875)" fill="#1A1A1A"/>
<rect width="14.0899" height="36.3279" transform="matrix(-0.259564 -0.965726 -0.966125 0.258076 42.4629 201.357)" fill="#1A1A1A"/>
<rect x="-0.00012207" y="169.044" width="14.087" height="36.3354" transform="rotate(-90 -0.00012207 169.044)" fill="#1A1A1A" fill-opacity="0.2"/>
<rect x="288.665" y="169.044" width="14.087" height="36.3354" transform="rotate(-90 288.665 169.044)" fill="#1A1A1A"/>
</g>
<defs>
<clipPath id="clip0_3855_8641">
<rect width="325" height="324" fill="white"/>
</clipPath>
</defs>
</svg>
