<svg width="393" height="211" viewBox="0 0 393 211" fill="none" xmlns="http://www.w3.org/2000/svg">
<g clip-path="url(#clip0_3855_9043)">
<path d="M12.3254 39.1099V5.52031V0.0788574" stroke="#1D1D1B" stroke-width="0.5" stroke-miterlimit="10"/>
<path d="M0.961914 44.2459L2.91853 43.1162L3.76816 43.1802L4.02552 43.0374L5.28264 42.9389L6.01844 42.3691L6.34674 41.4808L7.46033 40.3298L7.98166 40.6204L10.0175 39.384L10.2534 39.2494L10.6889 39.4907L11.8537 39.384L12.3255 39.008L13.477 38.1394L13.5298 38.4941L14.0049 38.7535L14.3695 38.9013L14.9651 38.8011L15.4897 39.0211V39.3742L15.8576 39.5301L16.2816 39.2658L17.9347 39.3348L17.8769 39.8388L18.5566 39.8782L18.8107 40.2099L19.0978 40.3429L19.4343 40.008L20.5908 40.1229L23.3871 40.7107L25.0584 40.6565L25.8667 41.0752L26.9011 41.021L27.0628 40.8815L28.6697 40.9784V5.52024V0.059082" stroke="#1D1D1B" stroke-width="0.5" stroke-miterlimit="10"/>
<path d="M1.02124 69.721L10.6229 67.1217L14.904 65.6801L24.7877 60.1024L28.5657 58.5671L28.6746 58.5129V146.939H34.5527L36.8261 151.046V157.224H36.0507V162.746H31.6326V164.987H28.668V204.864V210.921" stroke="#1D1D1B" stroke-width="0.5" stroke-miterlimit="10"/>
<path d="M0.948589 76.4758H12.3402V99.3303H0.910645" stroke="#1D1D1B" stroke-width="0.5" stroke-miterlimit="10"/>
<path d="M0.951904 146.952H2.28821V156.94H6.61884V160.556H12.3039V204.864V210.943" stroke="#1D1D1B" stroke-width="0.5" stroke-miterlimit="10"/>
<path d="M44.9165 0.0788574V40.0655C44.9165 40.1082 44.8686 40.1345 44.8323 40.1098L44.4562 39.8602C44.4281 39.8422 44.3918 39.852 44.377 39.8816L44.2252 40.2034C44.2153 40.2248 44.2203 40.2478 44.2368 40.2642L44.5073 40.5335C44.537 40.563 44.5222 40.6139 44.4809 40.6238L44.0998 40.7141C44.0784 40.719 44.0619 40.7371 44.0586 40.7584L44.0107 41.0769C44.0074 41.1032 43.9843 41.1229 43.9563 41.1229H43.3855C43.3756 41.1229 43.3657 41.1196 43.3574 41.1147L42.8279 40.7863C42.8279 40.7863 42.8213 40.7814 42.818 40.7781L42.5622 40.5236C42.5408 40.5023 42.5062 40.5023 42.4847 40.5236L42.2108 40.7962C42.201 40.806 42.1861 40.8126 42.1729 40.8126H41.3546C41.3348 40.8126 41.3183 40.8224 41.3084 40.8389L40.9818 41.3889C40.9636 41.4201 40.9224 41.425 40.896 41.4004L40.6716 41.1771C40.6535 41.159 40.6254 41.1558 40.604 41.1705L39.9457 41.5925C39.9309 41.6024 39.9127 41.604 39.8979 41.5974L39.497 41.4464C39.4821 41.4398 39.464 41.4415 39.4491 41.4513L38.9971 41.7222L38.9938 41.7239L38.0304 42.2C38.0073 42.2115 37.9776 42.205 37.9627 42.1836L37.5387 41.5909C37.5107 41.5515 37.448 41.5662 37.4414 41.6155L37.3853 42.0145C37.382 42.0408 37.3589 42.0605 37.3309 42.0605H36.732C36.7221 42.0605 36.7105 42.0638 36.7023 42.0687L36.4664 42.2197L36.6413 42.3938H35.8543C35.8395 42.3938 35.8246 42.4004 35.8147 42.4102L35.7108 42.5202C35.6992 42.5317 35.6943 42.5498 35.6976 42.5662L35.7718 43.0079C35.7751 43.0243 35.7685 43.0424 35.757 43.0555L35.5623 43.2493L32.5993 42.1541L32.375 42.0588V41.847L32.172 41.7616L31.8635 41.9423L31.5022 41.7189L31.268 41.8257L30.8308 41.7403L30.3936 41.6976L30.2451 41.6336V58.0942L31.3389 58.3553L31.6837 58.0121L32.3024 58.017L32.2364 58.4095L33.967 59.8593V60.2189L34.1485 60.3995L34.7886 60.012H35.107L35.2324 59.8872V59.5769L35.4138 59.2173L35.8411 59.0433L36.1595 58.9349L36.7716 59.6935L37.3325 60.012L37.5965 60.4389L38.5434 61.2057L39.8088 63.0234L39.6323 63.1991L40.2394 63.9856L42.1053 64.7261L42.1713 65.089L42.0277 65.3615L42.2488 66.0495L41.5048 66.8935L41.1649 66.7769L40.0563 67.3352L39.1291 67.166L37.7713 67.4911L40.4407 70.9803L44.9148 74.4219V157.004H39.2512V161.515H44.9148V210.918" stroke="#1D1D1B" stroke-width="0.5" stroke-miterlimit="10"/>
<path d="M14.1418 38.8093L13.9867 39.1065L13.9355 39.4563L14.0395 39.5581L14.2424 39.3561L14.4272 39.3873L14.5806 39.1328L15.2438 38.9604" stroke="#1D1D1B" stroke-width="0.5" stroke-miterlimit="10"/>
<path d="M32.4988 58.6343H44.6229H44.7862L44.7433 58.961L44.5585 59.1433L44.9512 59.4191L45.0733 59.6835H45.3174L45.3537 60.0283L45.5847 60.0776L45.6193 60.2861L45.4725 60.4322L45.6556 60.6588V60.8378L45.9081 60.8082H46.1456L46.3469 61.1465H46.629L46.9375 61.4535L47.3335 61.2959L47.5215 61.5537H47.9818L47.7261 61.9198L47.8069 62.1628L48.1022 62.3664L48.3662 62.327V62.616L48.716 62.5914V63.1185L49.0311 63.5207L48.9304 63.7096L49.2356 64.2416L49.3313 64.68V65.033L49.8658 65.6093L49.8361 65.8129L49.9945 65.9426L50.3294 65.8277L50.6841 66.1856L50.9794 66.4599L51.1494 66.7275H51.4595L51.5849 66.8818L51.4645 67.051L51.636 67.2234L51.9082 67.0608L51.9841 67.3202L52.2382 67.1955L52.5731 67.688L52.9327 67.7472L53.3782 68.463L53.2429 68.752L53.5481 68.9458L53.8434 68.8062L53.9177 69.1707L54.1074 69.2298L54.3119 68.9655L54.8465 69.6223L55.0362 70.2199L55.0873 70.3529H54.7029L54.4967 70.637L54.9323 70.9161L55.2177 71.2133L55.3315 71.3283V71.6173V71.7355H55.6763L55.8512 71.5614L56.1613 71.8209L56.092 72.1936L56.361 72.4629L56.8179 72.7847L56.7058 73.1459L56.9928 73.5925L56.4533 74.0096L56.5243 74.4053L56.2306 74.5449V75.1195L57.3822 75.1327L57.4069 76.3953L57.8144 76.8879V77.259L58.0503 77.4478L58.8389 78.259L59.3206 78.3049L59.0864 79.0192L59.2596 79.3821L58.9841 79.5972L59.0831 79.8188L58.8174 79.9912L58.3011 79.7384L57.9728 80.1144L57.6742 79.9239L57.1545 79.9978L57.0588 79.699L57.2221 79.3919L56.8113 79.1292L56.5523 79.4412L56.8113 79.6645L56.907 79.9699L56.6282 80.4625L56.5193 80.8139L56.1085 81.2227L56.1448 81.5741L55.9931 81.6233L55.7175 81.4066L55.4849 81.2999L55.3628 81.2654L55.023 81.6463V83.8318H56.4269V84.5789H57.1891L57.2353 84.794H57.5702L57.6676 84.5214H59.6456V91.8642L59.4213 92.145L59.0897 91.8807L58.8455 92.145L58.9989 93.3617L59.2596 93.9101L59.5763 94.2237L59.413 94.3321H59.0897V94.9971V95.1137L58.8587 95.3419L58.9626 95.8312L58.6558 96.5241L58.6096 96.974L61.6633 101.713H56.8724V106.108H61.0908L61.3465 106.363V120.334H67.1405V123.616H61.2327V204.864V210.921" stroke="#1D1D1B" stroke-width="0.5" stroke-miterlimit="10"/>
<path d="M44.5056 40.5351L45.1111 40.3873L45.7792 41.0523L45.7281 41.4168L46.4936 42.0966H47.104L47.4306 41.0326L47.848 40.6156H48.0114L48.2044 40.8093L49.8162 38.8816L48.663 37.6945L47.3284 37.1773H46.6041L46.6256 37.0558L46.8796 36.5386H47.1865V36.1724L47.6039 35.8884V35.2299L48.0064 35.2743L48.1945 35.0871L47.8579 34.9147V34.7111L48.1549 34.519L48.2555 34.1938L48.6531 33.8999V33.698L48.9897 33.5141L48.9484 33.2415H48.6333L47.914 32.2219L48.0625 32.0741L51.3752 31.7194L51.7134 28.8066L50.4068 28.864L50.2319 28.7228L50.5437 28.4339L50.4745 28.2729L49.9218 28.4897L49.7898 28.3583L50.288 27.8625L50.8968 27.5669L51.4379 27.5965L51.857 27.0448L52.7099 26.8921V26.6047L53.3187 26.0809L53.6766 26.0366L54.0495 25.521L54.6434 25.4833L55.2522 25.4373L55.9979 25.5736L56.5769 25.0662H57.057L58.5484 24.0433L59.4096 23.8085L60.4687 23.0581L61.2837 22.7724V5.53837V0.0788574" stroke="#1D1D1B" stroke-width="0.5" stroke-miterlimit="10"/>
<path d="M44.9165 40.0654L45.1112 40.3873" stroke="#1D1D1B" stroke-width="0.5" stroke-miterlimit="10"/>
<path d="M77.5669 0.0788574V5.4924V18.3473H72.7034V34.1577L83.7519 37.1543L86.8683 41.4644V46.63H72.6918V58.6295H63.9646V68.4878L64.2978 68.3991L64.5321 68.7144V68.8605H64.8043L65.2679 69.3548L65.2349 69.6667L64.7977 69.6158L64.5948 69.8441L63.9431 69.8194V75.0901H70.4647V76.4201L70.6874 76.7239V77.0276L70.8854 77.223H71.1889L71.5832 76.9226L71.9643 77.0868H72.154L72.3437 76.8979L72.4939 77.0112L72.5483 77.3002L72.5533 78.113L72.8634 78.1179L73.0267 78.2788L73.3847 78.2164L73.4639 78.246L73.4392 78.5957L73.8302 78.5497L73.8896 78.7353L73.3946 79.0128V79.287L74.3202 79.2229L74.5973 79.4988L74.2723 79.8223L74.3152 79.929L74.6254 80.0833L74.599 80.5464L74.335 80.8107L74.0397 80.7762V80.9601L74.3944 81.3936L74.2047 81.7023L73.7988 81.612L73.6141 81.7122L73.6998 82.1292L73.4243 82.1949V83.2457L73.5365 83.3558L73.8533 83.1308L74.0413 83.318L74.0314 84.2178L74.1007 84.4641L74.015 84.8828L73.5646 84.7925L73.3781 85.047L73.5712 85.9977L73.5217 87.0436L73.4062 87.1585L72.6341 87.1093L72.7149 87.6068H73.2445L73.4309 87.7874L73.134 88.8005L73.228 89.8185L73.0927 89.9975L72.6687 89.9367L72.5549 90.05L72.5648 90.9203L71.57 90.8907V97.0234H69.8839L69.46 97.3682V98.7508L69.0871 98.9445L68.8248 99.0102L68.6582 98.8444L68.5889 98.3846H68.2391H68.1319L67.896 97.979H67.2757L67.0958 98.158L67.0645 98.3764L66.5019 98.5472L66.2611 98.3074L65.8486 98.9215L65.319 99.1153L65.4411 99.6522L65.2778 100.114L65.2366 100.414L65.522 100.958V101.324L65.3553 101.49L65.1145 101.388L64.8868 101.534V101.826L65.319 102.168L65.4824 102.476L65.3603 102.711L65.5385 102.962L65.8321 102.833L66.2891 103.296V103.839L66.4277 103.938H66.8434L67.2509 104.465L67.0397 105.041L67.1123 105.292L67.4555 105.56L67.7739 106.072L68.0346 105.811L68.3282 106.087L68.442 106.649L68.7077 107.184L69.135 107.473L69.2983 107.54L69.3824 108.016L69.4649 108.097L69.7157 107.847L69.9466 108.118L70.143 108.153L70.1941 108.332L69.9978 108.527L70.3789 108.905L70.4597 108.969L70.232 109.194L70.4977 109.458L70.2122 109.665L70.1512 110.167L69.9978 110.184L69.5622 109.75L69.2801 109.852L68.9815 109.793L68.7605 110.015L69.0244 110.294L69.0756 110.438L68.6054 110.491L68.9815 111.144L69.5985 111.758L70.7913 112.294L71.118 112.821L72.3982 113.241L72.7248 113.07L73.5052 113.722L74.5346 114.295L75.9072 114.762H76.2355L76.5242 115.049L76.7816 115.009L77.2105 115.436L77.5306 115.425V160.484H62.917V165.06H77.5306V204.864V210.921" stroke="#1D1D1B" stroke-width="0.5" stroke-miterlimit="10"/>
<path d="M93.8748 0.0788574V5.52524V11.8041L92.4841 12.5692H91.2435V18.2061H89.5294L89.0839 19.009L89.3545 19.7922L90.186 19.9925L91.2121 20.6575V33.9558L90.4384 34.5387L89.8676 35.4467L90.2487 36.4614L89.8263 37.0985L90.5885 37.8702L91.1742 38.0869V47.9879L90.2107 48.5084L86.8485 54.4589V63.5373L85.7382 64.5635L85.7399 67.9098H86.7462L87.4309 68.5913L87.4276 68.9196L86.799 69.4172V69.8227H85.6788L85.7085 70.8407L84.8836 71.5024V71.9326L85.301 72.4302L85.7547 72.6863L85.7085 74.4711L84.4728 74.834L83.2124 75.8421L83.1382 76.2986L83.2141 76.3741L83.4863 75.9735L84.0258 76.5104L84.4827 76.3298L84.6675 76.1443H84.816L84.9991 76.4727H86.1919H86.2826L86.2744 76.6992L85.7894 77.4332L85.8801 78.1015L85.7976 78.3576L86.0055 78.5645L86.3503 78.4397L86.446 78.5366V78.7977H86.672L86.8881 78.5826L87.6651 78.5678L87.8582 78.9438L88.3184 78.8617L88.3828 78.9619L88.3003 79.2558V79.3642L88.7045 79.2279L88.6682 79.8781L88.9173 80.0521L89.2671 79.9782L89.7356 80.3362L88.7243 82.5413L88.8068 84.4838L89.046 84.8861H89.3215L89.4865 85.0962L89.4502 85.5182H89.0922L88.815 86.1225H88.4389L88.3993 87.9171L88.203 88.2931L88.3861 88.7627L88.0479 89.0517L88.1469 89.1502L88.5758 88.9516L88.683 89.3883L89.0608 89.3276H89.404L89.7587 89.8234L89.8874 89.9515V90.1502L90.3509 90.298H90.5704L90.732 90.6641L91.029 90.5426L91.3062 90.8185L91.0554 91.068L91.1131 91.4079L91.5322 91.3193V91.6526L91.2039 91.8972V92.045L91.3969 92.1731L91.4414 92.3586L91.0356 92.687L90.7584 93.1944L90.6331 93.3192H90.4169L90.8937 95.6655L90.8492 95.9791L91.1098 96.2369L90.9828 96.5243L91.2715 96.6671L90.9927 97.076L91.0026 98.025L91.2336 98.4322L91.3177 98.6293L90.9564 99.1613L90.6133 99.2647L90.6397 99.5291L90.8855 99.8886L91.1956 99.9215L91.4084 99.7786L91.6411 99.4519L92.009 99.2844L92.2746 99.1432L92.6359 99.4601L92.8767 99.6998V99.9215L93.5779 100.429L93.7495 100.964L93.4443 101.839L93.9359 102.685V106.944H90.1926L90.0523 107.172V108.933H88.4339L88.3696 109.272L88.17 109.719L88.4801 109.87L88.1815 110.463L87.8681 110.381L87.7245 110.598L87.3599 110.583L86.474 111.435L86.7611 111.721L86.7017 113.144L86.7248 113.315L86.9458 113.345L87.2923 112.729L87.5348 112.487L88.0017 112.952H93.7396V122.369L93.4162 122.434L93.3354 122.966L93.6224 123.254L93.469 123.406L93.5234 123.579L93.2677 123.833L93.6158 124.326V204.864V210.921" stroke="#1D1D1B" stroke-width="0.5" stroke-miterlimit="10"/>
<path d="M110.186 0.059082V5.49561V11.561L110.915 11.6924H111.456L111.644 12.1193L114.635 11.9337V12.1193L114.299 12.2309L115.046 12.5478L115.215 12.7153L114.736 12.9386L114.87 13.0716L116.727 12.8319L118.13 13.9369L118.94 14.2604L121.155 13.8023L123.208 13.5872L124.531 13.2112L126.152 13.4263L126.637 13.6414L127.853 12.6743L131.418 12.4854L132.567 11.3426L136.551 10.63L140.415 11.0077L141.251 10.1736L142.196 10.1194H142.927V5.52188V0.0787855" stroke="#1D1D1B" stroke-width="0.5" stroke-miterlimit="10"/>
<path d="M126.557 13.6414V5.50718V0.0788574" stroke="#1D1D1B" stroke-width="0.5" stroke-miterlimit="10"/>
<path d="M110.207 29.2959L110.194 29.8854L110.178 40.279L110.844 40.8668L111.273 41.5531L111.062 41.8897L111.164 42.1409L111.577 42.4595L111.534 42.87H111.021L110.6 43.1803L110.836 43.691L111.298 43.6253L112.672 44.4972L113.321 44.4298L113.969 45.016L114.508 45.2344L115.038 45.7959L116.353 46.1982L117.465 47.4478L117.196 48.0339L116.724 48.2441L116.773 48.5462L116.47 48.7548L116.016 49.359L115.393 49.8122L115.038 50.6414L114.726 50.7924L113.657 50.6085L113.37 51.6561L113.926 51.8663L114.416 52.9976L113.944 53.7693L114.028 54.6248L113.345 55.3111L113.69 55.6559L113.961 56.0582L113.842 56.1748L113.413 56.8874V57.265L113.624 57.3816L113.994 57.6345L113.885 57.7428L113.388 58.086L113.22 58.3799L113.042 58.976L113.161 59.4538L113.53 59.3602L113.589 59.4948L113.514 59.7542L113.329 59.9135L113.068 60.3749L113.438 60.4669L113.811 60.5095L114.355 60.3815L114.594 60.6196L114.076 60.6967L114.251 61.0448L113.456 61.6376L113.682 61.7394L113.883 62.1778L114.431 62.1055V62.2221L114.225 62.4274L114.144 62.8559L114.251 63.0792L113.839 63.7853L114.188 64.2778H113.784L114.018 64.7688L114.431 64.6522L114.629 64.8492L114.279 65.0463L114.593 65.5635L114.908 65.5011L115.023 65.7967L114.579 66.0955L114.449 66.2252L114.647 66.529L114.261 67.1201L113.659 66.7802L112.248 66.9411L112.052 66.5569L111.648 66.3598L110.422 67.1234L110.229 66.9313L110.067 67.0035L110.219 67.4944L109.877 67.7539L110.075 67.923L110.229 68.4862L110.597 68.5322L110.866 68.9065L110.722 69.2103L110.461 68.9509L110.211 69.2021V69.519H110.367L110.605 69.7554L110.928 69.9081L111.069 69.4927L111.265 69.2957L111.539 69.5682L111.324 69.8539L111.257 70.2513L111.45 70.4434L111.846 70.8375L112.133 70.6503L112.733 71.248L113.174 71.1494L113.362 71.4713L113.74 71.2397L113.794 70.6043V70.1052V69.7915L114.107 69.6306L114.485 69.5945L114.781 69.8901L114.404 70.0066L114.173 70.2037L114.391 70.8227L115.963 70.7685L116.465 71.6814L116.782 72.1264L116.399 72.463L116.64 72.7011L116.529 72.995V73.1789L116.617 73.5057L117.087 75.1131L114.807 75.7863L114.457 76.1114L113.279 76.3282L112.383 76.6861L111.369 76.2953L110.371 76.7567L110.094 76.4809L109.536 76.4054L109.264 76.5564V77.0884L108.554 77.338L108.741 77.5235L109.33 77.3593L109.874 77.783L109.907 79.5973L110.245 79.7714L110.311 80.2919L110.628 80.4659L110.803 80.901L110.226 81.4757V110.412H105.491V110.839L105.649 111.804L105.362 112.088L105.601 112.326L105.252 112.501L105.585 112.832L105.534 113.228V117.187L105.661 118.461L106.761 119.717L105.476 120.049L105.166 120.609L104.763 120.756L104.385 121.42L104.161 122.339L103.719 122.779L103.874 122.934L104.133 122.676L104.569 123.111L104.925 123.978L104.833 124.31V124.733L105.143 124.961L105.453 125.268H106.291L106.611 125.075L106.933 125.19L107.38 125.28L107.898 125.955L108.276 126.149L109.378 126.068L109.848 125.909L110.262 126.114V126.321L109.848 127.109L109.894 128.227L110.468 129.096L109.802 129.759L110.169 129.849L110.508 130.393L110.353 130.547L109.727 130.93L109.47 130.672L109.343 130.923H107.655L107.678 131.621H108.252L108.345 132.101L107.954 132.02L107.391 132.237V132.969L107.909 133.345L108.139 133.997L107.541 137.447L110.235 143.241L110.722 143.368L111.291 143.524L111.301 143.575L110.767 143.949L109.084 144.895L108.502 144.813L107.964 144.724L107.954 144.791L108.998 146.358L108.528 147.029L108.437 147.724L108.734 148.294L108.196 148.932L108.46 149.399L108.196 149.798L108.518 150.471L108.711 150.755L107.853 151.61L108.02 151.899L107.682 152.236V152.646L107.098 152.931L107.235 154.128L107.429 156.508L107.304 156.953L107.109 157.717V158.218H106.801V158.503L106.949 158.822L106.88 159.768L106.961 160.19L106.88 160.474H94.9636V175.202L103.41 175.189L103.404 175.678L103.673 175.946V176.466L103.785 177.483L103.983 177.695L103.709 178.401L103.386 178.499L103.137 179.79L103.397 180.533L102.899 181.476L102.744 182.597L102.277 183.062L102.19 183.41L102.371 183.456L103.335 183.157L104.036 183.443L104.455 183.138L104.717 183.4L104.95 183.169L105.412 183.63L105.679 183.62L105.684 183.382L105.418 183.019L105.682 182.712L105.542 182.574L105.194 182.438L105.263 181.394L105.58 181.309V181.11L105.39 180.583L105.423 179.353L105.557 179.176L105.525 178.676L105.699 178.506V178.125L105.875 177.745L105.946 177.233L106.071 177.066L106.576 176.888L106.416 176.386L106.269 175.916V174.673L106.339 174.156L106.684 174.089L106.779 173.774L107.03 173.678V173.03L106.819 172.6L107.116 172.304L107.327 171.628L107.713 171.291L107.522 170.931L107.673 170.683L107.728 170.324L107.352 169.935V169.375L107.009 168.922L107.165 168.748V168.431L106.911 168.041V167.711L107.18 167.478L107.131 167.074L107.663 166.442L107.357 165.444L108.665 163.042L108.785 162.92L109.361 162.841L109.419 162.589L109.039 162.211L109.016 160.748L109.269 160.621L109.028 160.163L109.579 159.682L110.396 159.26L110.683 158.31L110.536 158.007L110.541 157.879L111.004 157.464L111.511 157.132L111.488 156.697H111.694L112.247 157.144H112.855L113.269 157.257L113.556 157.966H113.764L114.109 157.057H115.229L115.548 157.328L115.706 157.232L115.96 156.057V155.313L116.534 154.26L118.258 153.883H119.512L120.408 154.466L120.512 154.993L120.834 155.838L120.547 157.052L120.672 157.177L121.84 157.388L122.219 157.011L122.374 157.167L123.076 157.441L123.168 158.367L123.478 159.362L123.937 159.157L124.638 159.278L124.925 158.717L125.281 158.493L125.29 158.139L125.402 157.943H125.756L127.037 156.643L127.532 155.48L128.205 154.811L128.289 154.3L128.027 153.927H127.784L126.57 153.305L126.294 153.364L126.215 153.285L126.271 153.072L126.223 152.866H125.869L125.654 151.686L125.869 151.249L126.276 151.119V150.65L126.812 150.115L127.187 150.041L127.457 149.325L127.748 149.223L127.896 149.157L128.233 148.645V147.781L128.766 146.86L128.503 146.601L128.439 145.345L128.569 144.461L128.939 143.657L128.738 143.456L122.209 143.171L121.513 142.737L120.972 142.378L120.942 142.148V141.869V141.744L120.71 141.358L120.372 140.608L120.053 140.414L120.009 140.13L120.131 140.01L121.842 136.34L122.427 135.35L122.407 135.173H121.934L121.401 134.642L121.183 134.728L120.274 134.191L119.649 133.567L119.811 133.335L119.715 133.24L119.604 133.13L119.383 131.482L119.451 131.262L119.834 131.482L120.04 131.184L120.982 131.027L121.411 130.702L122.102 130.841L122.261 130.684L121.888 130.506L121.355 129.708L121.299 129.196H120.908L120.431 128.296L120.748 127.457L121.312 127.391V126.802L121.47 126.378L121.942 126.332L122.683 126.784L122.822 126.646L122.886 126.373H123.196L123.34 126.516L123.643 126.546V126.318H123.9L124.58 126.465L125.367 126.817H125.679L126.512 127.318V49.7268L125.775 49.2556L125.196 47.7696L125.529 47.2983L124.966 46.3017L125.634 44.1868L125.352 42.4923L124.773 42.2822L123.826 41.6007V40.1164L124.334 39.609L124.704 39.4514L124.176 38.4564L122.79 37.7914V37.6173L123.142 37.041V34.9607L121.263 32.6553L120.632 30.4765L119.829 30.0512L119.304 28.9675L117.554 28.2779L114.428 28.1367L110.207 29.2959ZM110.207 29.2959L109.515 29.1317H109.104L107.34 28.2664L106.67 27.47L105.294 26.8149L105.131 26.3831L104.029 25.9381L103.881 25.521L104.128 25.2764L104.915 25.0301L103.475 24.1352L103.24 23.9037L103.549 23.3027L104.57 22.2847L108.389 20.3489L109.523 18.3867L111.024 17.5526L111.986 17.3326L116.272 14.7334L118.13 13.937" stroke="#1D1D1B" stroke-width="0.5" stroke-miterlimit="10"/>
<path d="M102.19 183.41L101.287 187.241L101.427 189.167V189.613V191.372L101.739 192.377L101.429 192.686L101.51 192.986L102.001 193.823L101.574 194.119L101.678 194.454L102.19 195.124L102.445 195.378L102.298 195.935L102.803 196.488L103.308 197.171H103.735L103.658 197.789L103.839 198.124L104.318 197.866L105.52 198.935L106.218 199.245L107.383 199.644L108.16 200.145L109.039 199.863L109.996 200.57L110.359 200.66L110.773 200.738L111.537 199.411L112.222 199.155L112.74 199.089L113.309 199.245L114.228 198.858L114.111 198.652L113.101 198.73L112.921 198.652H112.118L111.201 198.355L110.191 197.634L108.574 194.313L108.328 193.36V192.871L108.82 192.382L109.828 191.866L110.14 190.539L110.902 189.871L111.963 189.239L112.08 188.994L111.892 188.809L112.106 188.558V187.925L111.006 187.797L110.133 186.929L110.113 186.343L110.824 185.313L111.653 184.965L112.235 185.157L112.39 185.003L112.131 184.656L112.727 184.064L112.662 183.561L112.507 183.381L112.972 182.699L114.228 182.21L114.46 182.144V181.463L114.221 181.225L113.71 181.423L112.817 181.064L112.933 180.445L112.766 179.62L113.043 179.345L113.342 179.64L114.15 180.059H115.158L115.805 179.698L116.051 179.312L115.632 178.893L115.845 178.359L116.142 178.062V177.703L116.698 177.149L117.333 177.341L120.697 176.453L122.003 174.639L121.886 173.852H121.408L121.201 173.273L121.525 172.759L120.825 172.179L121.033 171.637H121.536L122.586 172.153L123.425 172.076L123.879 172.358L124.486 172.025L124.616 171.65L125.159 171.573L125.6 170.762L126.085 170.279L126.37 169.82L126.41 169.839L126.505 193.037H116.745V195.657H126.453V204.741V210.921" stroke="#1D1D1B" stroke-width="0.5" stroke-miterlimit="10"/>
<path d="M110.179 200.661V204.91V210.921" stroke="#1D1D1B" stroke-width="0.5" stroke-miterlimit="10"/>
<path d="M126.512 51.5773L128.746 54.9088L131.202 57.7592H133.055L135.15 59.2222H136.836L138.232 54.3817L139.869 52.5362L140.568 49.7793L142.832 49.3967V137.805L143.704 138.368L144.635 138.292L145.176 138.631L145.729 140.396L145.59 140.91L145.729 141.397L144.975 143.126L144.534 143.226L144.597 143.501L144.006 144.228L143.251 144.565L142.837 145.417V196.109H136.84V199.27H142.86V204.741V210.921" stroke="#1D1D1B" stroke-width="0.5" stroke-miterlimit="10"/>
<path d="M159.126 0.0788574V5.5942V12.2507L160.35 12.6858L160.788 13.6874L162.536 14.2605H175.477V5.5942V0.0788574" stroke="#1D1D1B" stroke-width="0.5" stroke-miterlimit="10"/>
<path d="M162.536 14.2605L160.276 17.9139L160.858 19.6806L158.524 27.2057L158.905 30.3878L159.387 31.5241L158.88 32.2826V32.8623H155.632L153.603 33.9492L153.121 34.808L153.476 35.4894L155.658 37.0542L157.255 37.509L158.524 37.3333H160.073L160.529 38.3431L160.707 40.2363L156.368 46.5496V53.6215H175.446V61.6524H168.243V62.9347H175.007V63.7639L175.515 63.9019V65.9757L174.56 66.2072L174.35 66.7753L172.733 67.4698L172.465 67.9214V68.5289L172.681 69.1233L172.872 69.7916V70.363L172.225 70.624L172.308 70.9623L172.585 71.4549L172.978 71.6289L173.925 71.4992L174.347 71.3678L174.507 71.0641H174.857L175.515 70.6437V82.3099H175.051L174.611 82.4593L174.748 82.7171L174.202 82.9486L174.042 82.8336L173.692 83.1325L173.869 83.4395L174.179 83.6727V84.1029L173.981 84.4822L174.066 84.6628L172.554 86.2243L163.508 95.8018V102.889H168.942L168.789 103.311L167.941 103.792L167.822 104.132L167.458 104.777L167.446 105.609L166.22 106.711L165.654 108.294L165.184 108.763L165.171 109.913L165.489 110.135H165.856L166.055 110.686L165.737 111.624L166.032 112.034V112.727L166.197 113.489L165.856 114.661L165.56 115.353L165.608 115.74L164.96 116.62L164.465 116.725L164.582 116.936L165.065 116.983L165.466 117.781V118.308L165.407 119.398L165.879 119.586L165.996 119.88L165.654 120.256L165.808 120.853L166.172 121.075L166.832 120.817L167.776 121.416L167.882 121.791L168.164 121.943L168.376 121.732L168.683 122.142L168.835 122.518L169.378 123.198L169.19 123.738L169.472 123.948L169.589 124.477L171.016 125.25L171.993 125.953L172.112 126.188H172.441L173.407 127.209L174.197 127.713L175.426 128.193V140.448H166.751V142.609H175.459V172.348H167.274V182.402H175.437V204.798V210.921" stroke="#1D1D1B" stroke-width="0.5" stroke-miterlimit="10"/>
<path d="M159.136 53.6216V85.8303H148.833V92.1206H158.927V111.957H154.241V117.622H159.019V204.871V210.921" stroke="#1D1D1B" stroke-width="0.5" stroke-miterlimit="10"/>
<path d="M175.515 82.3098L175.97 82.6382L176.246 82.4937L176.553 82.5446L177.228 82.3049L177.439 82.4855L178.145 82.6316L178.813 82.8122L179.62 82.4362L180.151 82.8401L180.565 82.5512L180.87 82.7827H181.538L181.918 82.5512L182.254 81.2819L182.52 81.0176L182.39 79.9027L181.997 78.9257L180.143 77.3412L179.78 76.7058H179.445L179.166 76.5055L178.879 76.7928L178.435 76.4874L178.348 75.7206L178.726 75.6713L179.541 75.5482L180.187 75.2214L180.689 75.8158L181.538 75.425L181.764 75.5252L181.939 75.3528L181.822 74.8602L181.698 74.4629L181.35 74.1148L181.466 73.9998L181.822 74.1361L182.178 74.0573L182.145 74.3134L182.419 74.586L183.48 74.7075L184.163 74.5121V74.3184L183.676 74.3545V74.2215L183.808 74.0376L184.711 73.8652L185.414 73.4301L185.293 73.0738L185.306 72.3874L186.554 72.1231L187.867 71.2397L188.636 70.1445L188.941 69.1281L189.604 68.7045H190.412L191.783 68.1512V62.227L190.959 62.1597L190.473 62.0907L190.269 61.7886L189.51 61.4109L189.046 60.9134L189.084 60.452L188.705 60.1499L188.865 59.636L188.629 59.0695L188.873 58.7001L188.5 58.1254V57.485L188.167 57.0909L188.547 56.3734L188.319 55.8233L188.835 54.917L190.465 54.0549L190.982 53.5427L191.783 53.0813V40.0572H173.29V38.1132H191.783V5.56132V0" stroke="#1D1D1B" stroke-width="0.5" stroke-miterlimit="10"/>
<path d="M174.067 84.6626L174.528 84.3589L174.725 84.2751L174.827 84.5067L174.641 84.6938L174.827 84.8794L175.154 84.6659L175.406 84.7858H175.659L175.919 84.5264L176.582 84.5773L176.46 84.8794L176.815 85.0551V85.2603L176.003 85.7989L176.162 86.1798V86.6905L176.013 86.8399V87.3686L175.835 87.6379L175.508 87.4901L175.396 87.6379L175.743 88.0188L175.985 88.1305L176.05 88.4195L175.621 88.8464V89.1156L175.827 89.3209H175.985V89.5146L175.441 90.2125L175.49 90.6016L176.078 90.5556L176.536 91.0105L177.199 92.0892V92.5079L176.508 94.0399L176.274 94.4405L175.612 94.9791L174.893 95.1925L174.398 95.3781L173.418 96.3731L173.39 96.9576L172.839 97.7097L172.801 98.0069L172.979 98.3057L172.755 98.5274L172.839 98.7227L173.268 98.946L173.063 99.4748L172.306 100.32L170.813 101.501L169.515 101.78L169.18 102.245L168.942 102.888" stroke="#1D1D1B" stroke-width="0.5" stroke-miterlimit="10"/>
<path d="M165.177 109.374L169.469 109.43L169.3 107.964L169.665 107.294L170.561 106.918L170.491 105.202L170.561 104.057H174.094L174.263 103.89L174.16 102.315L174.253 102.307L184.851 109.64V110.013L185.245 110.139L185.56 110.589H186.082L187.154 111.09L187.194 111.54L187.007 111.834L187.131 111.957H188.002L188.258 111.913V114.858L187.873 115.742L187.337 116.134H185.156L183.808 116.658L183.831 117.137L184.214 117.802L184.28 118.021H184.587L184.948 118.272L184.653 118.566L185.508 119.122L185.935 119.003L186.11 119.308L185.847 119.438L186.23 119.874L185.677 120.425L185.156 120.377L184.488 121.042L184.422 121.554L185.113 122.001L185.08 122.666L185.404 122.988L185.372 124.841L185.263 125.588L185.516 125.84L185.413 126.117L185.536 126.24L186.436 125.983L187.624 125.818L188.348 125.955L189.017 126.444L189.61 127.035L189.536 127.762L190.287 128.401L191.73 127.93L191.859 128.068L191.762 130.371L192.362 130.303V131.894H191.707V133.524H188.977V135.168H191.788V197.212H186.273V199.409H191.745V204.798V211" stroke="#1D1D1B" stroke-width="0.5" stroke-miterlimit="10"/>
<path d="M208.025 0.0788574V5.47926V16.6873H220.879V29.6883H208.098V39.2905L208.618 39.1361L209.708 38.6879L211.475 38.481H212.166L212.617 38.9293L213.587 38.5664L214.728 38.6879L215.957 39.2905L216.668 39.3759L217.62 39.9112L218.036 40.6172L217.196 41.3577V41.8257H216.726L216.446 41.7058L216.135 42.2542L215.675 42.3626L215.144 42.911L215.065 42.4923L215.535 41.9455L215.25 41.6615L214.565 41.3282L213.864 40.8487L213.384 41.0786H212.483L211.797 41.76L211.482 43.0604L211.181 43.1409L210.751 43.7172L209.731 43.2295L209.51 43.3888L208.029 43.4299L207.499 42.7517L206.898 42.3429L206.808 42.2542L206.507 42.4627V42.7911L206.199 42.888L206.191 42.9241L208.997 44.484L209.315 44.8436L209.228 45.5858L209.101 45.7122L209.535 46.0669L209.261 46.3181L209.799 47.0619L209.393 47.6628V48.0027L209.964 48.8434L209.853 49.3475L207.017 52.6528L206.141 52.9631L204.881 54.2652L204.363 58.5113L205.542 59.6869L205.879 60.5916L205.737 61.5472L205.866 62.0645L205.348 62.6966L204.295 65.1908V66.0823L204.868 67.0757L205.171 67.3795H206.041L207.822 67.4534L208.649 67.3269L209.075 67.5667L209.225 68.0363L209.642 69.0313L209.682 69.7735L208.822 70.404L209.406 70.7833L209.178 71.3251L209.748 72.3431L209.876 72.4712L209.726 72.6206L209.868 72.8587L209.593 73.2068L209.098 73.3759L208.269 74.2889L208.302 74.9029L208.538 75.0162L208.363 75.1903L207.994 75.1213L207.685 75.8717L208.441 76.4776L208.505 76.6483L207.718 77.1327L207.19 77.7698L206.638 78.8617H206.379L206.087 79.1031L205.655 79.0489L205.65 79.1014L206.306 79.9273L207.06 80.3148L206.826 80.7434L207.758 81.1949L208.132 80.9371L208.403 81.2081L208.169 81.4412L208.335 81.7204L207.897 82.1883L208.075 82.6004L208.667 82.9485L207.994 83.4576L208.05 83.8204L208.169 83.937L207.941 84.1636L208.688 84.9074L208.636 85.469L208.205 85.7432L207.515 85.6217L207.202 85.9336L206.435 86.0092L206.46 86.3573L206.262 86.5543L206.046 86.9385L205.737 87.0912L205.77 87.39L205.422 87.5526H205.08L205.283 87.8268L205.648 87.9647L206.135 88.4081L206.248 88.5214L205.803 89.2734L205.737 89.4835L206.159 89.7003L206.29 90.0402L206.841 89.9926L207.28 90.4113L206.963 90.7265L207.255 91.091L207.638 90.8152L208.043 91.4621L208.091 92.4391V95.9939L207.69 95.8987L206.064 96.3749L205.386 97.0497V97.5817L205.49 98.0907L205.217 98.7573L204.468 99.1383L203.064 98.25L201.627 97.8362H201.07L200.606 97.5817L200.065 96.5391L199.564 96.5276L198.777 96.1614L197.266 96.1433L196.06 95.5539L196.14 96.4947L194.822 97.3436L194.743 98.4404L194.311 98.9839L193.89 99.0627L193.753 99.2893L194.265 100.081L194.322 101.314L194.515 101.935L194.151 102.501L194.276 103.327L193.788 103.938L194.402 104.695L194.56 105.384L194.969 105.78L195.355 105.655L196.094 105.972L196.719 106.99L198.379 107.353L199.128 107.941L201.037 106.979L209.687 111.437V115.715L208.835 115.693L208.522 116.004L208.326 116.686L208.161 116.983H207.939L207.893 117.139L208.121 117.444L207.586 117.889L207.916 118.382L207.334 118.891L207.484 119.118H207.916L207.996 119.658L208.286 119.743L208.073 120.159L208.608 120.627L208.497 121.034L209.218 121.988L209.244 122.613L209.027 122.922L209.073 123.291L209.873 123.357V123.771L210.031 123.93L210.521 123.891L211.058 124.351L211.071 124.628L212.338 125.662L212.153 125.948L212.239 126.162L213.149 126.643L213.318 127.171L213.542 127.396L213.37 127.505L213.009 127.308L212.848 127.145L212.339 127.354L212.011 127.094L211.701 127.277L211.44 127.015H211.163L210.922 127.452L210.505 127.495L210.241 127.232L208.977 127.922L208.533 127.598L207.994 128.306L208.51 128.552L208.895 128.516L209.302 128.69L209.01 128.981L208.679 128.882L208.253 129.224L208.603 129.49L208.684 130.053H209.104L209.314 130.447H208.9L208.72 130.626L208.55 130.475L208.329 130.695L208.027 130.73L207.781 131.219L208.255 131.332L208.456 132.117L209 132.946L208.67 133.273L208.763 133.365L209.271 133.33L209.342 133.513L209 133.723V133.907L209.525 134.063L209.649 134.352V134.718L209.289 135.076H208.83L208.395 135.004L207.938 135.283L207.847 135.563L207.643 135.521L207.586 135.347H207.418L207.362 135.598L207.194 135.536L207.092 135.299H206.869V135.582L206.499 135.552L206.046 136.531V137.276L205.721 137.6L205.437 137.391L205.293 137.534L205.559 138.118L205.4 139.245L204.924 139.56L205.262 140.161L205.339 140.412L206.052 140.44L206.041 140.734H207.331L207.4 141.105L207.23 141.476L207.496 141.898L207.331 143.276L207.689 143.632L207.761 144L207.92 144.44L207.717 144.586L207.761 145.039L207.786 145.139L208.261 144.888H209.513L209.706 144.673L209.795 144.709L209.766 145.202L209.807 146.256L209.65 146.586L209.739 146.928V147.039L207.626 146.959L207.482 147.102L207.539 150.344L207.684 150.789L209.261 152.031L209.263 152.082L208.19 152.354L207.321 152.433L206.433 152.472L204.256 152.288L203.663 151.745L198.801 151.84L198.176 151.348L197.746 151.353L197.279 151.673H196.419V152.607L197.51 154.231L199.445 157.782L199.357 159.495L199.796 160.408V161.41L200.261 163.135L200.776 163.986L201.606 164.661L203.035 167.9L203.632 168.928L203.393 169.549H203.008V169.825L203.281 170.096L203.724 170.788V170.999L203.645 171.197L203.863 171.414H204.188L204.333 171.672L204.783 171.882L205.46 172.107L206.202 171.554H207.38L207.784 171.151H208.123V204.798V210.921" stroke="#1D1D1B" stroke-width="0.5" stroke-miterlimit="10"/>
<path d="M218.036 40.6172L220.088 41.3544L220.364 41.9045L220.973 41.8207L221.275 42.1196H222.202L222.769 42.3035L224.29 43.0604L224.408 42.8601L224.393 21.8348H222.217V16.6758H224.393V5.47926V0.0788574" stroke="#1D1D1B" stroke-width="0.5" stroke-miterlimit="10"/>
<path d="M215.129 42.8271L214.614 43.1063L214.872 43.2344L214.614 43.9535L214.835 44.4215L215.548 44.6251L215.944 45.1686L216.248 45.3426V45.5167L215.183 46.8089L215.883 47.73L216.323 48.9615L215.898 49.0748V49.6199L215.769 49.7923L216.111 50.0419L215.814 50.1634L216.073 50.5706H216.323L216.505 50.8202L216.231 50.9647L216.414 51.3046L216.771 51.5082L216.975 51.8711L216.52 52.3242L216.338 52.3768V52.472L216.878 52.8004L217.496 53.2158L217.962 53.7429V53.9432L217.632 54.5031L215.428 56.5638L213.789 57.8035L213.483 58.2517L213.136 58.5128H212.671L212.329 58.7164L212.918 59.3666L213.469 59.2435L213.964 59.4109H214.185L214.23 59.6884L213.953 59.9019L213.758 60.2254L213.407 60.5767L213.456 61.4437L213.844 61.9215V62.084L213.464 62.2138L213.387 62.5454L213.836 62.8229L213.875 63.0085L213.712 63.24V63.4633L213.743 63.6718H213.984L214.185 64.0725L214.269 64.2728V64.6192L213.651 65.2366L212.976 65.1677L212.519 65.4993L212.41 65.8146L212.697 66.1003L211.691 66.6093L211.45 67.3482L211.691 67.6798L211.419 67.734L211.191 67.5074L210.869 67.6257L210.668 67.5731L210.397 68.0279L210.048 68.1281L209.195 67.9458" stroke="#1D1D1B" stroke-width="0.5" stroke-miterlimit="10"/>
<path d="M209.36 71.4532L209.792 71.3728L210.233 70.9344H211.539L212.339 71.1035L213.395 71.3186L213.568 71.4532L213.662 71.6076H213.857L214.022 71.3843L214.317 71.271L214.822 71.7718L215.203 71.3137L215.543 71.7356L216.112 71.693L216.393 71.5288L216.774 71.908L216.983 71.7012L216.81 71.422L217.322 70.6897H218.259L218.582 70.7472L219.036 70.2956L219.699 70.4385L219.846 70.2924L220.347 70.2595L220.715 70.7111V70.9327L221.045 71.0838V71.2841L220.671 71.335L220.771 71.6437V71.908L221.406 72.0443L221.672 71.9015L222.113 72.2233L222.04 72.4745L222.141 72.8768V73.0623L222.436 73.2709L222.853 73.0689L223.431 73.3776L224.359 73.0197L225.021 73.816L225.3 73.5385L225.504 73.6354H225.706L225.98 73.908L226.29 73.7503L226.966 74.3102L227.261 74.1592L227.291 74.7404L226.837 74.9473L226.793 75.1345H227.212V75.3496L226.793 75.4136L226.765 75.614L227.161 76.1016L226.793 76.7469L226.037 76.632L225.684 76.9833H225.31L225.173 77.6713H224.402L224.397 80.1277L224.208 80.177L223.685 79.9093L223.49 80.2623L224.407 80.9421L224.327 85.6874L223.924 85.6201L223.645 85.2769L223.243 85.5527L222.667 84.6464L222.179 85.0372L221.794 84.7416L221.708 84.446L221.459 84.5314H220.021L219.844 84.3557L219.196 84.7712L218.851 84.7235L218.064 85.2473L217.591 85.7202H217.068L216.55 85.4953L216.147 85.6578L215.187 85.5429L214.2 85.0848L214.047 84.5413L213.547 84.6743L213.202 84.3311L212.445 84.6841L212.229 84.8992L212.56 85.2293L212.234 85.5527V85.9452L211.999 86.1783L212.522 86.2407H212.81L212.877 86.4985L212.206 86.7645L211.745 86.8121H211.439V87.1471L211.927 87.5001L212.042 87.8531L212.425 87.7579L212.81 87.6052L212.973 87.7677L212.666 88.0731L212.8 88.3966L213.078 88.5017L212.843 88.7365L212.483 88.7792L212.224 89.1421L212.113 89.2521L212.239 89.4557L212.654 89.1716L212.895 89.0517L213.021 88.927L213.168 89.0747L212.971 89.2701L212.666 89.477L213.103 89.5739L213.354 89.7381L213.299 89.9548L213.004 90.1404L213.299 90.4014L213.54 90.4343L213.704 90.7068L213.956 90.7939L214.337 90.6838L214.436 90.8251L214.557 90.9449L214.698 91.0878L215.015 91.1748L215.213 91.2717L215.452 91.6855L215.977 91.9137L216.492 91.6855L216.764 91.7511V91.229L216.983 91.0434H217.442L218.81 91.7938L219.181 92.3488H221.915L222.22 93.7527H223.226L223.465 94.2321L223.116 94.7313H222.853L222.701 94.9595V95.1451L222.601 95.4406L222.685 95.9562L222.231 96.503V97.6934L221.616 100.059L221.248 101.481L221.349 101.655L221.726 101.468L223.233 103.78L223.582 103.967L223.625 104.104L223.566 104.301L224.14 104.99L224.183 105.688L224.414 106.056V112.241L225.495 112.977L225.536 113.212L225.206 113.686H224.93L224.292 114.215H223.782V115.003L223.31 116.134L223.338 117.351L222.881 119.044H222.471L221.832 119.967L221.677 120.896L221.382 121.191L221.203 121.014L220.872 121.257V121.746L220.656 122.582L220.69 123.278L220.509 123.653L219.796 123.618L219.447 124.195L220.247 124.549L221.319 125.615L221.832 126.736L222.075 126.976L222.584 126.997L222.484 127.592L222.315 127.682L221.867 127.346L221.354 127.626L220.888 127.873L220.011 128.748L219.381 128.584L218.884 128.687L218.551 129.019L218.097 128.639L217.793 128.871L217.424 128.662L217.054 129.175L217.023 129.58L217.127 129.836L217.054 130.283L217.696 130.547L216.196 131.943L215.876 132.958L215.779 134.202L216.221 134.442L216.695 133.971L217.175 134.657L217.127 135.383L216.83 135.48V135.999H217.167V136.412L216.63 136.948L216.253 137.324L215.555 137.723L215.54 138.393L215.86 139.048L215.764 139.662L216.196 140.228L217.223 141.977L217.368 142.192L217.808 142.159L218.602 142.742L220.479 143.333L220.672 143.141L221.169 143.668L221.208 144.77L221.674 145.432H222.348L222.652 145.13L223.383 145.632L223.734 145.32L224.008 145.353L224.417 145.632L225.062 144.99L225.483 145.264L225.917 144.929L226.405 144.946L227.593 144.179L227.842 144.575L227.558 145.023L227.519 145.172L227.803 146.691L227.652 147.006L227.621 147.65L227.921 148.563L227.882 149.397L226.981 150.773L225.069 151.632L224.452 151.985V187.083L224.155 187.379V187.747L224.488 188.078V204.89V210.921" stroke="#1D1D1B" stroke-width="0.5" stroke-miterlimit="10"/>
<path d="M242.023 60.9397L242.261 61.5423L242.578 62.0694L242.34 62.4224L242.715 62.7951V63.4174L242.324 63.5636L242.249 63.8493L242.736 64.1957L242.801 64.5635L242.144 65.0479L241.741 64.6489L241.255 64.4699L240.588 64.9116L239.785 65.0282L239.679 64.8065L239.32 64.0283L239.468 63.7113L239.404 63.3124L239.161 62.7426L239.626 62.6687L240.144 62.3009L239.943 61.4274L240.166 61.0694L240.525 60.9742L241.022 61.2172L241.096 61.0169H241.434L241.573 61.2911L241.858 61.2484L242.023 60.9397ZM242.023 60.9397L242.249 60.521L242.091 60.3634L242.165 60.0383H241.689L241.467 59.6475L241.689 59.1631L241.943 59.0909L242.07 58.6475L241.794 58.2486L241.235 58.416L240.463 58.2371L240.377 57.7954L239.871 57.6591L239.996 57.1846L240.568 57.311L240.653 57.0056L241.034 57.1107L241.171 56.7954L241.614 56.8693V57.1944L242.113 57.3208L242.228 57.0581L243.381 57.2158L243.731 56.7839L244.132 56.8792L244.376 56.5212L244.683 56.7117L244.873 56.6263L245.307 56.1945H247.57L248.205 55.8579V55.2273L248.459 54.5738L248.205 54.1535L248.311 53.8268L248.025 53.5213L248.215 53.2471V52.8268L248.766 51.8269L248.385 51.5526L248.565 51.2784L248.332 51.0469L248.596 50.4476L249.183 50.0108L249.558 50.3836L249.718 50.111L249.977 50.1783L250.289 49.868L250.495 49.3573L250.881 48.9731L252.001 48.6792L252.181 47.9732L252.509 48.0471L252.615 47.6054L253.197 47.1949L253.526 47.3098L253.885 46.8993H254.403L254.646 46.2885L255.451 45.8353L255.355 45.7106L255.228 45.5841L255.677 45.346L255.451 45.1194V44.8781L254.821 44.9569L254.626 44.7615L254.583 44.415L255.038 43.773L254.751 43.489L254.509 43.246L253.799 43.1836V42.8256L254.509 42.0884H254.751L255.302 42.425L256.022 41.7091L255.957 41.3512L256.211 40.9407L256.137 40.6779L256.35 40.54L256.297 40.2363L256.434 40.0983L256.487 39.7617H255.947L255.83 39.6452L255.863 38.7092L256.96 37.8242V29.6982H259.419V25.3552H256.97V13.8795H240.793V5.47926V0.0788574" stroke="#1D1D1B" stroke-width="0.5" stroke-miterlimit="10"/>
<path d="M234.342 75.5006L233.691 74.8274L233.455 74.8898V75.2346L233.079 75.6106L232.749 75.3594L232.363 75.6254L232.532 76.0211L232.834 76.3215L233.369 76.3051V76.7599L234.077 77.2755L234.367 76.9865L234.563 77.1195L234.288 77.4873L235.004 78.1983L234.225 78.5891L234.265 78.7615L234.87 78.9733L234.684 79.6514L234.745 79.7171L234.908 79.6613H235.278V80.0833L236.967 80.7171L237.95 79.3165L237.061 78.7533L236.347 78.3707L236.503 78.2147L236.751 78.2492L236.944 78.0571L235.844 76.7517L235.027 76.9241L234.822 76.7205L234.862 76.1344L234.177 75.9143L234.342 75.5006ZM234.342 75.5006L234.819 74.9571L234.469 74.609L234.578 73.944L235.067 73.6386L235.169 73.1854H235.514L236.276 74.0228L236.865 73.7798L236.662 73.5762L236.418 72.7404L236.756 72.7946L237.353 72.4744V72.192L238.406 71.9112L238.602 71.4564H238.869L238.909 71.1215L239.537 70.6519L239.608 69.9557L239.882 69.8457L239.93 69.6109L240.371 69.3071L240.3 68.7833L240.715 67.8523L240.158 67.2661H240.496L240.786 67.3351L241.227 67.5781L241.651 67.7899L241.746 67.7259L241.659 67.3597L241.933 66.8359L241.446 66.2645L241.941 66.1233L242.617 65.3877L242.144 65.0479" stroke="#1D1D1B" stroke-width="0.5" stroke-miterlimit="10"/>
<path d="M240.158 67.2661L239.663 67.01L239.362 66.8458L239.079 67.1298V67.427H238.539L238.307 67.1972L237.746 67.1364L237.416 67.0543L237.282 66.5486L236.908 66.7276L236.645 66.9886H236.338L235.994 66.7867L235.702 67.0773L235.462 66.8392L235.2 67.1003L234.878 66.7785L234.512 66.9886L234.237 66.7867L234.185 66.8179L234.303 67.427L233.884 67.6208L233.598 67.7554L233.837 68.1873L234.288 68.6339L234.542 68.8884L234.631 69.2611V69.6634L234.542 69.8259L234.271 69.9162L234.002 69.8407L233.598 70.243L233.179 70.11L232.925 70.3629H232.669L232.296 70.243L232.07 70.0197L231.831 70.4532L231.442 70.289L231.27 70.1166L230.963 70.243L230.798 70.4072L230.589 70.1543L230.335 70.4072L230.094 70.6469V70.9293L229.66 71.2118L229.975 71.481L230.094 71.7634L230.447 72.1132L231.262 71.6896L231.577 71.8685L232.362 71.5993L232.506 71.9572H232.819L233.044 72.1132L232.569 72.5877L233.164 72.7026L233.418 72.2248L233.793 72.5976H234.093L234.466 72.389L234.557 72.7765L235.02 72.6731L235.169 73.1854" stroke="#1D1D1B" stroke-width="0.5" stroke-miterlimit="10"/>
<path d="M237.571 83.6594L235.568 85.551H235.235L234.433 84.6643L234.163 84.7004L233.829 84.6118L233.173 84.2752L233.418 83.9829L233.184 83.7924L232.554 83.533L232.293 83.73L232.069 83.5084L231.432 83.8056L231.178 83.4H230.878L230.145 82.8549L229.54 82.9173L228.89 82.8926L227.973 82.4165H227.374L227.176 82.6135L227.271 82.8614L228.202 83.2095L228.743 83.6529L229.094 84.2308L229.132 84.643L228.801 85.1503L229.827 85.2702L230.109 84.9681L230.292 85.1503L231.025 85.9122L231.015 86.9039L231.196 87.0846L231.777 87.0534L232.153 87.4277L233.07 88.454L234.255 88.5049L235.708 87.3194L236.187 87.9154L235.938 88.0303L236.187 88.2766L235.832 88.4934L236.561 89.2191L239.661 88.3834L238.942 85.2456L237.571 83.6594ZM237.571 83.6594L236.967 82.9616V80.717" stroke="#1D1D1B" stroke-width="0.5" stroke-miterlimit="10"/>
<path d="M232.064 87.3391L231.929 87.7726L231.505 87.881L231.826 88.6806V89.1748L231.98 89.3275L231.68 89.7183L232.184 90.0894L232.146 90.3357L232.381 90.5689L232.417 91.1353L232.64 91.357V91.5278L232.899 91.7954V92.1303L233.41 92.4062L234.001 92.2962V92.5655L233.6 92.6164L233.766 92.8857V93.2485L233.474 93.3651L233.344 93.6984L233.308 93.8955L233.016 93.9825L233.14 94.3092L232.965 94.5999L233.3 94.9332L233.585 95.2304L233.687 95.7689L234.242 95.9725L234.839 96.4142H235.263L235.672 97.2352L235.467 98.0562V98.2302L235.898 98.1875L235.853 98.7901L236.218 99.153L236.594 99.5274L236.832 99.0512V98.9051H237.153L237.51 99.3993L238.115 99.0873L238.759 100.002L238.597 100.343L239 100.38L239.626 101.884H240.304L240.699 102.145V105.412L239.725 106.089L240.803 107.545L243.693 107.837L244.089 108.717L243.409 110.975L240.156 112.069L241.369 114.686L240.836 114.901V117.564H243.434V120.873H240.724V141.749H233.115V144.658H240.768V149.308H243.759V151.057H240.7V185.059H236.889V187.776H240.712V204.798V210.921" stroke="#1D1D1B" stroke-width="0.5" stroke-miterlimit="10"/>
<path d="M239.661 88.3833L242.205 90.4686L242.951 90.3668L243.622 89.6985L243.974 89.5097L244.733 89.5967L245.114 89.2191L245.843 89.3356L246.165 89.6558L246.559 89.7576L247.143 90.1632L247.829 90.0335L248.151 90.1927L248.385 90.7165L248.925 90.8035L249.261 91.3126H250.137V92.2583L250.314 92.7082L250.065 93.5522L249.721 93.8937L249.86 94.1761L249.436 94.337V95.0628H249.87L249.941 95.1777L249.51 95.6013L249.802 96.6489L249.7 96.997L249.802 97.593H250.606L250.898 98.2039L249.817 99.5995L250.955 101.04L251.921 101.576V102.609L252.432 102.681L252.3 103.307L251.511 103.424L250.898 103.816L250.576 105.038L249.977 105.095L249.451 104.921V104.658H248.078L247.874 104.862L247.465 104.456L245.93 104.281L245.551 102.87L245.354 102.675L244.398 103.235L243.797 103.394H242.791L241.972 103.176L241.431 102.639L240.699 102.391" stroke="#1D1D1B" stroke-width="0.5" stroke-miterlimit="10"/>
<path d="M256.972 13.8795V5.53837V0.0788574" stroke="#1D1D1B" stroke-width="0.5" stroke-miterlimit="10"/>
<path d="M270.795 84.2408L270.531 83.9781H270.056L269.7 83.5052L266.146 83.2408L265.8 83.451L265.27 83.4132L264.667 83.0405H263.956L263.553 83.5134L263.644 83.8861L263.599 84.0684L262.383 83.5774H261.224L260.676 84.1948H261.087L261.161 84.359L260.004 85.0913L260.174 85.2588L260.466 85.2227L260.676 85.5494L261.197 85.7054L261.342 85.5593L261.608 85.1324L261.763 85.5051L262.055 85.4492V85.7596H262.375L262.677 85.9402H263.106V86.1044L262.631 86.3868L262.411 86.2949L262.357 86.6134L262.101 86.505L261.941 86.7546L261.717 86.9779L261.435 86.6955H260.941L260.338 87.1405L260.211 87.014L259.909 86.8597H259.389L258.977 87.1766L259.041 87.6774H259.689H260.192L260.905 87.8679L261.379 87.6134L261.69 88.1224H262.22L262.439 87.8958H263.251L263.992 87.6314L264.083 86.996L265.015 86.7415L265.069 86.3507L265.454 86.5674L265.828 86.1767L265.955 86.6676L266.75 86.6774L267.435 85.7596L268.737 85.6463L269.307 85.0782L270.842 84.4592V84.0224L270.769 83.6414L271.116 83.4773V83.2047L271.5 83.0503L271.125 82.0143L271.025 81.2327L271.224 80.9142L271.043 80.7319L270.713 80.878L270.403 80.6498L270.687 80.4955L272.34 79.9782L272.76 80.2689L273.445 80.1589V79.9224L273.153 79.7319L274.001 77.5596L274.925 77.9422L275.581 77.8141L276.01 78.0227L276.687 77.5416L276.824 77.2411L276.641 76.4053L276.924 75.8963L277.645 75.8142L278.002 75.4596L278.048 74.9686H278.431V74.7782L277.673 74.0146L277.335 74.4054L276.449 74.3151L276.111 73.9785L276.02 73.614L275.181 73.215V72.9868L274.842 72.4696L274.075 72.2594L273.765 72.3596L273.417 72.642L272.823 72.5779L272.17 72.6551L271.874 72.3596V72.087V71.9425L271.408 71.7783L271.079 71.9606L271.18 72.3234L270.832 72.5418L270.614 72.4334L269.589 70.7422L268.641 69.2612L268.065 68.6881L266.914 67.7522L267.115 67.478L267.334 67.2613L267.215 67.1431L264.604 68.3236L264.548 68.7325H264.33L264.155 68.3975H263.909L263.517 68.6783L263.343 68.4057L263.891 67.8967V67.7243L263.607 67.8146L263.16 67.8606L262.74 67.7062L262.484 67.9607H262.293L262.461 67.5831L262.202 67.3237H261.954V67.524L261.781 67.6701L261.12 67.7292L260.923 67.5338L261.004 67.3335V67.033L261.151 66.8606L260.74 66.0429L260.356 65.9608L260.448 65.4518L260.338 65.1793L260.745 64.7737L260.521 64.552L260.712 64.2236L260.941 63.8246L261.197 63.9429L261.631 63.557L260.885 62.8148L260.521 63.025L260.278 62.7836L260.521 62.5423L260.164 61.9512L260.585 60.9791L260.867 60.897L261.151 61.3338L261.078 61.6162L261.817 61.5604L262.101 61.7706L262.75 61.8527L263.197 61.5702L264.393 61.6244L265.439 60.764L265.882 60.2058L266.212 59.5802L266.966 59.1746L267.161 58.2305L267.064 57.9415L267.392 57.8364L267.47 57.2108L268.303 57.3931L269.764 57.2387L269.947 57.5376L270.693 57.6345L271.389 57.3258L271.612 57.3931L271.96 57.5573H272.648L272.841 57.7494H273.084L274.05 56.9498L274.389 56.8923L274.816 57.1813L275.327 57.2782L277.127 56.1895L276.944 56.0056L275.647 55.7084L275.415 55.0714L276.769 53.6363L276.556 53.4245L276.659 53.1897L276.509 53.0403L276.233 52.7562L277.177 51.817V51.4788L277.032 51.2193V50.689L276.596 50.4969L276.266 50.7284L275.938 50.4H275.26L275.647 49.7744L275.59 49.3803L275.377 49.2933V49.0618L274.999 48.8303H274.486L274.351 48.4641L274.486 48.1177L273.915 47.6842V47.4248L274.176 47.2803V47.0783L272.986 46.346L272.939 46.1621L273.229 46.057V45.6432L272.967 45.5562L272.821 45.3247L272.493 45.1424L272.453 44.814H273.267V44.4676L273.605 44.2558V43.9093L273.344 43.6499L273.9 43.6006V43.4414L273.722 43.264L273.402 43.0998L273.298 42.5317L272.744 42.5793V42.3298L272.638 42.0605H272.386V42.3577L271.597 42.5071L271.351 42.2624H270.616L270.335 42.1376L270.218 41.6451L269.687 41.5974L269.464 41.1837L269.754 40.7781L270.015 40.8471L270.276 40.4612H270.489L270.828 40.1246L271.427 40.21L271.477 39.9982L271.351 39.123L271.119 38.8915L270.586 38.834L270.18 38.5253L269.792 38.4383L269.687 38.2364L269.88 37.793L270.576 37.908L270.731 37.7553L270.576 37.4942L270.886 37.3792L270.809 37.0903L270.373 36.9261L269.773 36.9835L269.192 36.7816L268.953 36.4548V21.1797H266.016V15.579H273.298V5.53837V0.0788574" stroke="#1D1D1B" stroke-width="0.5" stroke-miterlimit="10"/>
<path d="M250.314 92.7083H250.944L251.384 93.1467L251.691 93.0006L252.092 92.9283L252.495 92.5277L252.222 92.352L252.414 92.1615L253.618 91.8512L253.885 91.5852L254.082 90.9777L254.026 90.7232L254.313 90.5097L254.856 90.5573L255.199 90.2158L255.575 90.4375L255.854 90.5163L256.588 90.4145L256.896 90.7199L257.307 90.6115L257.642 91.0499L258.185 90.6443L258.607 90.4539L258.975 90.8184L259.186 90.6082L259.231 90.1747L259.363 90.045L259.813 90.16L260.1 89.9695L259.892 89.6904L260.572 89.0713L261.003 89.0467L261.202 89.4687V89.6904L261.562 89.8808L261.329 90.5015V90.9859L261.562 91.2798L262.463 90.8512L262.999 90.4687L263.556 90.2158L263.82 90.5967L264.442 90.3422L264.802 90.5885H265.185L265.444 90.3307L265.145 90.1041L265.089 89.1502L264.475 88.7216L263.972 88.8004L263.744 88.5738L263.916 88.4031L263.66 88.1502L263.708 87.7332" stroke="#1D1D1B" stroke-width="0.5" stroke-miterlimit="10"/>
<path d="M249.817 99.5996L251.736 100.059L252.859 99.9542L253.358 100.158L253.862 99.7588L255.378 99.5996L255.771 99.391L255.839 98.2729L256.466 97.7622L256.947 97.9806L257.317 97.8L257.076 97.5603L257.876 97.1695L258.14 97.1251L258.516 97.4995L259.006 97.0792L258.924 96.4043L259.165 96.1629V95.8329L259.369 95.631H259.64L260.094 95.3978L259.566 94.5867L259.83 94.4225L260.56 94.6622L261.05 94.2796L260.78 93.8658L261.375 93.4077L261.58 93.1007L261.481 92.6048L261.029 92.0498L261.537 91.5425L261.821 91.577L262.522 91.1862L262.642 90.7231" stroke="#1D1D1B" stroke-width="0.5" stroke-miterlimit="10"/>
<path d="M262.552 91.0713L263.789 90.9909L264.114 91.1485L264.695 90.8037V90.4802" stroke="#1D1D1B" stroke-width="0.5" stroke-miterlimit="10"/>
<path d="M271.607 99.1908L271.792 99.3682L271.973 99.337L272.251 98.8378L272.777 98.9133L272.92 99.2368L273.184 99.337L273.706 99.7934H274.151L274.565 100.348L275.085 100.248L275.248 100.642L275.763 100.992H276.188L276.24 101.347L276.721 101.284L277.193 101.752L277.33 101.54L277.688 101.828L277.964 101.478L278.284 101.877L278.642 101.821L279.412 101.89L279.249 102.783L279.62 103.151L279.401 103.606L278.516 103.65L278.315 103.363L277.926 103.65L277.706 103.407L277.03 103.439L276.773 103.026L276.383 103.151L275.7 102.889L275.631 102.562L275.21 102.296L274.816 102.508L274.552 102.296L274.21 102.562L274.019 102.371H273.643L273.58 102.122L273.052 101.872L272.62 101.915L271.993 101.378L271.454 101.059L271.193 100.857L271.021 101.028L270.713 100.779V100.585L270.908 100.299V100.086L271.071 99.7245L271.691 99.1055L270.908 98.8066V98.4946L270.312 98.3321L269.985 98.1071L269.622 97.6211L269.428 97.8132L269.184 97.5702L269.255 97.0924L268.964 96.8034L268.839 96.3847L269.24 96.2156L269.553 96.6458L270.086 96.0531L270.041 95.6787L269.441 95.3109L269.246 94.618L269.54 94.1435L268.794 93.7757L268.593 92.9071L268.398 92.6575L267.364 92.7018L266.862 92.1649L266.466 92.3767L266.16 92.0713L266.351 91.5804L266.028 91.2602L265.363 90.853L264.695 90.8037" stroke="#1D1D1B" stroke-width="0.5" stroke-miterlimit="10"/>
<path d="M267.598 92.6919L267.413 93.2961L266.999 93.7083H266.664L266.135 93.9808H265.633L265.354 93.705H264.434L264.012 93.7707L263.853 94.0777L264.064 94.4291L264.275 94.6393L264.178 94.92L264.328 95.2172L264.117 95.6129L264.492 95.9857L264.874 96.0596V96.4372L265.443 96.5242L265.483 96.8231L264.724 97.227L264.61 97.4716L264.681 97.8756L264.897 98.0907L263.985 98.8049V99.1743L263.429 99.4272L263.007 100.463L262.382 100.831L261.694 101.857L260.681 102.033L260.278 101.634L259.94 101.823L259.244 102.805V103.164L259.41 103.332H259.861L259.993 103.542L259.895 103.918L260.037 104.411H260.53L260.918 105.542V105.883L260.694 106.107L260.346 105.839L259.729 106.182L258.406 105.962V106.401H257.975L257.728 106.752L257.746 106.91L258.115 106.831L258.379 107.348L259.006 107.708L258.917 108.208H258.688L258.706 108.479L260.27 110.036L260.794 110.12L262.002 109.594L262.142 109.33H262.627V109.708L262.891 109.76L262.716 110.786L262.804 111.497L262.989 112.62L263.315 114.374L263.484 115.236L263.965 115.922L263.873 116.164L264.402 116.587L264.233 116.758L264.615 117.139L265.102 118.679L264.996 119.09L266.021 120.54L266.633 121.96L266.758 122.828L266.981 123.05L266.968 123.296L267.598 123.989L267.935 124.114L268.53 123.681L268.623 123.154L268.949 122.828L269.528 122.695L270.083 122.945L270.515 125.377L270.848 126.28L271.18 126.434L272.506 125.795L272.694 125.267L272.528 124.387L271.256 122.462L270.371 121.669L270.439 120.899L270.195 120.558L270.416 120.338V119.93L270.98 118.907V118.05L270.627 117.302V116.377L270.936 115.64L271.234 115.476L271.688 115.596L272.085 114.936H272.605L273.047 114.715L273.125 114.221L273.357 113.901L274.075 113.604L274.506 113.011L275.114 112.812L276.088 111.579L277.536 110.942L278.254 110.128L278.033 109.468L278.364 109.138L279.183 108.962L279.78 109.192L280.455 109.149L280.443 108.323L280.277 107.818L280.399 107.3L279.935 106.662L280.088 106.112L279.747 105.805L279.437 105.65V105.386L279.78 105.044L280.321 104.979L280.509 104.89L280.222 104.604L279.813 104.473L279.448 104.197V103.977L279.714 103.57L279.62 103.34L279.945 103.394L280.272 103.719H280.465L280.76 104.013L280.91 104.161L281.156 103.916L281.39 104.146L281.337 104.475V104.77L281.826 105.074L282.34 105.066L282.811 104.952L283.282 104.997L283.718 104.831L284.137 105.126L284.214 105.396L283.866 105.56L283.604 106.028L283.469 106.163L283.038 106.228L282.741 106.765L282.89 107.156L283.177 107.529H283.535V107.139L283.639 106.905V106.653H284.023L284.111 107.373L284.294 108.328L284.337 108.501L284.66 108.588L285.008 108.371L284.833 107.832L284.904 107.443L285.218 107.373L285.234 106.593L285.122 106.305L285.244 106.184L286.037 106.453L286.683 105.1L286.516 104.718L286.917 104.397L287.161 103.859L287.031 103.555L287.24 103.235L288.713 102.453L289.167 102.87L289.327 102.709L288.966 102.228L289.542 101.708L289.481 101.439L289.045 101.238L288.539 101.274L288.339 101.161L288.73 100.754L288.618 100.493L288.19 100.744L288.06 100.414L288.39 100.224L288.068 99.9034L287.397 100.572L286.481 100.112L285.78 100.81L284.992 100.961L284.79 101.421L284.416 101.568V101.898L283.893 102.038L283.396 102.002L282.82 101.568L282.585 101.803L281.958 101.578L281.713 101.309L281.138 101.439L280.649 102.054L280.24 102.549L280.179 102.107V101.69L279.996 101.508L279.412 101.89" stroke="#1D1D1B" stroke-width="0.5" stroke-miterlimit="10"/>
<path d="M280.24 102.548L280.275 102.801L280.527 103.13L280.875 102.966L281.042 103.287H281.539L281.926 102.9L282.359 103.287L283.63 103.227L283.88 102.979L283.622 102.723L283.814 102.532L283.726 102.332L283.248 102.271L283.396 102.002" stroke="#1D1D1B" stroke-width="0.5" stroke-miterlimit="10"/>
<path d="M289.481 101.439L289.731 101.058L290.32 101.527L290.363 101.982L290.48 102.1L291.008 102.232L291.084 103.57L290.731 104.054L290.946 104.268L290.591 104.537H290.37L289.974 104.938V105.442L289.738 105.501L289.669 105.864L289.939 106.133L289.7 106.371L289.845 106.515L290.461 106.208L290.911 106.236L291.154 106.125L291.286 106.346L291.008 106.622L291.201 107.245L291.653 107.361L291.848 107.305L291.889 107.548L291.639 107.824L291.487 108.363L291.619 108.494H292.229L292.406 108.67L292.34 108.873L292.61 109.287H292.853L293.533 108.886L293.617 109.225L293.11 109.509L292.957 109.847L293 109.998L292.576 110.254L292.305 110.433L291.993 110.489H291.785L291.757 110.778H291.437L291.355 111.159L290.688 111.213L290.433 111.166L290.329 111.062L289.981 111.463V111.911L289.911 112.215L289.946 112.477H289.621H289.461L289.524 112.691L289.718 112.775L289.905 113.036L289.863 113.333L290.744 114.313L290.87 114.755L291.043 114.929L291.106 115.129L290.904 115.328L290.792 115.597V115.937V116.144L290.487 116.233L290.38 116.339L290.446 116.765L290.838 117.155L291.446 117.835L291.5 118.415L291.437 118.656L291.799 119.209V119.457L292.007 119.968L291.126 121.211L291.022 121.564L290.377 122.467L289.76 122.676" stroke="#1D1D1B" stroke-width="0.5" stroke-miterlimit="10"/>
<path d="M284.337 108.501L284.404 109.366H284.103L283.865 109.745L284.731 110.854L285.327 112.167L285.653 112.492H286.209L286.401 113.195L286.155 115.348L286.838 115.64L287.371 115.679L287.783 115.064L288.928 114.454H289.453L289.54 114.944L289.708 115.679V127.117L289.327 127.29L289.149 127.112L288.415 127.191L287.267 126.38L287.019 126.626L287.834 128.137L289.708 129.674L289.365 130.385L288.352 130.053L287.902 129.605L287.668 129.84L288.564 130.385L289.708 131.864V204.78V210.921" stroke="#1D1D1B" stroke-width="0.5" stroke-miterlimit="10"/>
<path d="M289.708 145.075H288.096V146.645H289.708" stroke="#1D1D1B" stroke-width="0.5" stroke-miterlimit="10"/>
<path d="M250.576 105.038L250.921 105.184L251.267 104.839L251.508 105.012L251.795 104.839L252.734 105.095L252.996 104.729L253.465 104.613L253.882 104.898L253.922 105.095L254.783 104.703L255.578 104.782L255.878 104.483L256.243 104.833L256.165 105.327L256.713 105.501L256.843 106.209L257.026 106.391V204.798V210.921" stroke="#1D1D1B" stroke-width="0.5" stroke-miterlimit="10"/>
<path d="M264.086 119.214H261.375V124.288H264.086V119.214Z" stroke="#1D1D1B" stroke-width="0.5" stroke-miterlimit="10"/>
<path d="M262.844 137.877H260.595V141.468H262.844V137.877Z" stroke="#1D1D1B" stroke-width="0.5" stroke-miterlimit="10"/>
<path d="M286.356 117.729H283.71V125.805H286.356V117.729Z" stroke="#1D1D1B" stroke-width="0.5" stroke-miterlimit="10"/>
<path d="M273.295 15.579H289.682V5.58599V0.0788574" stroke="#1D1D1B" stroke-width="0.5" stroke-miterlimit="10"/>
<path d="M265.292 60.8838L265.553 61.1432L265.292 61.5044V61.731L265.907 61.9396V62.3747L266.135 62.6013L266.328 62.9674L266.678 63.8541L266.1 64.2383L266.519 64.6554L265.907 64.882L265.462 65.3253V65.8228L265.663 66.5354L266.066 66.9361L265.985 67.6996" stroke="#1D1D1B" stroke-width="0.5" stroke-miterlimit="10"/>
<path d="M305.94 0.0788574V5.53509V24.3799H314.041L322.252 19.1929V5.53509V0.0788574" stroke="#1D1D1B" stroke-width="0.5" stroke-miterlimit="10"/>
<path d="M308.117 24.3799V30.7786L303.878 32.2038L303.86 32.3319L305.383 32.8113V32.9936L304.183 33.4386L304.502 33.7555L303.86 34.1791L303.448 34.1183L303.395 34.2825L303.903 34.4664L303.689 34.6799L303.781 34.7702L304.21 34.7012L304.289 34.8145L303.929 35.3104L303.974 35.7291L304.525 35.9458L304.692 36.1117L304.367 36.2332L304.546 36.4122L305.031 36.4516L305.172 36.6962L305.505 36.7652L305.383 38.2462L306.091 38.4465L306.101 38.8373L305.688 39.0902L305.518 38.9211L304.682 39.3693H303.948L303.72 39.5959L303.273 40.0048L303.505 40.2363H303.029L302.478 40.6501L302.591 41.0852L302.372 41.4776L301.374 41.2149L300.945 41.6599L299.774 41.9209L299.335 41.7994L299.073 42.1475L299.817 43.2017L299.703 46.1457L299.361 46.1014L298.845 46.4412L298.442 46.5365L298.381 46.676L298.889 46.8419L299.17 47.277L299.231 47.6087L299.02 47.8172V48.0963L299.308 48.1752L299.449 48.4444L299.3 49.0191L299.93 49.4017L299.734 49.5987H299.353L299.388 49.8647L298.818 50.1603L299.02 50.5002L298.767 50.753L298.54 50.8138L298.731 51.0913H299.064L299.143 51.267L299.52 50.996L299.848 51.3228L300.15 51.2571L300.298 51.51L300.447 51.5806L300.579 51.3803H300.754L300.976 51.6019L301.234 51.8581L300.62 52.2981L300.092 52.129L299.709 51.9763L299.628 52.1947L299.379 52.8301L299.652 53.0206L299.556 53.2981L299.211 53.1733L298.983 53.5969L299.167 53.8826L299.46 53.9269L299.505 54.2701L299.732 54.431L299.181 54.8826L299.386 55.3062L298.813 55.6576L298.66 55.9794L297.941 56.4457L297.53 56.3587V56.5492L297.875 56.7675L297.192 57.2207L297.431 57.4588L297.233 57.6558L297.721 58.2207L298.375 58.2732L298.366 58.8791L297.881 58.9595L297.626 59.1418L297.749 59.5145H298.058L298.249 60.0547L297.626 60.4931V60.8215L297.281 60.9102L296.817 60.5736L296.583 60.6902L296.538 60.3175L296.179 60.3257L295.926 60.0728L295.996 59.7477L295.57 59.595L295.027 60.0629L295.166 60.7706L294.521 61.099L294.117 61.5013L293.544 61.5735L293.523 62.0349H293.185L293.434 62.6047L293.142 62.7278L292.825 62.5965V62.2829L292.422 61.9545V61.5522H292.186L291.805 62.1072L291.218 62.2385L290.043 62.122L289.486 63.2763L289.75 63.4667L289.699 63.6999H290.022L290.058 64.2992L289.639 64.3944L289.573 64.7672L289.09 64.8985L288.826 65.3221L289.016 65.7967L288.62 66.4534L288.793 66.6259L288.613 67.1989L288.143 67.0823L287.714 67.5092L287.989 67.7834L288.601 68.3926L289.067 68.2727L289.786 68.8786L290.139 68.7407L290.322 69.0839L290.594 69.2448L291.173 69.12L291.446 69.4566L291.497 69.6241H291.086L290.975 70.2809L291.144 70.624L290.74 71.0953L290.502 71.3334V71.6043L290.187 71.67L290.104 71.9376L290.02 72.2528L290.222 72.5862V72.862L290.53 73.0279L290.355 73.6781H289.911L289.543 74.1362L288.74 73.9359L287.844 73.6781L287.343 73.9441L287.427 74.4186L287.727 74.5943L287.481 74.8389V75.2511L287.016 75.6599L286.381 75.568L285.785 75.3512L285.493 75.6435L285.238 75.898V76.3676L284.899 76.5679L285.12 76.7879L285.426 76.9587L285.602 77.4004H285.902L285.97 77.8996L286.011 78.1754L285.619 78.3494L285.333 78.466L285.417 78.8995L285.18 79.1376L285.226 79.4578L284.823 79.507L284.924 80.507V80.6745L283.728 80.548L283.401 80.3658H282.647L282.154 79.8403L282.623 79.2246V78.1918L281.87 76.9423L281.519 76.6681L281.192 76.6927L280.869 76.3725L280.498 76.4513L279.904 75.9177L279.326 75.7272L279.218 75.3348L279.063 75.1805L279.117 74.8439L278.431 74.9686" stroke="#1D1D1B" stroke-width="0.5" stroke-miterlimit="10"/>
<path d="M273.357 113.901V204.864V210.921" stroke="#1D1D1B" stroke-width="0.5" stroke-miterlimit="10"/>
<path d="M323.931 167.904L319.963 168.242V169.319L320.564 168.887H322.233L323.931 168.202V167.904ZM323.931 167.904V149.069H323.241L323.065 148.699L322.199 148.065L322.268 144.88L319.671 143.112L319.77 142.681L319.465 142.525L318.973 142.808L318.827 143.131L318.503 143.023L318.195 142.553L319.902 141.89L318.596 134.674L322.261 130.217V107.447H316.915V102.825H318.632V87.3687L318.767 87.0387L320.31 85.9452H320.643L321.425 84.7991L321.653 84.7761L322.121 85.2523L322.948 85.3245L323.179 85.0963L322.839 84.6415L322.903 84.5314L323.853 84.4247L324.335 83.9436L324.68 83.8681L324.861 83.1538L325.078 83.2983L325.259 83.6366L325.554 83.5233L326.279 83.1916L326.353 82.4987V81.594L326.064 80.8649V80.6515H326.538L326.891 80.0702H327.132L327.16 80.3198H327.4L328.031 80.5415L328.435 80.4019V80.0473L328.765 79.7189V79.443L329.182 78.9258L329.228 78.5465L329.367 78.4086L329.72 77.3643L330.174 76.9128L329.915 76.5252L330.174 76.118L329.756 75.9062L328.811 76.2937H328.43L327.928 76.5154L327.754 76.8668L326.028 76.8208L325.629 76.3578L325.879 76.1098V75.8882L325.516 75.6846L325.739 75.3792L325.685 75.2133L325.257 75.325L324.487 74.4744L324.144 74.5861L323.514 74.3267L322.641 74.2725L322.215 73.7553L322.301 73.284L321.717 72.2906L321.801 72.064V71.8933L321.402 71.7225L321.075 70.9705L321.189 70.5879L320.547 69.9492L320.76 69.7357L319.863 69.1118L319.221 69.1693L318.023 68.5585L315.714 68.941L314.971 68.9985L314.159 69.6799V69.9065L314.43 69.849L314.971 69.964L314.772 70.2891L314.971 70.6864L314.117 71.4105L313.546 72.6026L313.46 73.4827L312.947 73.752H312.52L311.921 74.348L310.023 73.5533L309.212 73.8094L308.555 73.3267H307.828L307.164 73.6042L306.417 74.348L304.178 74.8307L302.51 74.66H301.654L301.083 74.2774V73.9227L300.755 73.7668L300.77 73.4121L301.626 73.1707L301.697 72.9441L301.126 72.6174L301.54 71.9212L301.712 71.5813H302.253L302.581 71.78L303.223 71.3547L303.509 71.4253L304.007 71.5534L304.335 71.0986L304.934 70.9426L305.419 70.3186L305.853 70.5239L306.074 70.3039L306.353 70.4664L306.645 70.1758H307.115L307.329 69.8359H307.913V69.2678L307.501 69.0264L307.301 68.5732L307.785 68.3171L308.469 68.1184L309.068 67.5224L309.468 67.2958L310.309 67.2104L310.68 66.841V66.4157L310.124 65.8903L309.753 65.7343L309.624 65.1383L309.468 64.2861L309.261 63.6835L309.532 63.4142L309.811 63.6901L310.137 63.5915L310.609 63.805L310.979 63.6342H311.493L311.663 62.8822H311.279L311.178 62.498L310.951 62.0169H311.165L311.378 61.8034V61.3782L311.693 61.0646L312.249 61.1795L312.605 61.5342L313.204 61.3486L313.269 61.0301L312.833 60.5966L312.912 60.2633L312.704 60.058L312.912 59.6673L312.775 59.5326L312.049 59.2912L311.792 59.5474L311.008 59.2765L311.137 58.9514L311.064 58.6098L309.411 57.687L308.727 58.2273H308.313L308.171 58.5671L307.871 59.022L307.143 59.2059L306.902 60.0367H306.524L306.092 60.4652L305.917 60.2912L306.188 59.8594L305.643 59.3306L305.147 59.8232H304.741L304.507 60.058L303.908 59.8314L303.764 60.214L302.987 60.2912L302.468 59.774L302.496 59.4751L302.695 59.1353V58.9218L303.052 58.5671L302.966 58.1846L303.565 57.5311L303.764 56.779L302.966 56.5098L303.137 56.027L302.93 55.5656L303.309 55.1896V54.835L302.581 54.5805V54.3243L302.852 53.8284L302.481 53.147L301.897 52.7776H301.27L301.436 52.3162H301.719L301.897 52.1389L301.583 51.3721L300.976 51.6019" stroke="#1D1D1B" stroke-width="0.5" stroke-miterlimit="10"/>
<path d="M322.233 168.887V204.752V210.921" stroke="#1D1D1B" stroke-width="0.5" stroke-miterlimit="10"/>
<path d="M293.617 109.225L293.775 109.637H294.194L294.427 109.522V108.841L294.021 108.355L294.305 108.072L294.682 108.24L295.164 107.759L295.681 108.181L295.982 107.759L296.177 107.952L296.372 107.759L296.632 108.146L296.923 107.708L297.178 107.869L297.492 107.777L297.794 107.35L298.107 107.036L298.672 107.598H299.582L299.823 107.837L299.531 108.13L299.665 108.713H300.082L300.384 109.153H301.209V114.207L305.731 116.354L307.994 120.448L307.392 120.84L307.621 121.833L308.182 121.275L308.468 121.388V122.232H306.188V123.316L307.094 122.769L308.618 122.837L308.56 123.441L307.3 123.819L305.798 126.065L294.681 126.04L294.465 126.488L294.273 126.681L294.026 126.434L293.617 126.731L293.435 126.551L293.617 126.162L293.245 125.938L293.031 125.723L292.571 125.526L292.393 125.835L290.385 126.321V126.638L291.061 127.656L292.973 129.391L296.06 131.464L296.261 131.666L296.566 131.519H297.083L297.73 131.408V127.385H302.875V130.547L302.712 130.835L303.814 131.932H304.124L304.611 131.608L305.122 131.762L305.551 131.638L305.676 131.24L306.43 131.143L307.28 131.519L307.613 131.36L307.834 131.308L307.844 131.537L307.498 131.881L307.394 132.142L307.488 132.237L308.504 132.101L308.725 132.194L308.672 132.946L308.725 133.05L309.05 132.82L309.154 132.925L309.029 133.416L309.558 133.943V134.219L309.25 134.501L309.166 134.971L308.846 135.289L308.547 135.211L308.432 135.45L308.516 135.711L308.032 136.013L307.948 136.66L307.31 138.915L309.669 139.854L310.309 140.491L309.789 141.008L308.61 141.066L308.095 141.514V141.785L308.389 142.255L308.453 142.568H306.114L305.921 142.76V204.78V210.921" stroke="#1D1D1B" stroke-width="0.5" stroke-miterlimit="10"/>
<path d="M338.513 0.0788574V5.59092V26.1745H348.913V35.0805H338.611V35.56H338.084L336.708 35.0575L336.296 35.9015H335.402L334.234 37.7503L331.243 37.7076L330.672 37.8833L330.208 38.3431L329.496 38.3267L328.461 37.8587L327.991 37.307L327.848 37.2479L327.024 38.5943V38.7782L327.404 39.0458V39.2133L327.16 39.3562L327.293 40.1574L328.496 40.2592L328.537 40.6517L328.293 40.8947L328.747 41.2543V41.5301L327.983 41.9472L327.94 42.4742L327.554 42.6581V42.8929L328.831 43.8962V44.0456L327.47 45.2163L326.915 45.5513L326.668 45.305L326.508 45.4643L326.171 45.7976L326.294 46.0866L326.122 46.259L325.353 46.2376L325.193 46.5053L325.236 46.6892L324.916 46.8731L324.84 47.2573L325.117 47.5331L325.008 47.7843L325.21 48.0602L325.487 47.9929L325.84 48.3443H326.109L326.302 48.6792L326.614 48.6365L326.84 49.18L326.622 49.3984L326.861 49.6365H327.092L327.562 50.5428L327.486 50.7858L327.605 50.9024L328.1 50.8696L328.255 50.7152V49.8746L328.445 49.7153L328.79 49.6496L329.134 49.7744L329.537 49.6578L329.857 49.5232L330.007 49.0306L330.23 48.8089L330.721 48.7038L331.033 48.5626L331.243 48.6037L331.499 48.3492L332.033 47.9929H332.403L332.667 48.2572H333.15L333.442 48.5479L334.427 48.4953L335.225 48.3689L335.88 48.7958L336.225 48.6546L335.565 47.9978V47.8008L336.024 47.6087L336.293 47.7006L336.473 47.52L336.157 47.1144L335.535 46.8057L335.09 46.5299V46.2294H334.427V46.0192L334.691 45.7565L334.46 45.4265L334.821 45.4101L335.098 45.4593L335.804 44.975L336.426 44.9158H336.779L337.048 45.0505L337.208 44.8912L336.902 44.5858L337.065 44.3477L336.728 43.929L337.839 43.2854L337.502 42.3412L338.746 42.2739L338.711 41.9061L338.334 41.7879L337.905 41.6139L337.88 41.4792L338.35 41.2871L338.124 41.0605L337.578 41.1787L337.108 40.9029L336.679 40.8274L336.72 40.5433L337.014 40.2248L337.561 39.6813V39.4727L338.654 38.7027L338.409 38.435L338.561 38.0837L338.518 37.8587L338.812 37.6502H339.107L339.518 36.9885L339.963 36.7389L340.3 36.6125L340.45 36.3875L340.811 36.4532L341.376 35.8177L343.433 36.4614L345.046 36.4121L346.475 36.8555L347.391 38.0672L347.82 38.3102L348.374 38.3595L348.785 39.0967L349.516 39.5138L352.818 38.9703L354.91 39.013V5.47434V0.0788574" stroke="#1D1D1B" stroke-width="0.5" stroke-miterlimit="10"/>
<path d="M336.225 48.6545L336.116 49.2276L335.55 49.4722L335.172 50.0913L336.08 50.8252L336.278 51.0222L335.984 51.3129L336.702 51.5575V51.9138L336.514 52.2718L336.702 52.5723L336.532 52.7414H336.136L335.55 53.0599L335.438 53.3982L335.674 53.633V54.431L336.06 54.3374L336.39 54.6658L336.306 55.2388L335.834 55.4079L335.418 56.2716H335.003L334.607 56.6673L334.023 56.8364L333.947 57.2108L334.201 57.4653L333.947 57.7937L334.041 58.0942L333.947 58.283V58.8462V59.1467H333.683H333.229L333.153 59.3716L332.304 59.7657L331.248 59.3338L330.908 59.4849L330.718 59.879V60.1236H330.454L329.888 59.9167L329.36 59.7854L328.945 59.9348L328.691 59.6819L328.153 59.9348L328.057 60.3666L327.737 60.4422V60.9118L327.501 61.1466H327.245L327.321 61.608L326.661 61.5324L326.519 61.6736L327.303 62.3403L326.925 62.7163L326.585 62.7902L326.227 62.9412V63.1662L326.717 63.3911L327.001 63.7491V64.199H326.208V64.575L326.058 64.951L326.152 65.4025L326.491 65.4764H327.283L327.737 65.2892L328.001 65.6078L328.189 65.7966L327.859 66.125L327.039 66.5847L326.51 66.8672H326.284V67.5239H325.624L325.396 68.0691L326.114 68.294H326.68L326.585 68.9902L327.095 69.1774L327.491 68.9902H328.247L328.671 68.5666L329.36 68.8211L329.926 68.5009L330.276 68.849V69.271L329.977 69.5665L330.152 69.9097L329.982 70.2677L328.549 69.7783V70.0985L328.795 70.4548L328.039 70.6798L327.605 71.1116L326.774 71.2446L326.416 71.4318L326.585 71.77L325.868 72.4843V72.8587L326.359 73.2347L326.585 74.4563V74.9062H326.114V75.1705L325.685 75.2132" stroke="#1D1D1B" stroke-width="0.5" stroke-miterlimit="10"/>
<path d="M336.133 49.1406L337.217 49.2194L337.578 49.4657L337.905 49.3032L338.193 49.5922L339.048 49.561L339.764 50.2095H340.529L340.991 50.5511L340.955 50.7809L341.169 50.9944L342.271 51.1701L342.753 51.6512L342.608 52.1257L342.004 52.1963L342.052 52.6101L341.821 52.84L341.536 53.3227L341.762 54.3555L341.424 54.6149V54.8678L341.103 55.0812V55.3456L341.821 55.4113L342.135 55.2044L342.781 55.6116L343.207 56.2831L343.248 56.9793L342.961 57.265L342.733 57.5869L342.407 57.4686L342.146 57.6345L341.814 57.8529L341.963 58.1763L342.295 58.4423L342.827 58.2305L343.332 58.8249L343.539 58.6656L343.794 59.109L343.657 59.5687L337.819 67.6028L337.604 69.0921L336.811 79.1868L335.898 80.5365L332.497 84.1324L325.851 84.1932L325.554 83.5233" stroke="#1D1D1B" stroke-width="0.5" stroke-miterlimit="10"/>
<path d="M336.811 79.1868L337.812 79.658L342.266 80.2393L341.725 82.249L342.266 82.6415L342.747 83.7613L338.624 87.055V114.231H331.535V126.83H338.46V133.046L336.969 135.627L336.987 139.048L336.83 140.182L336.987 140.397V143.154H337.852V143.545L337.665 143.731V144.816L337.578 145.382L337.165 146.399V147.358L337.007 148.06L337.203 148.433L337.106 148.901L337.352 149.146L336.87 150.211V150.817L336.448 151.238V151.796L335.829 151.952L335.593 151.267L335.926 150.76L335.446 150.28H334.828L334.232 150.871H333.825L333.02 150.446L332.843 149.645L332.371 149.39L331.566 149.586L330.938 149.116V148.844L331.39 148.394L332.018 148.589L332.784 148.51V147.827V147.299L332.51 147.024L332.922 146.322L332.548 145.266V144.66L332.274 144.386L331.606 145.051L330.702 145.696L330.388 145.382L329.976 145.597L329.228 145.402L328.05 144.895L327.795 144.386L326.478 144.796L326.086 144.698L325.713 144.855L325.221 144.62L324.593 145.617L325.025 145.872L325.497 145.676L325.693 145.872L324.789 146.771V147.182L324.436 147.533L324.279 147.964L323.817 148.423V149.069" stroke="#1D1D1B" stroke-width="0.5" stroke-miterlimit="10"/>
<path d="M323.931 168.202L324.86 168.289H325.886L326.211 167.968L327.308 168.747H327.811L328.079 168.565L328.679 168.88L329.031 169.554V169.994L329.303 170.265L329.423 170.816L330.283 171.98L332.069 173.683L332.822 173.452L333.021 173.65L333.335 173.338L333.782 173.376L334.592 172.877L335.569 173.875L335.768 174.381L335.577 174.856L335.686 175.246L335.994 175.388L336.278 175.877L336.946 176.085L337.438 176.493L337.588 176.55L337.931 176.327L338.157 176.435L338.466 176.55H338.591V204.879V210.921" stroke="#1D1D1B" stroke-width="0.5" stroke-miterlimit="10"/>
<path d="M333.825 150.871V161.523H336.971V168.104H337.872V168.887H336.999V176.085" stroke="#1D1D1B" stroke-width="0.5" stroke-miterlimit="10"/>
<path d="M371.187 0.0788574V5.53345V41.0244L369.232 40.8159L368.346 40.522L367.633 41.2329L366.648 40.9505L365.467 41.8208H363.486L362.045 41.4415L360.186 41.673V41.9669L360.691 42.4693V42.6664H360.274L360.346 42.9225L360.778 43.1195L360.679 43.3396H360.371L360.415 43.5891L360.676 43.7057L360.508 43.9586L360.204 44.2591L359.472 44.1096L359.068 44.0161L358.781 44.2426L357.499 44.2591L357.36 44.3986L356.555 44.5366L355.999 44.5448L355.709 44.8337L355.59 44.952L355.889 45.2492L355.653 45.4084L355.215 45.2574L355.097 45.594L355.357 45.8534L355.291 46.1555L355.856 46.4741L356.336 46.5578L356.446 46.9946L356.1 47.4231L355.859 47.6612L356.403 48.052L356.75 48.0011L356.807 48.2113L356.454 48.5626L356.403 48.8746L356.568 49.0372L357.355 49.2687H357.65L357.819 49.4362L358.233 49.9731L358.738 49.8893L359.16 49.9649L359.459 50.2621L359.539 50.4591L359.648 50.5691L360.003 50.6102L360.237 50.7136L360.434 50.6217L360.637 50.8975L360.81 50.8696L361.013 50.6676L361.171 50.8253L361.151 51.0584L361.351 51.2571L361.437 51.3983L361.044 51.6659L360.719 51.6101L360.599 51.8039L360.82 52.129L360.584 52.3638L360.915 52.7234V52.8859L360.485 53.0715L360.66 53.3358L360.267 53.5378L360.135 53.8892L360.76 54.2455L360.698 54.7298L360.381 54.9219L360.028 55.1124L360.292 55.4687L360.308 55.7856L360.353 56.8118L352.239 62.6802V71.0329L354.918 73.6994H363.613L391.393 49.313L391.365 44.8305L379.325 30.7359V5.51374V0.0788574" stroke="#1D1D1B" stroke-width="0.5" stroke-miterlimit="10"/>
<path d="M387.477 40.2543V5.53673V0.0788574" stroke="#1D1D1B" stroke-width="0.5" stroke-miterlimit="10"/>
<path d="M391.365 44.8303L392.37 44.0405" stroke="#1D1D1B" stroke-width="0.5" stroke-miterlimit="10"/>
<path d="M392.385 0.0788574V5.53673V204.879V210.921" stroke="#1D1D1B" stroke-width="0.5" stroke-miterlimit="10"/>
<path d="M385.835 54.1929V58.618L390.778 68.0001V70.9343L392.385 70.3727" stroke="#1D1D1B" stroke-width="0.5" stroke-miterlimit="10"/>
<path d="M368.575 69.3433L379.429 76.517H392.385" stroke="#1D1D1B" stroke-width="0.5" stroke-miterlimit="10"/>
<path d="M387.526 76.5168V93.5095H379.375L379.429 76.5168" stroke="#1D1D1B" stroke-width="0.5" stroke-miterlimit="10"/>
<path d="M379.375 93.5095V135.624H392.385" stroke="#1D1D1B" stroke-width="0.5" stroke-miterlimit="10"/>
<path d="M381.178 135.624V141.031L385.277 146.387V149.167H382.253V155.032L379.111 161.521H387.536V185.233L379.266 193.449V204.879V210.921" stroke="#1D1D1B" stroke-width="0.5" stroke-miterlimit="10"/>
<path d="M387.536 185.233V204.879V210.921" stroke="#1D1D1B" stroke-width="0.5" stroke-miterlimit="10"/>
<path d="M392.385 139.207H391.04L389.194 143.094L388.808 144.675L389.151 147.878L388.808 148.606L387.605 149.203L387.536 161.521" stroke="#1D1D1B" stroke-width="0.5" stroke-miterlimit="10"/>
<path d="M379.375 99.3713H381.668V102.255H383.007V99.3713H392.385" stroke="#1D1D1B" stroke-width="0.5" stroke-miterlimit="10"/>
<path d="M379.375 105.402H387.752V135.624" stroke="#1D1D1B" stroke-width="0.5" stroke-miterlimit="10"/>
<path d="M387.752 116.454H392.385" stroke="#1D1D1B" stroke-width="0.5" stroke-miterlimit="10"/>
<path d="M371.243 71.1067V110.842H357.65V122.899H362.336V134.455H371.243V166.422L363.043 178.553V196.18H371.243V204.884V210.921" stroke="#1D1D1B" stroke-width="0.5" stroke-miterlimit="10"/>
<path d="M342.747 83.7612H354.844V122.809H351.091V141.005L354.937 145.588V197.84H356.928V199.483H354.923V204.879V210.921" stroke="#1D1D1B" stroke-width="0.5" stroke-miterlimit="10"/>
<path d="M0.914062 116.451H12.2628V127.483H8.92696V131.143L11.3175 133.079V139.039H0.940459" stroke="#1D1D1B" stroke-width="0.5" stroke-miterlimit="10"/>
<path d="M11.3174 135.509H0.94043" stroke="#1D1D1B" stroke-width="0.5" stroke-miterlimit="10"/>
<path d="M11.3174 139.04H13.8597L15.5259 145.43H20.5264V143.511L14.4569 127.488L12.2627 127.483" stroke="#1D1D1B" stroke-width="0.5" stroke-miterlimit="10"/>
</g>
<defs>
<clipPath id="clip0_3855_9043">
<rect width="393" height="211" fill="white"/>
</clipPath>
</defs>
</svg>
