<?xml version="1.0" encoding="UTF-8"?>
<svg id="Layer_2" data-name="Layer 2" xmlns="http://www.w3.org/2000/svg" viewBox="0 0 318.62 82.84">
  <defs>
    <style>
      .cls-1 {
        fill: none;
        stroke: #191a1a;
        stroke-miterlimit: 10;
        stroke-width: 2px;
      }

      .cls-2 {
        fill: #191a1a;
      }
    </style>
  </defs>
  <g id="tutto-insieme">
    <g>
      <line class="cls-1" x1="201.2" x2="201.2" y2="82.84"/>
      <g>
        <path class="cls-2" d="M221.81,24.57h-3.3v-1.9h3.3c.54,0,.98-.09,1.31-.27s.58-.42.74-.74.24-.67.24-1.08-.08-.76-.24-1.1-.41-.62-.74-.83-.77-.32-1.31-.32h-2.5v10.89h-2.42v-12.8h4.92c1,0,1.85.18,2.55.53s1.25.84,1.62,1.47.56,1.33.56,2.13-.19,1.54-.56,2.14-.91,1.06-1.62,1.38-1.56.48-2.55.48Z"/>
        <path class="cls-2" d="M230.58,21.67v7.57h-2.32v-9.51h2.2l.12,1.94ZM233.48,19.67l-.04,2.16c-.13-.02-.27-.04-.44-.05s-.31-.02-.45-.02c-.36,0-.67.05-.94.15s-.49.24-.67.42-.31.4-.41.66-.15.55-.16.88l-.5-.06c0-.6.06-1.16.18-1.68s.3-.97.54-1.35.53-.69.88-.9.76-.32,1.23-.32c.13,0,.27.01.42.03s.27.05.36.08Z"/>
        <path class="cls-2" d="M234.08,24.58v-.18c0-.7.1-1.34.3-1.93s.49-1.1.87-1.53.85-.77,1.4-1.01,1.18-.37,1.88-.37,1.35.12,1.9.37,1.02.58,1.4,1.01.67.95.87,1.53.3,1.23.3,1.93v.18c0,.69-.1,1.33-.3,1.92s-.49,1.1-.87,1.54-.85.77-1.4,1.01-1.18.36-1.89.36-1.33-.12-1.89-.36-1.03-.58-1.41-1.01-.67-.95-.87-1.54-.3-1.23-.3-1.92ZM236.4,24.4v.18c0,.42.04.81.12,1.17s.21.68.38.96.39.49.66.65.6.23.98.23.7-.08.97-.23.49-.37.66-.65.3-.59.38-.96.12-.75.12-1.17v-.18c0-.41-.04-.79-.12-1.16s-.21-.68-.38-.96-.4-.5-.67-.66-.6-.24-.98-.24-.7.08-.97.24-.49.38-.66.66-.3.6-.38.96-.12.75-.12,1.16Z"/>
        <path class="cls-2" d="M244.3,24.6v-.18c0-.73.09-1.39.26-1.98s.43-1.11.76-1.53.73-.76,1.2-.99,1-.35,1.6-.35c.63,0,1.16.11,1.59.34s.79.55,1.07.98.51.92.67,1.5.29,1.21.37,1.9v.5c-.08.67-.21,1.29-.39,1.85s-.41,1.05-.71,1.47-.66.74-1.09.97-.94.34-1.53.34-1.11-.12-1.58-.36-.87-.58-1.2-1.01-.58-.94-.76-1.53-.26-1.22-.26-1.92ZM250.73,19.73h2.11v9.22c0,.86-.19,1.59-.56,2.19s-.89,1.06-1.56,1.37-1.44.47-2.33.47c-.38,0-.79-.05-1.23-.16s-.87-.27-1.27-.5-.75-.52-1.02-.88l1.05-1.37c.32.37.67.65,1.07.84s.83.29,1.29.29.87-.09,1.2-.26.59-.42.76-.76.27-.74.27-1.22v-7.08l.22-2.17ZM246.62,24.42v.18c0,.41.04.79.12,1.15s.21.67.38.95.38.48.64.64.57.23.92.23c.48,0,.87-.1,1.18-.3s.54-.48.7-.83.27-.75.31-1.2v-1.38c-.03-.35-.09-.68-.19-.98s-.23-.56-.4-.77-.39-.39-.65-.51-.58-.18-.94-.18-.66.08-.92.23-.48.37-.65.65-.3.59-.38.96-.13.76-.13,1.18Z"/>
        <path class="cls-2" d="M257.24,21.67v7.57h-2.32v-9.51h2.2l.12,1.94ZM260.13,19.67l-.04,2.16c-.13-.02-.27-.04-.44-.05s-.31-.02-.45-.02c-.36,0-.67.05-.94.15s-.49.24-.67.42-.31.4-.41.66-.15.55-.16.88l-.5-.06c0-.6.06-1.16.18-1.68s.3-.97.54-1.35.53-.69.88-.9.76-.32,1.23-.32c.13,0,.27.01.42.03s.27.05.36.08Z"/>
        <path class="cls-2" d="M266.65,23.45l.02,1.38h-1.47c-.36,0-.68.04-.96.11s-.5.18-.68.32-.31.3-.4.49-.13.41-.13.65.05.45.16.63.27.34.47.44.45.16.73.16c.41,0,.77-.08,1.07-.25s.54-.37.71-.61.26-.47.27-.69l.67,1c-.08.24-.21.5-.37.76s-.38.52-.63.76-.57.43-.93.58-.79.23-1.27.23c-.62,0-1.17-.12-1.65-.37s-.87-.58-1.15-1.01-.42-.91-.42-1.46c0-.5.09-.95.28-1.34s.47-.71.83-.98.83-.47,1.38-.61,1.18-.21,1.89-.21h1.56ZM266.33,27.22v-4.39c0-.32-.06-.6-.17-.83s-.28-.42-.51-.54-.52-.19-.87-.19c-.31,0-.58.05-.81.16s-.41.25-.53.44-.18.41-.18.65h-2.33c0-.39.09-.77.28-1.12s.46-.67.8-.95.77-.5,1.26-.66,1.04-.24,1.65-.24c.72,0,1.36.12,1.93.37s1.01.61,1.34,1.09.49,1.1.49,1.84v4.15c0,.47.03.88.09,1.22s.15.63.28.87v.15h-2.36c-.11-.24-.2-.55-.25-.92s-.09-.74-.09-1.1Z"/>
        <path class="cls-2" d="M273.07,21.68v7.56h-2.32v-9.51h2.19l.13,1.95ZM272.73,24.14h-.71c0-.66.08-1.27.24-1.83s.4-1.04.72-1.45.71-.73,1.17-.96,1.01-.34,1.62-.34c.43,0,.82.06,1.18.19s.67.32.93.59.46.61.6,1.04.21.93.21,1.52v6.35h-2.32v-6.11c0-.45-.06-.79-.19-1.05s-.31-.43-.54-.53-.52-.15-.84-.15c-.36,0-.68.07-.94.22s-.47.34-.64.59-.29.54-.37.87-.12.68-.12,1.06ZM278.51,23.71l-.96.18c0-.6.09-1.16.25-1.68s.39-.98.7-1.38.69-.71,1.15-.93.99-.34,1.6-.34c.47,0,.89.07,1.27.2s.7.34.97.62.48.65.62,1.1.22,1,.22,1.65v6.11h-2.34v-6.12c0-.46-.06-.82-.19-1.06s-.31-.42-.54-.51-.51-.15-.83-.15-.6.06-.84.18-.44.29-.6.5-.28.46-.36.73-.12.58-.12.9Z"/>
        <path class="cls-2" d="M295.83,19.73v1.67h-5.7v-1.67h5.7ZM293.91,29.24h-2.34v-10.39c0-.71.14-1.32.41-1.81s.67-.86,1.18-1.11,1.11-.38,1.8-.38c.23,0,.45.01.65.04s.41.07.62.12l-.04,1.77c-.11-.03-.23-.05-.36-.06s-.28-.02-.44-.02c-.32,0-.59.06-.81.17s-.39.27-.51.49-.17.48-.17.79v10.39Z"/>
        <path class="cls-2" d="M296.85,24.58v-.18c0-.7.1-1.34.3-1.93s.49-1.1.87-1.53.85-.77,1.4-1.01,1.18-.37,1.88-.37,1.35.12,1.9.37,1.02.58,1.4,1.01.67.95.87,1.53.3,1.23.3,1.93v.18c0,.69-.1,1.33-.3,1.92s-.49,1.1-.87,1.54-.85.77-1.4,1.01-1.18.36-1.89.36-1.33-.12-1.89-.36-1.03-.58-1.41-1.01-.67-.95-.87-1.54-.3-1.23-.3-1.92ZM299.17,24.4v.18c0,.42.04.81.12,1.17s.21.68.38.96.39.49.66.65.6.23.98.23.7-.08.97-.23.49-.37.66-.65.3-.59.38-.96.12-.75.12-1.17v-.18c0-.41-.04-.79-.12-1.16s-.21-.68-.38-.96-.4-.5-.67-.66-.6-.24-.98-.24-.7.08-.97.24-.49.38-.66.66-.3.6-.38.96-.12.75-.12,1.16Z"/>
        <path class="cls-2" d="M309.77,21.67v7.57h-2.32v-9.51h2.2l.12,1.94ZM312.67,19.67l-.04,2.16c-.13-.02-.27-.04-.44-.05s-.31-.02-.45-.02c-.36,0-.67.05-.94.15s-.49.24-.67.42-.31.4-.41.66-.15.55-.16.88l-.5-.06c0-.6.06-1.16.18-1.68s.3-.97.54-1.35.53-.69.88-.9.76-.32,1.23-.32c.13,0,.27.01.42.03s.27.05.36.08Z"/>
        <path class="cls-2" d="M226.88,41.62v4.98c-.19.24-.48.5-.88.78s-.92.52-1.57.73-1.44.3-2.37.3c-.81,0-1.56-.14-2.23-.41s-1.25-.67-1.74-1.2-.86-1.17-1.12-1.93-.4-1.63-.4-2.61v-.84c0-.98.12-1.85.37-2.61s.61-1.41,1.07-1.93,1.03-.93,1.68-1.2,1.38-.41,2.19-.41c1.08,0,1.98.18,2.68.54s1.24.85,1.61,1.47.61,1.34.7,2.15h-2.36c-.06-.45-.19-.84-.39-1.17s-.47-.6-.82-.79-.81-.29-1.38-.29c-.47,0-.89.09-1.26.28s-.67.46-.91.82-.43.8-.56,1.33-.19,1.13-.19,1.81v.86c0,.69.07,1.29.21,1.82s.34.98.61,1.34.6.63.99.82.85.28,1.35.28c.46,0,.84-.04,1.14-.12s.54-.17.73-.29.32-.22.42-.33v-2.4h-2.54v-1.77h4.96Z"/>
        <path class="cls-2" d="M231.45,34.74v13.5h-2.33v-13.5h2.33Z"/>
        <path class="cls-2" d="M233.25,43.58v-.18c0-.7.1-1.34.3-1.93s.49-1.1.87-1.53.85-.77,1.4-1.01,1.18-.37,1.88-.37,1.35.12,1.9.37,1.02.58,1.4,1.01.67.95.87,1.53.3,1.23.3,1.93v.18c0,.69-.1,1.33-.3,1.92s-.49,1.1-.87,1.54-.85.77-1.4,1.01-1.18.36-1.89.36-1.33-.12-1.89-.36-1.03-.58-1.41-1.01-.67-.95-.87-1.54-.3-1.23-.3-1.92ZM235.57,43.4v.18c0,.42.04.81.12,1.17s.21.68.38.96.39.49.66.65.6.23.98.23.7-.08.97-.23.49-.37.66-.65.3-.59.38-.96.12-.75.12-1.17v-.18c0-.41-.04-.79-.12-1.16s-.21-.68-.38-.96-.4-.5-.67-.66-.6-.24-.98-.24-.7.08-.97.24-.49.38-.66.66-.3.6-.38.96-.12.75-.12,1.16Z"/>
        <path class="cls-2" d="M243.84,34.74h2.33v11.4l-.23,2.1h-2.1v-13.5ZM252.28,43.39v.18c0,.71-.08,1.36-.23,1.95s-.39,1.1-.7,1.53-.7.76-1.16,1-1,.36-1.61.36-1.09-.11-1.52-.34-.79-.55-1.09-.97-.53-.91-.7-1.49-.31-1.2-.4-1.88v-.5c.09-.69.22-1.31.4-1.88s.41-1.06.7-1.49.65-.75,1.08-.98.93-.34,1.51-.34c.62,0,1.16.12,1.63.36s.85.57,1.16,1,.54.94.69,1.53.23,1.24.23,1.95ZM249.96,43.57v-.18c0-.4-.03-.79-.1-1.15s-.17-.68-.32-.95-.35-.49-.6-.65-.57-.24-.95-.24-.67.06-.93.18-.47.29-.63.51-.3.47-.39.76-.15.61-.18.95v1.37c.04.45.14.86.29,1.22s.38.65.68.86.69.32,1.17.32c.38,0,.69-.07.94-.22s.45-.36.6-.63.25-.59.31-.95.09-.76.09-1.19Z"/>
        <path class="cls-2" d="M259.54,42.45l.02,1.38h-1.47c-.36,0-.68.04-.96.11s-.5.18-.68.32-.31.3-.4.49-.13.41-.13.65.05.45.16.63.27.34.47.44.45.16.73.16c.41,0,.77-.08,1.07-.25s.54-.37.71-.61.26-.47.27-.69l.67,1c-.08.24-.21.5-.37.76s-.38.52-.63.76-.57.43-.93.58-.79.23-1.27.23c-.62,0-1.17-.12-1.65-.37s-.87-.58-1.15-1.01-.42-.91-.42-1.46c0-.5.09-.95.28-1.34s.47-.71.83-.98.83-.47,1.38-.61,1.18-.21,1.89-.21h1.56ZM259.21,46.22v-4.39c0-.32-.06-.6-.17-.83s-.28-.42-.51-.54-.52-.19-.87-.19c-.31,0-.58.05-.81.16s-.41.25-.53.44-.18.41-.18.65h-2.33c0-.39.09-.77.28-1.12s.46-.67.8-.95.77-.5,1.26-.66,1.04-.24,1.65-.24c.72,0,1.36.12,1.93.37s1.01.61,1.34,1.09.49,1.1.49,1.84v4.15c0,.47.03.88.09,1.22s.15.63.28.87v.15h-2.36c-.11-.24-.2-.55-.25-.92s-.09-.74-.09-1.1Z"/>
        <path class="cls-2" d="M266.1,34.74v13.5h-2.33v-13.5h2.33Z"/>
        <path class="cls-2" d="M281.99,35.44v1.91h-10.31v-1.91h10.31ZM278.02,35.44v12.8h-2.41v-12.8h2.41Z"/>
        <path class="cls-2" d="M283.39,36.24c0-.35.12-.63.36-.86s.56-.34.96-.34.73.11.96.34.36.52.36.86-.12.62-.36.85-.56.34-.96.34-.73-.11-.96-.34-.36-.51-.36-.85ZM285.88,38.73v9.51h-2.33v-9.51h2.33Z"/>
        <path class="cls-2" d="M290.4,40.68v7.56h-2.32v-9.51h2.19l.13,1.95ZM290.06,43.14h-.71c0-.66.08-1.27.24-1.83s.4-1.04.72-1.45.71-.73,1.17-.96,1.01-.34,1.62-.34c.43,0,.82.06,1.18.19s.67.32.93.59.46.61.6,1.04.21.93.21,1.52v6.35h-2.32v-6.11c0-.45-.06-.79-.19-1.05s-.31-.43-.54-.53-.52-.15-.84-.15c-.36,0-.68.07-.94.22s-.47.34-.64.59-.29.54-.37.87-.12.68-.12,1.06ZM295.84,42.71l-.96.18c0-.6.09-1.16.25-1.68s.39-.98.7-1.38.69-.71,1.15-.93.99-.34,1.6-.34c.47,0,.89.07,1.27.2s.7.34.97.62.48.65.62,1.1.22,1,.22,1.65v6.11h-2.34v-6.12c0-.46-.06-.82-.19-1.06s-.31-.42-.54-.51-.51-.15-.83-.15-.6.06-.84.18-.44.29-.6.5-.28.46-.36.73-.12.58-.12.9Z"/>
        <path class="cls-2" d="M308,48.42c-.72,0-1.37-.12-1.94-.35s-1.06-.56-1.46-.98-.71-.91-.92-1.47-.32-1.16-.32-1.81v-.35c0-.73.11-1.4.32-2s.51-1.12.9-1.55.85-.77,1.39-1,1.13-.35,1.78-.35,1.27.11,1.78.34.95.54,1.29.95.61.9.78,1.47.26,1.2.26,1.89v.98h-7.45v-1.6h5.17v-.18c-.01-.37-.08-.71-.21-1.01s-.33-.55-.6-.74-.62-.28-1.05-.28c-.35,0-.65.08-.9.22s-.47.36-.63.63-.29.6-.37.97-.12.79-.12,1.25v.35c0,.4.05.77.16,1.11s.27.63.48.88.47.44.77.58.65.21,1.03.21c.49,0,.93-.09,1.32-.29s.74-.47,1.03-.85l1.17,1.21c-.2.29-.47.57-.8.84s-.74.49-1.22.66-1.02.25-1.64.25Z"/>
        <path class="cls-2" d="M224.38,63.03h2.42c-.06.86-.3,1.61-.71,2.27s-.98,1.18-1.71,1.55-1.62.56-2.66.56c-.8,0-1.52-.14-2.17-.43s-1.19-.69-1.64-1.22-.8-1.17-1.04-1.92-.36-1.59-.36-2.52v-.98c0-.93.12-1.77.37-2.52s.6-1.39,1.06-1.92,1.01-.94,1.66-1.23,1.37-.43,2.18-.43c1.04,0,1.92.19,2.65.58s1.28.91,1.68,1.58.64,1.44.72,2.3h-2.42c-.05-.54-.16-1-.35-1.37s-.46-.66-.83-.86-.85-.29-1.45-.29c-.47,0-.88.09-1.23.26s-.65.44-.88.79-.41.78-.53,1.3-.18,1.12-.18,1.8v.99c0,.65.05,1.23.16,1.75s.27.95.49,1.31.51.63.86.82.77.28,1.26.28c.59,0,1.07-.09,1.45-.28s.66-.46.85-.83.32-.81.37-1.35Z"/>
        <path class="cls-2" d="M228.07,62.58v-.18c0-.7.1-1.34.3-1.93s.49-1.1.87-1.53.85-.77,1.4-1.01,1.18-.37,1.88-.37,1.35.12,1.9.37,1.02.58,1.4,1.01.67.95.87,1.53.3,1.23.3,1.93v.18c0,.69-.1,1.33-.3,1.92s-.49,1.1-.87,1.54-.85.77-1.4,1.01-1.18.36-1.89.36-1.33-.12-1.89-.36-1.03-.58-1.41-1.01-.67-.95-.87-1.54-.3-1.23-.3-1.92ZM230.39,62.4v.18c0,.42.04.81.12,1.17s.21.68.38.96.39.49.66.65.6.23.98.23.7-.08.97-.23.49-.37.66-.65.3-.59.38-.96.12-.75.12-1.17v-.18c0-.41-.04-.79-.12-1.16s-.21-.68-.38-.96-.4-.5-.67-.66-.6-.24-.98-.24-.7.08-.97.24-.49.38-.66.66-.3.6-.38.96-.12.75-.12,1.16Z"/>
        <path class="cls-2" d="M238.26,62.58v-.18c0-.7.1-1.34.3-1.93s.49-1.1.87-1.53.85-.77,1.4-1.01,1.18-.37,1.88-.37,1.35.12,1.9.37,1.02.58,1.4,1.01.67.95.87,1.53.3,1.23.3,1.93v.18c0,.69-.1,1.33-.3,1.92s-.49,1.1-.87,1.54-.85.77-1.4,1.01-1.18.36-1.89.36-1.33-.12-1.89-.36-1.03-.58-1.41-1.01-.67-.95-.87-1.54-.3-1.23-.3-1.92ZM240.58,62.4v.18c0,.42.04.81.12,1.17s.21.68.38.96.39.49.66.65.6.23.98.23.7-.08.97-.23.49-.37.66-.65.3-.59.38-.96.12-.75.12-1.17v-.18c0-.41-.04-.79-.12-1.16s-.21-.68-.38-.96-.4-.5-.67-.66-.6-.24-.98-.24-.7.08-.97.24-.49.38-.66.66-.3.6-.38.96-.12.75-.12,1.16Z"/>
        <path class="cls-2" d="M251.18,59.67v7.57h-2.32v-9.51h2.2l.12,1.94ZM254.07,57.67l-.04,2.16c-.13-.02-.27-.04-.44-.05s-.31-.02-.45-.02c-.36,0-.67.05-.94.15s-.49.24-.67.42-.31.4-.41.66-.15.55-.16.88l-.5-.06c0-.6.06-1.16.18-1.68s.3-.97.54-1.35.53-.69.88-.9.76-.32,1.23-.32c.13,0,.27.01.42.03s.27.05.36.08Z"/>
        <path class="cls-2" d="M254.76,62.6v-.18c0-.73.08-1.39.25-1.98s.41-1.11.73-1.53.71-.76,1.17-.99.98-.35,1.57-.35,1.06.11,1.49.34.79.55,1.09.98.54.92.73,1.5.31,1.21.4,1.9v.5c-.08.67-.21,1.29-.4,1.85s-.42,1.05-.73,1.47-.67.74-1.09.97-.93.34-1.5.34-1.1-.12-1.56-.36-.85-.58-1.17-1.01-.56-.94-.73-1.53-.25-1.22-.25-1.92ZM257.09,62.42v.18c0,.41.04.79.11,1.15s.18.67.34.95.36.48.61.64.55.23.91.23c.46,0,.83-.1,1.13-.3s.53-.48.69-.83.27-.75.32-1.2v-1.38c-.02-.35-.08-.68-.18-.98s-.23-.56-.4-.77-.39-.39-.64-.51-.55-.18-.9-.18-.66.08-.91.23-.46.37-.62.65-.27.59-.35.96-.11.76-.11,1.18ZM260.87,65.22v-11.48h2.34v13.5h-2.11l-.23-2.02Z"/>
        <path class="cls-2" d="M265.27,55.24c0-.35.12-.63.36-.86s.56-.34.96-.34.73.11.96.34.36.52.36.86-.12.62-.36.85-.56.34-.96.34-.73-.11-.96-.34-.36-.51-.36-.85ZM267.76,57.73v9.51h-2.33v-9.51h2.33Z"/>
        <path class="cls-2" d="M272.25,59.76v7.48h-2.32v-9.51h2.18l.14,2.03ZM271.88,62.14h-.69c0-.69.1-1.32.28-1.88s.44-1.05.77-1.45.73-.71,1.18-.93.97-.33,1.53-.33c.46,0,.87.06,1.24.19s.69.33.95.62.47.65.62,1.1.22,1.01.22,1.67v6.1h-2.34v-6.12c0-.43-.06-.78-.19-1.03s-.31-.43-.54-.54-.53-.16-.87-.16-.67.07-.94.22-.49.34-.67.59-.31.54-.41.87-.14.68-.14,1.06Z"/>
        <path class="cls-2" d="M285.59,61.45l.02,1.38h-1.47c-.36,0-.68.04-.96.11s-.5.18-.68.32-.31.3-.4.49-.13.41-.13.65.05.45.16.63.27.34.47.44.45.16.73.16c.41,0,.77-.08,1.07-.25s.54-.37.71-.61.26-.47.27-.69l.67,1c-.08.24-.21.5-.37.76s-.38.52-.63.76-.57.43-.93.58-.79.23-1.27.23c-.62,0-1.17-.12-1.65-.37s-.87-.58-1.15-1.01-.42-.91-.42-1.46c0-.5.09-.95.28-1.34s.47-.71.83-.98.83-.47,1.38-.61,1.18-.21,1.89-.21h1.56ZM285.27,65.22v-4.39c0-.32-.06-.6-.17-.83s-.28-.42-.51-.54-.52-.19-.87-.19c-.31,0-.58.05-.81.16s-.41.25-.53.44-.18.41-.18.65h-2.33c0-.39.09-.77.28-1.12s.46-.67.8-.95.77-.5,1.26-.66,1.04-.24,1.65-.24c.72,0,1.36.12,1.93.37s1.01.61,1.34,1.09.49,1.1.49,1.84v4.15c0,.47.03.88.09,1.22s.15.63.28.87v.15h-2.36c-.11-.24-.2-.55-.25-.92s-.09-.74-.09-1.1Z"/>
        <path class="cls-2" d="M294.2,57.73v1.67h-5.45v-1.67h5.45ZM290.21,55.39h2.33v9.11c0,.28.04.5.11.65s.19.25.34.31.33.08.54.08c.15,0,.29,0,.42-.03s.24-.04.33-.05v1.74c-.18.06-.4.12-.65.16s-.52.06-.82.06c-.52,0-.98-.09-1.37-.27s-.7-.47-.91-.87-.33-.93-.33-1.6v-9.29Z"/>
        <path class="cls-2" d="M295.72,55.24c0-.35.12-.63.36-.86s.56-.34.96-.34.73.11.96.34.36.52.36.86-.12.62-.36.85-.56.34-.96.34-.73-.11-.96-.34-.36-.51-.36-.85ZM298.21,57.73v9.51h-2.33v-9.51h2.33Z"/>
        <path class="cls-2" d="M300.01,62.58v-.18c0-.7.1-1.34.3-1.93s.49-1.1.87-1.53.85-.77,1.4-1.01,1.18-.37,1.88-.37,1.35.12,1.9.37,1.02.58,1.4,1.01.67.95.87,1.53.3,1.23.3,1.93v.18c0,.69-.1,1.33-.3,1.92s-.49,1.1-.87,1.54-.85.77-1.4,1.01-1.18.36-1.89.36-1.33-.12-1.89-.36-1.03-.58-1.41-1.01-.67-.95-.87-1.54-.3-1.23-.3-1.92ZM302.33,62.4v.18c0,.42.04.81.12,1.17s.21.68.38.96.39.49.66.65.6.23.98.23.7-.08.97-.23.49-.37.66-.65.3-.59.38-.96.12-.75.12-1.17v-.18c0-.41-.04-.79-.12-1.16s-.21-.68-.38-.96-.4-.5-.67-.66-.6-.24-.98-.24-.7.08-.97.24-.49.38-.66.66-.3.6-.38.96-.12.75-.12,1.16Z"/>
        <path class="cls-2" d="M312.88,59.76v7.48h-2.32v-9.51h2.18l.14,2.03ZM312.52,62.14h-.69c0-.69.1-1.32.28-1.88s.44-1.05.77-1.45.73-.71,1.18-.93.97-.33,1.53-.33c.46,0,.87.06,1.24.19s.69.33.95.62.47.65.62,1.1.22,1.01.22,1.67v6.1h-2.34v-6.12c0-.43-.06-.78-.19-1.03s-.31-.43-.54-.54-.53-.16-.87-.16-.67.07-.94.22-.49.34-.67.59-.31.54-.41.87-.14.68-.14,1.06Z"/>
      </g>
      <g>
        <path id="path927" class="cls-2" d="M90.89,16.53h4.77v15.17c0,2.67-.81,4.73-2.49,6.09-3.77,2.8-8.92,2.8-12.68,0-1.68-1.37-2.49-3.42-2.49-6.09v-15.17h4.79v15.17c0,1.55.38,2.62,1.12,3.29,1.76,1.37,4.21,1.37,5.97,0,.74-.68,1.06-1.8,1.06-3.29l-.05-15.17ZM106.18,25.8c-1.2-.06-2.33.57-2.91,1.62v12.12h-4.62v-17.1h4.29l.13,1.93c1.19-1.49,3-2.35,4.91-2.3,1.45-.07,2.86.45,3.92,1.43.99.99,1.49,2.67,1.49,5.1v10.88h-4.6v-10.82c0-1.12-.25-1.86-.69-2.24-.53-.46-1.23-.68-1.92-.62h0ZM116.5,18.02c0-.63.24-1.23.68-1.68,1.09-.87,2.64-.87,3.73,0,.46.43.71,1.05.68,1.68,0,.63-.24,1.23-.68,1.68-1.09.87-2.64.87-3.73,0-.44-.45-.68-1.05-.68-1.68ZM121.41,22.44v17.1h-4.6v-17.1h4.6ZM133.29,39.48c-.88.3-1.81.44-2.74.43-1.3.05-2.58-.37-3.61-1.18-.87-.75-1.31-2.05-1.31-3.92v-9.01h-2.55v-3.36h2.55v-4.23h4.6v4.23h2.93v3.36h-2.93v8.58c-.08.52.08,1.04.44,1.43.39.25.84.37,1.31.37.25.01.5-.01.74-.06.25,0,.44-.06.56-.06v3.42ZM149.82,36.8c-.66.88-1.51,1.6-2.49,2.11-1.29.66-2.72,1.01-4.17.99-2.67,0-4.79-.81-6.28-2.43-1.49-1.58-2.29-3.68-2.24-5.84v-.62c-.11-2.31.67-4.58,2.18-6.34,1.46-1.68,3.62-2.6,5.84-2.49,2.49,0,4.36.74,5.6,2.3,1.24,1.56,1.92,3.61,1.92,6.09v1.93h-10.88c.11,1.02.57,1.96,1.31,2.67.78.7,1.81,1.06,2.86.99,1.61.09,3.15-.63,4.1-1.93l2.24,2.55ZM142.61,25.8c-.86-.06-1.7.31-2.24.99-.56.74-.93,1.62-1.06,2.55h6.36v-.37c0-.83-.26-1.63-.75-2.3-.6-.63-1.45-.95-2.31-.87h0ZM162.94,39.6l-.25-1.8c-.5.65-1.14,1.18-1.86,1.56-2.61,1.21-5.71.4-7.4-1.93-1.24-1.83-1.85-4.01-1.74-6.22v-.31c0-2.62.56-4.73,1.74-6.34,1.14-1.6,3.01-2.52,4.98-2.43,1.59-.07,3.12.62,4.1,1.87v-8.71h4.6v24.31h-4.16ZM156.23,31.21c-.07,1.21.19,2.41.75,3.49.48.95,1.49,1.52,2.55,1.43,1.25.06,2.42-.62,2.98-1.74v-6.78c-.53-1.16-1.71-1.87-2.98-1.8-1.07-.07-2.08.52-2.55,1.49-.55,1.12-.81,2.36-.75,3.61v.31ZM96.91,44.08v23.06h-4.72l-9.26-15.23v15.23h-4.79v-23.06h4.79l9.26,15.23v-15.23h4.72ZM110.28,67.14c-.24-.49-.39-1.01-.44-1.55-.48.55-1.08,1-1.74,1.31-2.23.99-4.81.65-6.71-.87-1.09-.91-1.71-2.26-1.67-3.68-.07-1.63.68-3.19,1.99-4.17,1.31-.99,3.29-1.49,5.91-1.49h2.05v-.99c.04-.7-.18-1.39-.62-1.93-.51-.5-1.22-.75-1.93-.68-1.62,0-2.43.68-2.43,2.05h-4.6c.03-1.52.76-2.94,1.99-3.84,1.54-1.11,3.39-1.68,5.29-1.62,1.76-.07,3.49.45,4.91,1.49,1.31.99,1.93,2.49,1.93,4.54v7.22c0,.79.06,1.58.19,2.36.1.54.27,1.06.5,1.55v.31h-4.6ZM106.5,63.97c.69,0,1.38-.18,1.99-.5.48-.27.88-.66,1.18-1.12v-2.99h-1.87c-.95-.07-1.9.19-2.67.75-.54.47-.86,1.15-.87,1.87-.01.53.19,1.05.56,1.43.49.36,1.07.56,1.68.56h0ZM125.97,67.01c-.41.13-.82.24-1.24.31-.49.07-.99.12-1.49.13-1.3.05-2.58-.37-3.61-1.18-.87-.75-1.31-2.05-1.31-3.92v-9.02h-2.56v-3.35h2.55v-4.23h4.6v4.23h2.91v3.35h-2.91v8.58c-.08.52.08,1.04.44,1.43.39.24.84.37,1.31.37.25.01.5-.01.74-.06.25,0,.44-.06.56-.06v3.43ZM127.89,45.57c0-.63.24-1.23.68-1.68,1.09-.87,2.64-.87,3.73,0,.93.95.93,2.47,0,3.42-1.09.87-2.64.87-3.73,0-.49-.44-.74-1.09-.7-1.74h.01ZM132.74,49.98v17.16h-4.61v-17.16h4.61ZM135.36,58.75v-.31c-.06-2.26.69-4.46,2.11-6.22,1.43-1.68,3.42-2.49,5.97-2.49s4.6.81,6.03,2.49c1.43,1.75,2.18,3.96,2.11,6.22v.31c.06,2.26-.7,4.46-2.13,6.21-1.43,1.68-3.42,2.49-5.97,2.49s-4.6-.81-6.03-2.49c-1.42-1.75-2.17-3.96-2.11-6.22h.02ZM139.96,58.37v.31c-.05,1.23.23,2.46.81,3.54.99,1.51,3.02,1.93,4.54.93.37-.24.69-.56.93-.93.55-1.1.82-2.32.81-3.54v-.31c.04-1.23-.23-2.45-.81-3.54-.53-1-1.61-1.59-2.74-1.49-1.12-.07-2.19.51-2.73,1.49-.57,1.09-.85,2.31-.81,3.54h0ZM161.38,53.4c-1.21-.06-2.35.59-2.91,1.67v12.06h-4.6v-17.16h4.29l.19,1.99c1.18-1.5,3-2.36,4.91-2.3,1.46-.08,2.9.44,3.98,1.43.99.99,1.49,2.67,1.49,5.1v10.94h-4.6v-10.94c0-1.12-.25-1.86-.68-2.24-.6-.42-1.32-.62-2.05-.56h-.01ZM181.04,62.34c0-.51-.25-.98-.69-1.24-.86-.49-1.81-.8-2.8-.93-1.55-.29-3.04-.88-4.36-1.74-1.14-.76-1.8-2.05-1.74-3.42.02-1.45.68-2.81,1.8-3.73,1.24-1.06,2.86-1.62,5.04-1.62s3.98.5,5.28,1.56c1.24.95,1.96,2.43,1.94,3.99h-4.6c.02-.6-.2-1.19-.62-1.62-.56-.45-1.27-.68-1.99-.62-.64-.05-1.28.13-1.8.5-.39.32-.61.8-.62,1.31,0,.51.25.98.68,1.24.77.43,1.61.7,2.49.81,1.62.31,3.17.87,4.6,1.68,1.24.75,1.86,1.99,1.86,3.67-.01,1.48-.73,2.86-1.93,3.73-1.31.99-3.04,1.49-5.28,1.49-2.36,0-4.23-.62-5.47-1.87-1.16-.98-1.86-2.4-1.93-3.92h4.36c0,.76.37,1.48.99,1.93.65.41,1.41.6,2.18.56,1.68.13,2.62-.5,2.62-1.74h-.01Z"/>
        <path id="path929" class="cls-2" d="M53.71,64.71c-1.79.88-3.83,1.12-5.78.68-1.33-.3-2.62-.74-3.85-1.31l-2.74-1.12c-2.38-.75-4.92-.81-7.34-.19h-.25c-2.41-.68-4.97-.62-7.34.19-.93.31-1.8.74-2.73,1.12-1.24.58-2.53,1.03-3.86,1.37-1.95.43-3.99.19-5.78-.68l-.25-.13q-.06,0-.06.06c1.19,1.23,2.7,2.11,4.36,2.55,1.11.3,2.27.38,3.42.25,1.74-.24,3.4-.87,4.85-1.86l2.62-1.74c.97-.63,2.16-.85,3.29-.61.62.06.13.37.06.43-1.57.75-3.05,1.67-4.43,2.74-.93.68-2.62,2.3-2.62,2.3l1.24,1.06,1.37-1.49c1.68-1.74,3.61-3.23,5.72-4.41.17-.12.39-.12.56,0,2.11,1.18,4.04,2.67,5.72,4.41l1.37,1.49,1.24-1.06-2.62-2.3c-1.37-1.06-2.85-1.98-4.41-2.74-.13-.06-.56-.37.06-.43,1.14-.23,2.32-.01,3.29.62l2.62,1.74c1.45.99,3.11,1.63,4.85,1.86,1.15.14,2.31.05,3.42-.25,1.64-.49,3.13-1.36,4.36-2.55-.03-.03-.08-.06-.13-.06l-.25.06M59.81,59.31c-.79.6-1.67,1.06-2.62,1.37-1.33.39-2.71.6-4.1.62-1.79.05-3.57.2-5.35.44-.13,0-.19,0-.13-.06,1.55-.63,2.8-1.84,3.49-3.36l1.74-3.54v-.12c-.12.06-1.86,1.55-2.67,2.3l-2.91,2.86c-1.31,1.12-2.87,1.93-4.54,2.36h-.06l-.06.06,3.33.81c1.44.42,2.92.7,4.41.81,3.77.37,7.44-1.35,9.58-4.48,0-.06-.06-.06-.13-.06M65.28,50.98c-.89,1.07-1.93,1.99-3.11,2.74-1,.68-2.06,1.26-3.17,1.74-1.41.57-2.73,1.35-3.92,2.3l-.25.19q-.06,0-.06-.06c0-.06,1.87-1.92,2.43-5.84.08-1.4.29-2.8.62-4.17v-.13c-1.29,1.6-2.3,3.41-2.98,5.35l-1.12,3.17c-.45,1.43-1.24,2.73-2.3,3.78l-.13.12v.06c.13,0,.25-.06.37-.06l3.61-.74c1.98-.32,3.86-1.11,5.47-2.3,1.66-1.2,3-2.77,3.92-4.6.23-.49.44-.99.62-1.49.12-.12.06-.12,0-.06M67.64,41.64c-.57,1.7-1.56,3.24-2.86,4.48-1.48,1.45-2.85,3-4.1,4.65,0,.06-.13,0-.06-.06.5-1.72.63-3.52.37-5.29-.25-1.49-.87-3.11-1.06-4.91l-.06-.06c0,.06-.06.12-.06.19-.37,1.17-.62,2.38-.74,3.61-.06,1.49.19,3.42.06,4.91-.13,1.74-.25,3.54-1.06,5.1v.13l3.73-2.3c1.54-.97,2.87-2.23,3.92-3.71,1.35-1.91,2.06-4.19,2.04-6.53v-.25s-.09.03-.13.06"/>
        <path id="path931" class="cls-2" d="M63.66,42.64h0c.01-.5-.01-1-.06-1.49-.12-1.74-1.18-3.17-2.11-4.65-.63-.95-1.19-1.95-1.68-2.98-.03-.03-.08-.06-.13-.06,0,.33.02.67.06.99.31,2.51.94,4.98,1.86,7.34.54,1.46.75,3.03.62,4.59q0,.13.06.19c.56-.81,1.68-1.93,2.36-2.8s4.41-5.1,2.62-10.94c-.08-.26-.18-.51-.31-.75l-.06.06c0,4.22-2.05,6.03-2.86,8.89-.16.53-.28,1.07-.37,1.62M63.72,33.94l-.37-1-.25-.55c-.62-1.13-1.49-2.11-2.55-2.86-.86-.72-1.61-1.56-2.24-2.49h-.19c.06.19.62,2.05.99,2.92.61,1.2,1.37,2.33,2.24,3.36l.19.25c1.05,1.41,1.87,2.98,2.43,4.65,0,.03.03.06.06.06h0l1.06-3.23c.38-1.14.69-2.31.93-3.49.38-2.8-.5-6.34-2.11-8.33-.03.03-.06.08-.06.13l.06.25.13.38c.33,1.51.35,3.08.06,4.6-.23,1.21-.33,2.44-.31,3.67,0,.19.12,1.74.12,1.8s-.06,0-.12,0M58.73,18.34c.52.49.92,1.08,1.18,1.74.44,1.06.56,2.62.87,3.78l.56,2.05c0,.06-.06.13-.13.06-.94-1.12-2.08-2.07-3.36-2.79-.83-.51-1.57-1.16-2.17-1.93l-.31-.44s-.09-.04-.12,0c0,0,0,0,0,0v.19c.3,1.39.96,2.68,1.93,3.73.81.75,1.68,1.43,2.49,2.11,1.07.92,2.07,1.91,2.99,2.98,0,0,.06.06.06,0v-.99l.06-2.98v-.99c0-1.02-.18-2.03-.55-2.98-.62-1.53-1.77-2.79-3.23-3.54-.06-.06-.19-.06-.31-.13,0,.05.03.09.06.13M52.34,15.43c.87.82,1.64,1.74,2.3,2.74.6.98,1.33,1.88,2.17,2.67.56.56,2.24,1.87,2.67,2.24-.06-.5-.87-4.04-3.04-5.78-1.26-1.01-2.72-1.73-4.29-2.11v.13l.19.13M17.52,63.84c1.45-.11,2.89-.38,4.28-.81l3.36-.81h.06s-.03-.06-.06-.06h-.06c-1.69-.45-3.26-1.25-4.6-2.36l-2.91-2.8-2.67-2.3v.13c.25.37,1.18,2.43,1.74,3.54.67,1.54,1.93,2.74,3.49,3.36.06.06,0,.06-.13.06-1.77-.24-3.56-.38-5.35-.43-1.39-.02-2.77-.23-4.1-.62-.94-.31-1.83-.77-2.62-1.37h-.13c1.24,1.74,2.96,3.08,4.95,3.85,1.53.48,3.13.69,4.73.62M16.09,60.17c.13,0,.19.06.37.06v-.06l-.12-.12c-1.04-1.07-1.83-2.36-2.3-3.78l-1.12-3.17c-.68-1.94-1.69-3.75-2.99-5.35v.13c.36,1.37.58,2.76.69,4.17.56,3.85,2.43,5.72,2.43,5.78s0,.13-.06.06l-.25-.19c-1.19-.95-2.51-1.73-3.92-2.3-1.11-.48-2.17-1.07-3.17-1.74-1.17-.74-2.22-1.66-3.11-2.73h-.06c.18.51.39,1.01.62,1.49.94,1.83,2.3,3.41,3.98,4.6,1.58,1.24,3.47,2.04,5.47,2.3,1.18.31,2.36.62,3.54.87M6.08,52.1l3.73,2.3s.06-.08.06-.13c-.81-1.62-.93-3.36-1.06-5.1-.13-1.56.12-3.42.06-4.91-.12-1.25-.36-2.48-.74-3.68,0-.06-.06-.12-.06-.19l-.06.06h0c-.13,1.8-.81,3.42-1.06,4.91-.25,1.77-.12,3.57.37,5.28.06.06-.06.13-.06.06-1.23-1.66-2.61-3.22-4.1-4.65-1.3-1.22-2.28-2.73-2.86-4.41-.03-.03-.08-.06-.12-.06-.06,0,0,.13,0,.25,0,2.34.71,4.62,2.05,6.53,1.03,1.48,2.34,2.75,3.86,3.73M5.41,46.63q.06-.06.06-.19c-.15-1.57.08-3.15.68-4.6.88-2.37,1.5-4.83,1.87-7.34,0-.31.06-.87.06-.99q-.06,0-.06.06c-.49,1.04-1.05,2.03-1.68,2.99-.99,1.37-1.99,2.86-2.11,4.6-.06.5-.06,1,0,1.49,0,.03-.03.06-.06.06h0v-.06l-.44-1.49c-.87-2.86-2.86-4.65-2.86-8.89l-.06-.06c-.12.25-.19.5-.31.74-1.81,5.84,1.86,10.07,2.62,10.94.75.87,1.74,1.92,2.3,2.73M2.79,35l1.06,3.23s.06-.03.06-.06h0c.58-1.66,1.4-3.22,2.43-4.65l.19-.25c.86-1.04,1.61-2.16,2.24-3.36.37-.87.93-2.74.99-2.92h-.19c-.63.93-1.38,1.77-2.24,2.49-1.09.76-1.98,1.76-2.62,2.92-.06.19-.19.37-.25.56l-.37,1.06s-.06.13-.06,0,.13-1.56.13-1.8c0-1.24-.13-2.47-.38-3.69-.29-1.52-.27-3.09.06-4.6.01-.13.06-.26.13-.37,0-.06.06-.19.06-.25s0-.06-.06-.12c-1.62,1.99-2.55,5.59-2.17,8.33.31,1.18.62,2.36.99,3.49M5.02,25.93l.06,2.99v.93h.06c.88-1.1,1.86-2.12,2.92-3.04l2.49-2.11c.97-1.05,1.65-2.34,1.95-3.74v-.18h-.06l-.31.43c-.58.77-1.3,1.42-2.11,1.93-1.49.93-2.49,1.62-3.36,2.8-.06.06-.13.06-.06-.06l.56-2.05c.31-1.18.44-2.73.87-3.78.27-.65.68-1.25,1.18-1.74v-.14c-.13,0-.19.06-.31.13-1.49.77-2.66,2.05-3.29,3.61-.41.94-.6,1.96-.56,2.98v1.06M8.34,22.99h0l2.71-2.23c.83-.81,1.56-1.7,2.18-2.68.64-1.01,1.42-1.93,2.3-2.73l.19-.19v-.12c-1.58.36-3.05,1.08-4.29,2.11-2.3,1.8-3.05,5.34-3.11,5.84M33.32,42.28c.19-.25-.25-.44-.38,0-.13.44.19.31.38,0M38.04,31.34c-.19-.06-.87.74-.75.87.33-.21.59-.52.75-.87M38.17,31.21c.12.06.56-.19.5-.25s-.62-.31-.62-.19c-.02.16.03.31.13.44M46.56,38.92c.25-.06.19-.44,0-.44s-.44.31-.37.31.25.19.37.13M43.51,30.65c-.19,0-.25.19-.06.31.15.05.31.02.44-.06.15-.07.24-.21.25-.37,0-.19-.25-.44-.13-.56.12-.13.31.06.44,0,.12-.06.19-.18.19-.31,0-.12-.06-.5-.31-.5s-.5.5-.5.5c-.06.14-.06.3,0,.44.06.25,0,.56-.31.56"/>
        <path id="path933" class="cls-2" d="M47.61,30.71c.11.38.23.75.38,1.12.06.19.13.87.25.81s.13-.44.06-.62c-.07-.44-.17-.88-.31-1.31-.06-.25-.5-1.18-.62-1.12-.13.06.19.62.25.87.06.25-.06.13,0,.25M45.44,20.14c.19.06.19-.31-.13-.56-.31-.25-.81-.13-.68,0,.24.22.52.41.81.56M36.11,17.47c-.44-.25-.06-.62-.37-.87-.34-.13-.73-.06-.99.19-.31.38.37.25.56.38s.81.56.87.5c.04-.05.03-.13-.02-.17-.01,0-.02-.02-.04-.02M38.6,16.22c-.56-.25-2.62-.25-2.55.31.07.56,1.18,0,1.49,0s1.55-.06,1.06-.31M32.94,40.22c-.12-.06-.31.06-.37-.06-.06-.12-.19-.06-.19,0-.04.11-.01.23.06.31.14.12.35.12.5,0,.06-.07.06-.18,0-.25M31.76,36.06c.19,0,.19-.13.25-.13s0,.13.19.13.37-.44-.19-.44c-.44,0-.38.44-.25.44M32.51,36.55c-.31-.06-.25.12-.5.12-.38.06-.06-.25-.19-.37-.06-.06-.25.25-.31.44,0,.13,0,.37.12.43l1.18.13c.25,0,0-.68-.31-.74M28.65,40.59c.13,0,.19-.37.13-.56s-.44-.06-.44.06c.05.19.16.37.31.5M23.68,40.59c0-.12,0-.62-.13-.74s-.13.06-.19.06-.06-.25-.13-.25,0,.37.13.62c.13.25.31.62.31.31M23.56,39.48c.12-.36.19-.74.19-1.12.01-.22-.08-.43-.25-.56-.06,0,0,.19.06.5-.03.32-.09.63-.19.93,0,.06.13.37.19.25"/>
        <path id="path935" class="cls-2" d="M17.21,53.4c9.23,9.24,24.21,9.24,33.45,0,9.24-9.23,9.24-24.21,0-33.45-9.23-9.24-24.21-9.24-33.45,0,0,0,0,0,0,0-9.23,9.2-9.26,24.14-.06,33.38.02.02.04.04.06.06M11.31,37.17h3.61c.06,1.83.37,3.65.93,5.4-.2-.06-.39-.14-.56-.25-.25-.13-.43.06-.5.06-.25,0-.56-.19-.56,0s.25.06.25.19-.62.12-.68-.13c-.06-.25-.19-.5-.25-.19-.06.31-.31.25-.44.31-.08.08-.12.19-.13.31,0,.13-.31.06-.31.25s.19.25.25.44c.06.19.25.31.13.37s-.06-.06-.19,0c-.13.06.56,1.93.69,1.86s-.19-.62-.19-.87c-.02-.18.08-.36.25-.44.19-.12.68.75.87.62s-.06-.25.13-.31c.19-.06.75.81.93.56.13-.19.25.12.25.19.19.31.5.31.68.68.19.37.62,1.06.93,1.06s.13-.31.25-.31.25.43.43.68c.13.19.33.33.56.37.43.56.93,1.12,1.43,1.68l-2.55,2.55c-3.95-4.04-6.18-9.47-6.22-15.12M31.89,31.99l-.25.13c-.34.16-.66.36-.93.62l-2.55-2.55c1.46-1.3,3.32-2.06,5.28-2.15v3.61c-.45.05-.89.15-1.31.31.1-.18.23-.35.37-.5-.24.14-.46.33-.62.56M29.95,37.92h0v.13c0-.13-.06-.19-.13-.31-.06-.06-.12-.13-.19-.13h-.3l-.12.06h-.87c-.12,0-.19,0-.19-.06-.06-.25.31-.06.56-.81.06-.06.06-.19.12-.25l.06-.13.06-.06.06-.06c.1-.1.24-.14.38-.13h.13l.12.13.19.37c.06.06.13.06.13.13.09.05.18.11.25.19l.06.06v.06q.06.06.13.06h.25c.13-.06.13,0,.19,0v.06q0,.06-.06.13c0,.06-.06.06-.06.12-.06.06-.13.13-.19.13-.1-.01-.21-.03-.31-.06-.06,0-.13,0-.13.06v.31M23.26,43.89c-.18-.35-.26-.73-.25-1.12-.01-.38-.13-.75-.33-1.07-.07-.24-.11-.49-.13-.74,0-.44-.37-.31-.37-.44s.31,0,.31-.13c-.14-.32-.38-.57-.68-.73-.31-.13-.19-.31-.19-.5.03-.18-.02-.36-.13-.5-.06-.25,0-.69.31-.69.13,0,.31.13.5,0,.19-.13.06-.5.06-.81h1.74c0,.25.06.56.06.81-.13.06-.19.19-.13.25s.13.13.19.06c.31,1.81,1.13,3.5,2.37,4.86l-2.55,2.55c-.2-.22-.39-.45-.56-.69v-.19c0-.43-.31-.68-.44-1.06M20.82,39.55c-.17-.78-.27-1.57-.31-2.36h1.49c-.12.19-.43.38-.5.56s-.43.81-.19,1.06c.56.62-.13.87-.5.75M21.13,48.75l-.31.31-.44-.43c.25-.12.55-.07.75.12M24.99,32.76c-.06,0-.06.06-.13.06-.19.19-.68.12-.62.31.06.19,1.37-.44,1.37-.31s-.56.31-.93.5c-.37.19-.5.5-1.12.5-.31,0-.44.25-.56.43-.17.24-.31.49-.44.75,0,.39-.08.77-.25,1.12h-1.8c.13-3.19,1.38-6.23,3.54-8.58l2.55,2.55c-.62.84-1.16,1.73-1.62,2.67M27.35,30.89l2.24,2.24h-.25c-.25,0-.25-.19-.43-.19-.38.06-.44.19-.5.13-.28-.25-.59-.46-.93-.62-.41-.13-.85-.11-1.24.06-.06,0-.06.06-.12.06.43-.56.87-1.12,1.24-1.68M24.24,35.43c0,.25-.06.5-.06.74h-1.31c-.05-.2,0-.4.13-.56.15-.26.45-.39.74-.31.17.02.34.06.5.13M25.36,38.35l.13.19c.13.13.25.25.37.19.16-.03.33-.03.5,0,.17.07.32.17.44.31.13.19.37.06.56.19s.37.25.13.37c-.25.12.25.38.31.38s.13-.13.13-.31c0-.06.12-.31.31-.25.19.06.74.75.93.5s.06-.56.13-.68c0-.07.06-.12.13-.13.15.29.34.56.56.81l-2.55,2.55c-1.08-1.13-1.79-2.56-2.05-4.1M27.35,29.46l-2.49-2.55c2.35-2.16,5.39-3.41,8.57-3.53v3.61c-2.27.07-4.43.95-6.11,2.49M24.1,26.18l-2.55-2.55c3.22-3.04,7.46-4.79,11.89-4.92v3.61c-3.47.11-6.79,1.48-9.33,3.86M23.36,26.85c-2.36,2.54-3.73,5.85-3.85,9.32h-3.61c.13-4.43,1.87-8.65,4.91-11.88l2.54,2.55ZM19.51,37.17c0,.67.06,1.33.19,1.99-.06,0-.06-.19-.25-.13-.19.06-.87,1.24-1.18,1.74-.25.43.12,1.37-.25,1.68-.36.12-.74.19-1.12.19h-.06c-.61-1.72-.94-3.52-.99-5.35l3.67-.13ZM33.37,59.31c-5.65-.11-11.05-2.35-15.12-6.28l2.55-2.55c3.4,3.23,7.87,5.09,12.56,5.23v3.59ZM33.37,54.71c-4.42-.13-8.64-1.88-11.86-4.91l.44-.44c.09.08.2.14.31.19.27.14.58.18.87.13.25-.06.75-.5,1.06-.5s.81.13,1.12-.06-.19-.81-.38-1.12c-.06-.06-.06-.13-.12-.19,2.44,2.06,5.51,3.22,8.7,3.29l-.15,3.61ZM33.37,50.05c-3.19-.12-6.23-1.38-8.58-3.54l2.55-2.55c1.2,1.09,2.65,1.86,4.23,2.24-.56.25-.81.62-.74.93.06.31-.38.5-.38.87s.5.62.56.99c.06.19.5.5.87.74.46.13.95.18,1.43.13l.06.19ZM33.25,45.08c-.19-.13-.31.13-.56.25-1.7-.25-3.3-.98-4.6-2.11l2.55-2.55c.78.64,1.73,1.03,2.74,1.12,0,.12.13.25.13.5s-.19.37-.13.5.62,0,.68-.19-.19-.31-.25-.5c-.06-.13-.06-.19-.13-.31h.19c.19.01.38-.01.56-.06.07,0,.12-.06.12-.13,0-.06.06-.12.06-.19s.06-.06.06-.12h0l.06.06c.06.13.19.5.31.44.12-.06.19-.62.13-.75-.13-.17-.13-.39,0-.56,0-.06.06-.44.19-.38.12.06,0,.38,0,.5,0,.19.13.44.31.31.13-.06.25-.25.38-.19s-.31.19-.38.31c-.06.13.19.19.13.25-.06.06-.13,0-.19.06s.13.44,0,.5-.56.19-.68.25c-.12.06-.25-.06-.19-.13.06-.06,0-.31-.13-.31s-.13.06-.13.19.13.31.13.37-.19.13-.31.19c-.13.2-.3.37-.5.5-.19.13-.56.13-.56.25s.19.13.25.19c.13.19.19.44-.06.56-.25.13-.56-.19-.69-.13-.13.06-.19.37-.25.74s.68.5,1.06.31c.25-.12.19-.5.44-.62.25-.13.19-.37.44-.31.25.06.19-.19.43-.19s.25.19.56.25c.5.13.5.5.56.31s.13-.31-.25-.44-.56-.56-.25-.43c.37.19.68.19.75.37s.43.13.5.31c.06.31.31,0,.13-.19s-.13-.25,0-.38.19.06.37-.19c.19-.25-.06-.19-.13-.31-.06-.13,0-.81.25-.68.25.13.5-.06.37-.13-.13-.06.06-.43.13-.43s0,.25.06.31c.06.06.68-.19.75.12.06.31-.44.5-.56.5-.25,0-.44.25-.62.5-.19.25-.37.31-.25.56.13.25.37.19.62.06.25-.13.43-.31.56-.37.25-.13.44.62.31.74-.13.12-.37.19-.5.31-.36.22-.76.35-1.18.38-.25.06-.25.12-.31.37-.06.25-1.18.06-1.43.06s.19-.56-.19-.5l-1.12.19c-.06,0-.44.31-.75.06M36.54,50.86c.32.14.6.35.81.62.19.31.25.44.12.75-.31.56-.19.93.44,1.12.37.12.5.5.75.74-1.38.36-2.8.57-4.23.62v-3.61c.68-.06,1.43-.13,2.11-.25M34.43,50.12v-.44c.81-.13.62.37,1.18.19.18-.06.37,0,.5.13-.56,0-1.12.05-1.68.13M34.43,59.38v-3.68c1.88-.05,3.74-.39,5.52-.99.05.05.12.07.19.06.25-.02.48-.1.68-.25.6-.24,1.16-.55,1.68-.93,1.64-.83,3.15-1.9,4.48-3.17l2.55,2.55c-4.05,3.96-9.45,6.24-15.11,6.4M44.49,26.85l.87-.87c.23.26.53.43.87.5.27.02.48.23.5.5.06.31.37.44.68.5s.5.44.75.44,1.06,1.12,1.37,1.49c.19.19.44.5.62.25s.19-.19.31-.25c.96,2.14,1.49,4.44,1.58,6.78h-3.62c-.01-.82-.11-1.63-.31-2.43.13-.25.19-.53.19-.81.02-.14-.08-.26-.22-.27-.08,0-.17.02-.22.09-.13-.47-.29-.93-.5-1.37-.06-.25-.13-.56-.19-.81,0-.06-.13-.13-.25-.25-.09-.21-.19-.42-.31-.62.19-.13.25-.44,0-.38-.37.06-.12-.19-.25-.31-.13-.13-.13,0-.19.06-.48-.75-1.02-1.45-1.62-2.11v-.06c-.13,0-.13-.06-.06-.06M46.68,47.93c-.13-.25-.19-.56-.31-.81-.06-.25-.56-.25-.56-.12.01.25-.01.5-.06.74v.07l-1.31-1.31c2.36-2.55,3.73-5.86,3.86-9.33h3.61c-.12,4.41-1.87,8.62-4.91,11.81l-.19-.19c.05-.3,0-.6-.13-.87M43.7,50.42c.19-.31.56-.87.75-1.18.19-.31-.5-.74-.87-.87s-.38-.31-.38-.62c.2-.15.39-.31.56-.5l2.55,2.55c-.84.79-1.76,1.5-2.73,2.11-.06-.13.37-.56.5-.75.13-.19-.5-.43-.38-.74M45.25,35.56c-.31-.43.13-.5.56-.68.25-.12.56.06.56-.06.02-.17.11-.33.25-.44.15-.07.28-.18.38-.31,0,.13.06.25.06.38-.12.21-.18.44-.19.68,0,.19,0,.43.19,0,0-.06.06-.06.06-.13.1.39.14.78.13,1.18h-2.67v-.06c.19-.31.87-.25.68-.56M45.75,30.46s-.02.06-.06.06c0,0,0,0,0,0-.06.06-.38-.44-.38-.06s.13.5.38.56c.25.06.12.19.31.25.09.02.18.06.25.13.29.68.52,1.39.68,2.11-.09.05-.18.11-.25.19-.13.13-.06.37-.19.56-.19.31-.25.5-.75.38-.31-.13-.06-.5,0-.81.06-.31.19-.25.19-.44s-.62-.87-.93-.62c-.31.25-.25.5-.5.75-.12.13-.25.13-.43,0-.19-.13-.25-.25-.19-.37s-.44-.69-.62-.93c-.24-.31-.61-.49-.99-.5-.34-.58-.73-1.12-1.18-1.62l2.55-2.55c.83.87,1.54,1.85,2.11,2.91M41.46,32.19l-.13.19c-.06.13-.37-.13-.44-.06s.44.68-.06.5-.19-.19-.19-.38-.44-.31-.19-.43c.25-.13,0-.31.25-.38s.19-.31-.13-.37c-.31-.06-.25.68-.43.56-.18-.05-.37-.07-.56-.06l.87-.87c.1.05.2.07.31.06.15.45.38.87.68,1.24M40.46,44.81c.4.05.79.14,1.18.25.25.13.44.37.62.06.37-.56.63-1.2.74-1.86.13-.93-.06-1.24-.19-1.24s-.37.25-.62.25c-.12,0-.12.25-.12.43s-.25.38-.31.25-.19-.06-.13.06c.06.13-.5.06-.75-.06-.37-.19.44-.19.81-.5.33-.27.64-.57.93-.87.19-.31.19-.68.5-.93.31-.25.81-.19.87-.56.06-.38.13-.31.31-.25s1.93-.06,1.93-.62c0-.25-.37-.56-.74-.62-.25,0-.31-.5-.44-.74-.12-.26-.27-.51-.44-.75h2.62c-.13,3.19-1.38,6.23-3.54,8.58l-.06-.06v-.25c.06-.5-.31-1.31-.44-1.18-.13.12,0,.13-.37.69-.13.19-.31.5-.56.5s-.25-.13-.62-.06c-.33.06-.67.06-.99,0-.59-.19-1.16-.46-1.68-.81.06-.06.25.06.25-.12s.99.37,1.24.43M50.23,52.33l-2.55-2.54c3.23-3.4,5.09-7.87,5.23-12.56h3.67c-.12,5.66-2.38,11.07-6.34,15.12M56.57,36.17h-3.67c-.06-2.67-.69-5.3-1.87-7.71l.06-.06c.25-.25-1.18-2.11-1.43-2.3-.29-.25-.56-.52-.82-.81-.51-.49-.96-1.04-1.37-1.62l2.67-2.68c4,4.05,6.28,9.48,6.4,15.17M34.44,14.05c5.66.12,11.07,2.36,15.17,6.28l-2.49,2.47c-.12-.06-.25-.12-.19-.25.13-.19-.19-.19-.25-.68-.14-.5-.48-.93-.93-1.18-.31-.19-.5-.43-.81-.56-.31-.13-.93-.5-1.24-.37-.2.07-.41.11-.62.12-2.64-1.41-5.58-2.18-8.58-2.24l-.06-3.59ZM34.44,18.7c2.66.08,5.27.74,7.65,1.93.07.41.24.79.5,1.12.14.3.31.6.5.87.19.19.06.56.12.87,0,.12.13.25.19.37v.5c0,.06.25.06.43-.06.19-.13.31-.37.56-.31.25.06.56.56.74.87l-1.18,1.18c-.13-.25-.25-.56-.19-.56s.19.06.25.06c.25,0-.19-.19-.19-.25-.19-.19-.19-.44-.43-.62-.25-.19-.62-.06-.75-.31-.24-.44-.58-.82-.99-1.12-.06,0,.5.68.31.81-.19.13-.87-.44-.93-.31-.06.13.75.44.99.68.13.13.37.5.62.81-2.37-1.79-5.24-2.81-8.21-2.92v-3.61ZM34.44,23.3c3.19.13,6.23,1.38,8.58,3.54l-2.55,2.55c-1.67-1.49-3.8-2.36-6.03-2.49v-3.61ZM34.44,27.95c1.96.1,3.82.87,5.28,2.17l-.13.13-.12-.06c-.31-.13-.93.5-.81.56.13.06.37-.25.5-.19h.06l-1.06,1.12c-.31.13-.62.37-.62.56v.06l-.38.38-.19-.19c-.29-.25-.63-.44-.99-.56.17-.14.29-.34.31-.56,0-.37-.13-.25-.31-.06-.19.19-.37.25-.5.43-.32-.12-.65-.19-.99-.19v-3.61h-.06ZM34,32.55c.04.11.02.23-.06.31h0c-.13.13-.5-.31-.56.06-.13.38.25.19.25.25.18.24.45.39.74.44.25,0,.62,0,.62.25,0,.13.31.13.37.25,0,.19.19.5.31.43.12-.06.31.06.38.19.06.13,0,.19-.06.31-.19.19.19.13.25.5.06.37-.31.13-.38.38-.12.19-.25.31-.37.5-.06.06.06.19.13.13.06-.06.19-.25.37-.25s.37.68.56.75c.19.06.12.31.19.37.06.06-.31,0-.25.13.06.13.44.19.44.37-.04.21-.22.36-.44.37-.19,0-.5-.43-.5-.31s.13.5.31.5.62-.19.44.06c-.19.25-.13.62-.25.62s-.19,0-.06.19c.05.2,0,.4-.13.56-.14.08-.32.06-.44-.06,0-.06.38-.06.38-.25s-.19-.25-.56-.12c-.19.06-.25-.06-.37-.06s-.5.44-.5.5v.31c0,.22-.06.44-.19.62-.22.05-.45.07-.68.06-1.01-.03-1.97-.4-2.74-1.06.15-.08.32-.12.5-.13.19.06.25-.06.37-.13.13-.06.44.13.62,0s.62-.93.56-1.12c-.06-.19.44-.5.38-.56s-.13.06-.13,0,.13-.06,0-.31-.31-.13-.44-.13c-.19-.12-.5-.19-.56-.12-.06.06-.25-.13-.31-.06-.1,0-.18.09-.19.19-.06.13.06.25.06.38-.06.25-.44.43-.44.62s-.19.06-.25.13c-.06.06,0,.19-.13.19s-.31.31-.43.56c-.19-.25-.38-.56-.56-.81.13-.06.25-.13.31-.06.19.13.93-1.18.81-1.55s-.31-.13-.5-.06c-.19.06-.19-.12-.13-.19.06-.06.87-.06.44-.31-.19-.12-.68-.12-.62-.31s.31,0,.37,0c.31.12.5-.5.68-.5.31,0,.19-.62-.12-.43s-.44.13-.56.31c-.13.19-.43.43-.43.19,0-.13.68-.5.81-.68.14-.14.24-.31.31-.5.06-.19.93-.31,1.12-.44.14-.13.23-.31.25-.5,0-.19-.25-.13-.31-.25-.06-.13.31,0,.31-.19s-.31,0-.44-.13q0-.06.06-.12c.44-.16.9-.25,1.37-.25h.13M33.44,14.05v3.61c-4.69.14-9.16,2-12.56,5.23l-2.55-2.55c4.07-3.92,9.47-6.17,15.12-6.28M17.53,21.08l2.55,2.55c-3.23,3.4-5.1,7.87-5.23,12.56h-3.6c.17-5.63,2.41-11.01,6.28-15.11"/>
      </g>
    </g>
  </g>
</svg>