<?xml version="1.0" encoding="UTF-8"?>
<svg id="Layer_2" data-name="Layer 2" xmlns="http://www.w3.org/2000/svg" viewBox="0 0 362.84 82.84">
  <defs>
    <style>
      .cls-1 {
        fill: none;
        stroke: #191a1a;
        stroke-miterlimit: 10;
        stroke-width: 2px;
      }

      .cls-2 {
        fill: #191a1a;
      }

      .cls-3 {
        fill: #1a1a1a;
      }
    </style>
  </defs>
  <g id="Layer_5" data-name="Layer 5">
    <g>
      <line class="cls-1" x1="146.09" x2="146.09" y2="82.84"/>
      <g>
        <path class="cls-2" d="M169.27,25.53h-3.11v-1.79h3.11c.51,0,.92-.08,1.24-.25s.55-.4.7-.7.22-.64.22-1.02-.07-.72-.22-1.04-.38-.58-.7-.78-.73-.3-1.24-.3h-2.36v10.28h-2.28v-12.08h4.65c.94,0,1.74.17,2.41.5s1.18.8,1.53,1.39.53,1.26.53,2.01-.18,1.45-.53,2.02-.86,1-1.53,1.3-1.47.46-2.41.46Z"/>
        <path class="cls-2" d="M177.55,22.79v7.14h-2.19v-8.98h2.07l.12,1.83ZM180.27,20.9l-.03,2.04c-.12-.02-.26-.04-.41-.05s-.29-.02-.43-.02c-.34,0-.63.05-.89.14s-.47.22-.63.39-.3.38-.39.63-.14.52-.15.83l-.47-.06c0-.57.06-1.1.17-1.58s.28-.91.51-1.28.5-.65.83-.85.72-.3,1.16-.3c.12,0,.25.01.39.03s.25.05.34.08Z"/>
        <path class="cls-2" d="M180.85,25.53v-.17c0-.66.09-1.26.28-1.82s.46-1.04.82-1.45.8-.73,1.32-.96,1.11-.34,1.78-.34,1.27.12,1.8.34.96.55,1.32.96.63.89.82,1.45.28,1.16.28,1.82v.17c0,.65-.09,1.26-.28,1.81s-.46,1.04-.82,1.45-.8.73-1.32.96-1.11.34-1.78.34-1.26-.11-1.78-.34-.97-.55-1.33-.96-.63-.9-.82-1.45-.28-1.16-.28-1.81ZM183.04,25.36v.17c0,.39.04.76.12,1.1s.2.64.36.9.37.46.63.61.57.22.92.22.66-.07.91-.22.46-.35.63-.61.28-.56.36-.9.12-.71.12-1.1v-.17c0-.39-.04-.75-.12-1.09s-.2-.64-.36-.9-.37-.47-.63-.62-.57-.23-.92-.23-.66.08-.91.23-.46.36-.62.62-.28.56-.36.9-.12.7-.12,1.09Z"/>
        <path class="cls-2" d="M190.49,25.55v-.17c0-.69.08-1.31.25-1.87s.41-1.04.72-1.45.69-.72,1.14-.94.95-.33,1.51-.33c.59,0,1.09.11,1.5.32s.74.52,1.01.92.48.87.63,1.41.27,1.14.35,1.8v.47c-.08.64-.2,1.22-.37,1.75s-.39.99-.67,1.39-.62.7-1.03.92-.89.32-1.44.32-1.05-.11-1.49-.34-.82-.54-1.13-.95-.55-.89-.72-1.44-.25-1.16-.25-1.81ZM196.56,20.96h1.99v8.7c0,.81-.18,1.5-.53,2.07s-.84,1-1.47,1.29-1.36.44-2.2.44c-.36,0-.75-.05-1.17-.15s-.82-.26-1.2-.47-.7-.49-.96-.83l.99-1.29c.3.35.64.61,1.01.79s.78.27,1.22.27.82-.08,1.13-.24.55-.4.72-.71.25-.7.25-1.15v-6.68l.21-2.05ZM192.68,25.38v.17c0,.39.04.75.12,1.09s.2.64.36.89.36.46.61.6.53.22.87.22c.45,0,.83-.09,1.12-.29s.51-.45.66-.79.25-.71.29-1.13v-1.3c-.03-.33-.09-.64-.18-.92s-.22-.53-.38-.73-.36-.36-.61-.48-.54-.17-.89-.17-.62.07-.87.22-.45.35-.61.61-.28.56-.36.9-.12.71-.12,1.11Z"/>
        <path class="cls-2" d="M202.7,22.79v7.14h-2.19v-8.98h2.07l.12,1.83ZM205.43,20.9l-.03,2.04c-.12-.02-.26-.04-.41-.05s-.29-.02-.43-.02c-.34,0-.63.05-.89.14s-.47.22-.63.39-.3.38-.39.63-.14.52-.15.83l-.47-.06c0-.57.06-1.1.17-1.58s.28-.91.51-1.28.5-.65.83-.85.72-.3,1.16-.3c.12,0,.25.01.39.03s.25.05.34.08Z"/>
        <path class="cls-2" d="M211.59,24.46l.02,1.3h-1.39c-.34,0-.64.04-.9.1s-.47.17-.64.3-.29.28-.37.46-.12.38-.12.61.05.42.15.6.25.32.45.42.43.15.69.15c.39,0,.72-.08,1.01-.24s.51-.35.67-.58.25-.44.26-.65l.63.95c-.08.23-.19.47-.35.72s-.35.49-.6.71-.54.4-.88.55-.74.22-1.19.22c-.58,0-1.1-.12-1.56-.35s-.82-.55-1.09-.95-.4-.86-.4-1.38c0-.48.09-.9.27-1.26s.44-.67.79-.92.78-.44,1.3-.57,1.11-.2,1.78-.2h1.48ZM211.28,28.02v-4.14c0-.3-.05-.57-.16-.79s-.27-.39-.48-.51-.49-.18-.82-.18c-.29,0-.55.05-.77.15s-.39.24-.5.42-.17.39-.17.62h-2.2c0-.37.09-.72.27-1.06s.43-.63.76-.9.72-.47,1.19-.62.98-.22,1.56-.22c.68,0,1.29.12,1.82.34s.95.57,1.26,1.03.46,1.04.46,1.73v3.92c0,.45.03.83.09,1.15s.15.59.26.82v.14h-2.23c-.11-.23-.19-.52-.24-.87s-.08-.7-.08-1.04Z"/>
        <path class="cls-2" d="M217.64,22.8v7.13h-2.19v-8.98h2.07l.12,1.84ZM217.32,25.12h-.67c0-.62.08-1.2.23-1.73s.38-.98.68-1.37.67-.69,1.11-.91.95-.32,1.53-.32c.4,0,.77.06,1.11.18s.63.3.88.56.44.58.57.98.2.88.2,1.44v5.99h-2.19v-5.76c0-.42-.06-.75-.18-.99s-.29-.4-.51-.5-.49-.15-.8-.15c-.34,0-.64.07-.88.2s-.45.32-.61.56-.27.51-.35.82-.11.64-.11,1ZM222.78,24.71l-.9.17c0-.56.08-1.09.23-1.59s.37-.93.66-1.3.65-.67,1.09-.88.94-.32,1.51-.32c.44,0,.84.06,1.2.19s.66.32.92.59.45.61.58,1.04.2.95.2,1.56v5.76h-2.21v-5.77c0-.44-.06-.77-.18-1s-.29-.39-.51-.48-.48-.14-.78-.14-.57.06-.79.17-.41.27-.56.47-.27.43-.34.69-.11.55-.11.85Z"/>
        <path class="cls-2" d="M239.13,20.96v1.58h-5.38v-1.58h5.38ZM237.31,29.93h-2.21v-9.8c0-.67.13-1.24.39-1.7s.63-.81,1.11-1.05,1.05-.36,1.7-.36c.22,0,.42.01.62.04s.39.07.58.12l-.04,1.67c-.11-.03-.22-.05-.34-.06s-.26-.02-.41-.02c-.3,0-.55.05-.76.16s-.37.26-.48.46-.16.45-.16.74v9.8Z"/>
        <path class="cls-2" d="M240.09,25.53v-.17c0-.66.09-1.26.28-1.82s.46-1.04.82-1.45.8-.73,1.32-.96,1.11-.34,1.78-.34,1.27.12,1.8.34.96.55,1.32.96.63.89.82,1.45.28,1.16.28,1.82v.17c0,.65-.09,1.26-.28,1.81s-.46,1.04-.82,1.45-.8.73-1.32.96-1.11.34-1.78.34-1.26-.11-1.78-.34-.97-.55-1.33-.96-.63-.9-.82-1.45-.28-1.16-.28-1.81ZM242.28,25.36v.17c0,.39.04.76.12,1.1s.2.64.36.9.37.46.63.61.57.22.92.22.66-.07.91-.22.46-.35.63-.61.28-.56.36-.9.12-.71.12-1.1v-.17c0-.39-.04-.75-.12-1.09s-.2-.64-.36-.9-.37-.47-.63-.62-.57-.23-.92-.23-.66.08-.91.23-.46.36-.62.62-.28.56-.36.9-.12.7-.12,1.09Z"/>
        <path class="cls-2" d="M252.28,22.79v7.14h-2.19v-8.98h2.07l.12,1.83ZM255.01,20.9l-.03,2.04c-.12-.02-.26-.04-.41-.05s-.29-.02-.43-.02c-.34,0-.63.05-.89.14s-.47.22-.63.39-.3.38-.39.63-.14.52-.15.83l-.47-.06c0-.57.06-1.1.17-1.58s.28-.91.51-1.28.5-.65.83-.85.72-.3,1.16-.3c.12,0,.25.01.39.03s.25.05.34.08Z"/>
        <path class="cls-2" d="M174.05,41.62v4.7c-.18.23-.45.47-.83.74s-.87.49-1.48.68-1.35.29-2.24.29c-.77,0-1.47-.13-2.11-.39s-1.18-.64-1.64-1.13-.81-1.11-1.06-1.82-.37-1.54-.37-2.46v-.8c0-.92.12-1.74.35-2.46s.57-1.33,1.01-1.82.97-.88,1.58-1.14,1.31-.39,2.07-.39c1.02,0,1.86.17,2.53.51s1.17.8,1.52,1.39.58,1.26.66,2.03h-2.22c-.06-.42-.18-.79-.36-1.11s-.44-.57-.78-.75-.77-.27-1.3-.27c-.45,0-.84.09-1.19.27s-.63.43-.86.77-.41.75-.53,1.25-.18,1.07-.18,1.71v.81c0,.65.07,1.22.2,1.72s.32.92.58,1.26.56.6.94.77.8.26,1.27.26c.43,0,.79-.04,1.07-.11s.51-.16.68-.27.3-.21.4-.31v-2.26h-2.4v-1.67h4.68Z"/>
        <path class="cls-2" d="M178.36,35.12v12.74h-2.2v-12.74h2.2Z"/>
        <path class="cls-2" d="M180.06,43.47v-.17c0-.66.09-1.26.28-1.82s.46-1.04.82-1.45.8-.73,1.32-.96,1.11-.34,1.78-.34,1.27.12,1.8.34.96.55,1.32.96.63.89.82,1.45.28,1.16.28,1.82v.17c0,.65-.09,1.26-.28,1.81s-.46,1.04-.82,1.45-.8.73-1.32.96-1.11.34-1.78.34-1.26-.11-1.78-.34-.97-.55-1.33-.96-.63-.9-.82-1.45-.28-1.16-.28-1.81ZM182.25,43.29v.17c0,.39.04.76.12,1.1s.2.64.36.9.37.46.63.61.57.22.92.22.66-.07.91-.22.46-.35.63-.61.28-.56.36-.9.12-.71.12-1.1v-.17c0-.39-.04-.75-.12-1.09s-.2-.64-.36-.9-.37-.47-.63-.62-.57-.23-.92-.23-.66.08-.91.23-.46.36-.62.62-.28.56-.36.9-.12.7-.12,1.09Z"/>
        <path class="cls-2" d="M190.05,35.12h2.2v10.76l-.22,1.98h-1.98v-12.74ZM198.03,43.28v.17c0,.67-.07,1.28-.22,1.84s-.37,1.04-.66,1.45-.66.72-1.09.95-.94.34-1.52.34-1.03-.11-1.44-.32-.75-.52-1.02-.92-.5-.86-.66-1.4-.29-1.13-.37-1.77v-.47c.08-.65.21-1.24.37-1.78s.39-1,.66-1.4.62-.71,1.02-.92.88-.32,1.43-.32c.59,0,1.1.11,1.54.34s.8.54,1.09.95.51.89.66,1.44.22,1.17.22,1.84ZM195.83,43.46v-.17c0-.38-.03-.74-.09-1.08s-.16-.64-.3-.9-.33-.46-.56-.61-.54-.22-.9-.22-.63.06-.88.17-.44.28-.6.48-.28.45-.36.72-.14.58-.17.9v1.29c.04.43.13.81.27,1.15s.36.61.64.81.65.3,1.11.3c.35,0,.65-.07.89-.21s.43-.34.56-.6.24-.56.29-.9.09-.72.09-1.12Z"/>
        <path class="cls-2" d="M204.87,42.4l.02,1.3h-1.39c-.34,0-.64.04-.9.1s-.47.17-.64.3-.29.28-.37.46-.12.38-.12.61.05.42.15.6.25.32.45.42.43.15.69.15c.39,0,.72-.08,1.01-.24s.51-.35.67-.58.25-.44.26-.65l.63.95c-.08.23-.19.47-.35.72s-.35.49-.6.71-.54.4-.88.55-.74.22-1.19.22c-.58,0-1.1-.12-1.56-.35s-.82-.55-1.09-.95-.4-.86-.4-1.38c0-.48.09-.9.27-1.26s.44-.67.79-.92.78-.44,1.3-.57,1.11-.2,1.78-.2h1.48ZM204.56,45.95v-4.14c0-.3-.05-.57-.16-.79s-.27-.39-.48-.51-.49-.18-.82-.18c-.29,0-.55.05-.77.15s-.39.24-.5.42-.17.39-.17.62h-2.2c0-.37.09-.72.27-1.06s.43-.63.76-.9.72-.47,1.19-.62.98-.22,1.56-.22c.68,0,1.29.12,1.82.34s.95.57,1.26,1.03.46,1.04.46,1.73v3.92c0,.45.03.83.09,1.15s.15.59.26.82v.14h-2.23c-.11-.23-.19-.52-.24-.87s-.08-.7-.08-1.04Z"/>
        <path class="cls-2" d="M211.07,35.12v12.74h-2.2v-12.74h2.2Z"/>
        <path class="cls-2" d="M226.06,35.78v1.8h-9.73v-1.8h9.73ZM222.31,35.78v12.08h-2.27v-12.08h2.27Z"/>
        <path class="cls-2" d="M227.38,36.54c0-.33.11-.6.34-.81s.53-.32.91-.32.68.11.91.32.34.49.34.81-.11.59-.34.8-.53.32-.91.32-.68-.11-.91-.32-.34-.48-.34-.8ZM229.73,38.89v8.98h-2.2v-8.98h2.2Z"/>
        <path class="cls-2" d="M234,40.73v7.13h-2.19v-8.98h2.07l.12,1.84ZM233.68,43.05h-.67c0-.62.08-1.2.23-1.73s.38-.98.68-1.37.67-.69,1.11-.91.95-.32,1.53-.32c.4,0,.77.06,1.11.18s.63.3.88.56.44.58.57.98.2.88.2,1.44v5.99h-2.19v-5.76c0-.42-.06-.75-.18-.99s-.29-.4-.51-.5-.49-.15-.8-.15c-.34,0-.64.07-.88.2s-.45.32-.61.56-.27.51-.35.82-.11.64-.11,1ZM239.14,42.64l-.9.17c0-.56.08-1.09.23-1.59s.37-.93.66-1.3.65-.67,1.09-.88.94-.32,1.51-.32c.44,0,.84.06,1.2.19s.66.32.92.59.45.61.58,1.04.2.95.2,1.56v5.76h-2.21v-5.77c0-.44-.06-.77-.18-1s-.29-.39-.51-.48-.48-.14-.78-.14-.57.06-.79.17-.41.27-.56.47-.27.43-.34.69-.11.55-.11.85Z"/>
        <path class="cls-2" d="M250.61,48.03c-.68,0-1.29-.11-1.83-.33s-1-.53-1.38-.92-.67-.86-.87-1.39-.3-1.1-.3-1.71v-.33c0-.69.1-1.32.3-1.89s.48-1.06.85-1.46.8-.72,1.31-.95,1.07-.33,1.68-.33,1.2.11,1.68.32.89.51,1.22.9.57.85.74,1.39.25,1.13.25,1.79v.92h-7.03v-1.51h4.88v-.17c-.01-.35-.08-.67-.2-.96s-.31-.52-.56-.7-.58-.26-.99-.26c-.33,0-.61.07-.85.21s-.44.34-.6.6-.28.56-.35.92-.12.75-.12,1.18v.33c0,.38.05.72.15,1.05s.25.6.46.83.45.42.73.55.61.19.97.19c.46,0,.88-.09,1.25-.27s.7-.45.97-.8l1.1,1.14c-.19.28-.44.54-.76.8s-.7.46-1.15.62-.96.24-1.55.24Z"/>
        <path class="cls-2" d="M171.69,61.82h2.28c-.06.81-.28,1.52-.67,2.14s-.93,1.11-1.62,1.46-1.53.53-2.51.53c-.76,0-1.44-.13-2.04-.4s-1.12-.65-1.55-1.15-.76-1.1-.98-1.81-.34-1.5-.34-2.38v-.92c0-.88.12-1.67.35-2.38s.57-1.31,1-1.81.96-.89,1.57-1.16,1.3-.41,2.05-.41c.98,0,1.82.18,2.5.54s1.21.86,1.58,1.49.6,1.35.68,2.17h-2.28c-.04-.51-.15-.94-.33-1.29s-.43-.62-.78-.81-.8-.28-1.37-.28c-.44,0-.83.08-1.17.25s-.61.41-.83.74-.39.74-.5,1.23-.17,1.05-.17,1.7v.94c0,.61.05,1.16.15,1.65s.25.9.46,1.24.48.59.81.77.73.27,1.19.27c.56,0,1.01-.09,1.36-.27s.62-.44.8-.78.3-.77.35-1.28Z"/>
        <path class="cls-2" d="M175.17,61.4v-.17c0-.66.09-1.26.28-1.82s.46-1.04.82-1.45.8-.73,1.32-.96,1.11-.34,1.78-.34,1.27.12,1.8.34.96.55,1.32.96.63.89.82,1.45.28,1.16.28,1.82v.17c0,.65-.09,1.26-.28,1.81s-.46,1.04-.82,1.45-.8.73-1.32.96-1.11.34-1.78.34-1.26-.11-1.78-.34-.97-.55-1.33-.96-.63-.9-.82-1.45-.28-1.16-.28-1.81ZM177.36,61.22v.17c0,.39.04.76.12,1.1s.2.64.36.9.37.46.63.61.57.22.92.22.66-.07.91-.22.46-.35.63-.61.28-.56.36-.9.12-.71.12-1.1v-.17c0-.39-.04-.75-.12-1.09s-.2-.64-.36-.9-.37-.47-.63-.62-.57-.23-.92-.23-.66.08-.91.23-.46.36-.62.62-.28.56-.36.9-.12.7-.12,1.09Z"/>
        <path class="cls-2" d="M184.79,61.4v-.17c0-.66.09-1.26.28-1.82s.46-1.04.82-1.45.8-.73,1.32-.96,1.11-.34,1.78-.34,1.27.12,1.8.34.96.55,1.32.96.63.89.82,1.45.28,1.16.28,1.82v.17c0,.65-.09,1.26-.28,1.81s-.46,1.04-.82,1.45-.8.73-1.32.96-1.11.34-1.78.34-1.26-.11-1.78-.34-.97-.55-1.33-.96-.63-.9-.82-1.45-.28-1.16-.28-1.81ZM186.98,61.22v.17c0,.39.04.76.12,1.1s.2.64.36.9.37.46.63.61.57.22.92.22.66-.07.91-.22.46-.35.63-.61.28-.56.36-.9.12-.71.12-1.1v-.17c0-.39-.04-.75-.12-1.09s-.2-.64-.36-.9-.37-.47-.63-.62-.57-.23-.92-.23-.66.08-.91.23-.46.36-.62.62-.28.56-.36.9-.12.7-.12,1.09Z"/>
        <path class="cls-2" d="M196.98,58.65v7.14h-2.19v-8.98h2.07l.12,1.83ZM199.71,56.76l-.03,2.04c-.12-.02-.26-.04-.41-.05s-.29-.02-.43-.02c-.34,0-.63.05-.89.14s-.47.22-.63.39-.3.38-.39.63-.14.52-.15.83l-.47-.06c0-.57.06-1.1.17-1.58s.28-.91.51-1.28.5-.65.83-.85.72-.3,1.16-.3c.12,0,.25.01.39.03s.25.05.34.08Z"/>
        <path class="cls-2" d="M200.36,61.41v-.17c0-.69.08-1.31.24-1.87s.39-1.04.69-1.45.67-.72,1.11-.94.93-.33,1.48-.33,1.01.11,1.41.32.74.52,1.03.92.51.87.68,1.41.3,1.14.37,1.8v.47c-.08.64-.2,1.22-.37,1.75s-.4.99-.68,1.39-.63.7-1.03.92-.88.32-1.42.32-1.04-.11-1.47-.34-.8-.54-1.1-.95-.53-.89-.69-1.44-.24-1.16-.24-1.81ZM202.56,61.24v.17c0,.39.03.75.1,1.09s.17.64.32.89.34.46.58.6.52.22.86.22c.43,0,.79-.09,1.07-.29s.5-.45.65-.79.25-.71.3-1.13v-1.3c-.02-.33-.08-.64-.17-.92s-.22-.53-.38-.73-.36-.36-.6-.48-.52-.17-.85-.17-.62.07-.86.22-.43.35-.58.61-.26.56-.33.9-.1.71-.1,1.11ZM206.13,63.89v-10.83h2.21v12.74h-1.99l-.22-1.91Z"/>
        <path class="cls-2" d="M210.29,54.47c0-.33.11-.6.34-.81s.53-.32.91-.32.68.11.91.32.34.49.34.81-.11.59-.34.8-.53.32-.91.32-.68-.11-.91-.32-.34-.48-.34-.8ZM212.63,56.82v8.98h-2.2v-8.98h2.2Z"/>
        <path class="cls-2" d="M216.87,58.73v7.06h-2.19v-8.98h2.06l.13,1.92ZM216.52,60.98h-.65c0-.65.09-1.24.27-1.78s.41-.99.73-1.37.68-.67,1.12-.88.91-.31,1.44-.31c.43,0,.82.06,1.17.18s.65.32.9.58.45.61.58,1.04.2.95.2,1.58v5.76h-2.21v-5.77c0-.41-.06-.73-.18-.97s-.29-.41-.51-.51-.5-.15-.83-.15-.63.07-.88.2-.46.32-.63.56-.3.51-.39.82-.13.64-.13,1Z"/>
        <path class="cls-2" d="M229.46,60.33l.02,1.3h-1.39c-.34,0-.64.04-.9.1s-.47.17-.64.3-.29.28-.37.46-.12.38-.12.61.05.42.15.6.25.32.45.42.43.15.69.15c.39,0,.72-.08,1.01-.24s.51-.35.67-.58.25-.44.26-.65l.63.95c-.08.23-.19.47-.35.72s-.35.49-.6.71-.54.4-.88.55-.74.22-1.19.22c-.58,0-1.1-.12-1.56-.35s-.82-.55-1.09-.95-.4-.86-.4-1.38c0-.48.09-.9.27-1.26s.44-.67.79-.92.78-.44,1.3-.57,1.11-.2,1.78-.2h1.48ZM229.16,63.89v-4.14c0-.3-.05-.57-.16-.79s-.27-.39-.48-.51-.49-.18-.82-.18c-.29,0-.55.05-.77.15s-.39.24-.5.42-.17.39-.17.62h-2.2c0-.37.09-.72.27-1.06s.43-.63.76-.9.72-.47,1.19-.62.98-.22,1.56-.22c.68,0,1.29.12,1.82.34s.95.57,1.26,1.03.46,1.04.46,1.73v3.92c0,.45.03.83.09,1.15s.15.59.26.82v.14h-2.23c-.11-.23-.19-.52-.24-.87s-.08-.7-.08-1.04Z"/>
        <path class="cls-2" d="M237.58,56.82v1.58h-5.14v-1.58h5.14ZM233.82,54.61h2.2v8.59c0,.27.04.47.11.61s.18.24.32.29.32.07.51.07c.14,0,.28,0,.4-.02s.22-.03.31-.05v1.64c-.17.06-.38.11-.61.15s-.49.06-.78.06c-.49,0-.92-.08-1.29-.25s-.66-.44-.86-.82-.31-.88-.31-1.51v-8.77Z"/>
        <path class="cls-2" d="M239.02,54.47c0-.33.11-.6.34-.81s.53-.32.91-.32.68.11.91.32.34.49.34.81-.11.59-.34.8-.53.32-.91.32-.68-.11-.91-.32-.34-.48-.34-.8ZM241.37,56.82v8.98h-2.2v-8.98h2.2Z"/>
        <path class="cls-2" d="M243.07,61.4v-.17c0-.66.09-1.26.28-1.82s.46-1.04.82-1.45.8-.73,1.32-.96,1.11-.34,1.78-.34,1.27.12,1.8.34.96.55,1.32.96.63.89.82,1.45.28,1.16.28,1.82v.17c0,.65-.09,1.26-.28,1.81s-.46,1.04-.82,1.45-.8.73-1.32.96-1.11.34-1.78.34-1.26-.11-1.78-.34-.97-.55-1.33-.96-.63-.9-.82-1.45-.28-1.16-.28-1.81ZM245.26,61.22v.17c0,.39.04.76.12,1.1s.2.64.36.9.37.46.63.61.57.22.92.22.66-.07.91-.22.46-.35.63-.61.28-.56.36-.9.12-.71.12-1.1v-.17c0-.39-.04-.75-.12-1.09s-.2-.64-.36-.9-.37-.47-.63-.62-.57-.23-.92-.23-.66.08-.91.23-.46.36-.62.62-.28.56-.36.9-.12.7-.12,1.09Z"/>
        <path class="cls-2" d="M255.22,58.73v7.06h-2.19v-8.98h2.06l.13,1.92ZM254.87,60.98h-.65c0-.65.09-1.24.27-1.78s.41-.99.73-1.37.68-.67,1.12-.88.91-.31,1.44-.31c.43,0,.82.06,1.17.18s.65.32.9.58.45.61.58,1.04.2.95.2,1.58v5.76h-2.21v-5.77c0-.41-.06-.73-.18-.97s-.29-.41-.51-.51-.5-.15-.83-.15-.63.07-.88.2-.46.32-.63.56-.3.51-.39.82-.13.64-.13,1Z"/>
      </g>
      <g>
        <path id="path927" class="cls-2" d="M63.88,23.93h3.36v10.66c0,1.88-.57,3.32-1.75,4.28-2.65,1.97-6.27,1.97-8.92,0-1.18-.96-1.75-2.4-1.75-4.28v-10.66h3.36v10.66c0,1.09.26,1.84.79,2.32,1.23.96,2.96.96,4.2,0,.52-.48.74-1.27.74-2.32l-.03-10.66ZM74.63,30.44c-.84-.04-1.64.4-2.04,1.14v8.52h-3.25v-12.02h3.02l.09,1.36c.83-1.05,2.11-1.65,3.45-1.62,1.02-.05,2.01.31,2.75,1.01.7.7,1.05,1.88,1.05,3.58v7.65h-3.23v-7.61c0-.79-.18-1.31-.48-1.57-.37-.32-.86-.48-1.35-.44h0ZM81.89,24.98c0-.44.17-.86.48-1.18.77-.61,1.86-.61,2.62,0,.33.3.5.73.48,1.18,0,.44-.17.86-.48,1.18-.77.61-1.86.61-2.62,0-.31-.31-.48-.74-.48-1.18ZM85.34,28.08v12.02h-3.23v-12.02h3.23ZM93.69,40.05c-.62.21-1.27.31-1.92.3-.92.04-1.82-.26-2.53-.83-.61-.53-.92-1.44-.92-2.75v-6.34h-1.79v-2.36h1.79v-2.97h3.23v2.97h2.06v2.36h-2.06v6.03c-.06.36.06.73.31,1.01.27.17.59.26.92.26.18,0,.35,0,.52-.04.18,0,.31-.04.39-.04v2.4ZM105.31,38.17c-.46.62-1.06,1.13-1.75,1.49-.91.47-1.91.71-2.93.7-1.88,0-3.36-.57-4.41-1.7-1.05-1.11-1.61-2.58-1.57-4.11v-.44c-.08-1.63.47-3.22,1.53-4.46,1.03-1.18,2.54-1.83,4.11-1.75,1.75,0,3.07.52,3.93,1.62.87,1.09,1.35,2.53,1.35,4.28v1.36h-7.65c.08.71.4,1.38.92,1.88.55.49,1.27.74,2.01.7,1.13.06,2.21-.45,2.88-1.36l1.57,1.79ZM100.24,30.44c-.61-.04-1.2.22-1.57.7-.4.52-.65,1.14-.74,1.79h4.47v-.26c0-.58-.18-1.15-.53-1.62-.42-.44-1.02-.67-1.63-.61h0ZM114.53,40.14l-.18-1.27c-.35.45-.8.83-1.31,1.09-1.83.85-4.02.28-5.2-1.36-.87-1.28-1.3-2.82-1.23-4.37v-.22c0-1.84.39-3.32,1.23-4.46.8-1.13,2.12-1.77,3.5-1.7,1.12-.05,2.19.44,2.88,1.31v-6.12h3.23v17.09h-2.93ZM109.81,34.24c-.05.85.14,1.7.53,2.45.34.67,1.05,1.07,1.79,1.01.88.04,1.7-.44,2.1-1.23v-4.76c-.37-.81-1.2-1.32-2.1-1.27-.75-.05-1.46.37-1.79,1.05-.39.79-.57,1.66-.53,2.53v.21ZM68.12,43.29v16.21h-3.32l-6.51-10.71v10.71h-3.36v-16.21h3.36l6.51,10.71v-10.71h3.32ZM77.52,59.5c-.17-.34-.27-.71-.31-1.09-.34.39-.76.7-1.23.92-1.56.69-3.38.46-4.72-.61-.77-.64-1.2-1.59-1.18-2.58-.05-1.15.48-2.24,1.4-2.93.92-.7,2.32-1.05,4.15-1.05h1.44v-.7c.03-.49-.13-.97-.44-1.36-.36-.35-.85-.53-1.36-.48-1.14,0-1.7.48-1.7,1.44h-3.23c.02-1.07.54-2.07,1.4-2.7,1.08-.78,2.39-1.18,3.72-1.14,1.24-.05,2.45.32,3.45,1.05.92.7,1.36,1.75,1.36,3.19v5.07c0,.56.04,1.11.13,1.66.07.38.19.74.35,1.09v.22h-3.23ZM74.86,57.27c.49,0,.97-.13,1.4-.35.34-.19.62-.46.83-.79v-2.1h-1.31c-.67-.05-1.33.14-1.88.53-.38.33-.6.81-.61,1.31-.01.37.13.74.39,1,.34.25.75.39,1.18.39h0ZM88.54,59.41c-.29.09-.58.17-.87.22-.35.05-.7.08-1.05.09-.92.03-1.82-.26-2.53-.83-.61-.53-.92-1.44-.92-2.75v-6.34h-1.8v-2.35h1.79v-2.97h3.23v2.97h2.04v2.35h-2.04v6.03c-.06.36.06.73.31,1.01.28.17.59.26.92.26.18,0,.35,0,.52-.04.18,0,.31-.04.39-.04v2.41ZM89.9,44.34c0-.44.17-.86.48-1.18.77-.61,1.86-.61,2.62,0,.65.67.65,1.74,0,2.4-.77.61-1.85.61-2.62,0-.34-.31-.52-.76-.49-1.22h.01ZM93.3,47.44v12.06h-3.24v-12.06h3.24ZM95.14,53.6v-.22c-.04-1.59.48-3.14,1.49-4.37,1.01-1.18,2.4-1.75,4.2-1.75s3.23.57,4.24,1.75c1,1.23,1.53,2.78,1.49,4.37v.22c.04,1.59-.49,3.14-1.5,4.37-1.01,1.18-2.4,1.75-4.2,1.75s-3.23-.57-4.24-1.75c-1-1.23-1.53-2.78-1.49-4.37h.01ZM98.38,53.34v.22c-.04.87.16,1.73.57,2.49.7,1.06,2.13,1.36,3.19.66.26-.17.48-.4.66-.66.38-.77.58-1.63.57-2.49v-.22c.03-.87-.16-1.72-.57-2.49-.37-.7-1.13-1.12-1.92-1.05-.79-.05-1.54.36-1.92,1.05-.4.77-.6,1.62-.57,2.49h0ZM113.43,49.84c-.85-.04-1.65.42-2.04,1.18v8.48h-3.24v-12.06h3.01l.13,1.4c.83-1.06,2.11-1.66,3.45-1.62,1.03-.06,2.04.31,2.8,1.01.7.7,1.05,1.88,1.05,3.58v7.69h-3.23v-7.69c0-.79-.18-1.31-.48-1.57-.42-.29-.93-.43-1.44-.39h0ZM127.25,56.13c0-.36-.18-.69-.48-.87-.61-.34-1.28-.56-1.97-.66-1.09-.2-2.13-.62-3.07-1.23-.8-.53-1.26-1.44-1.23-2.4.01-1.02.48-1.98,1.27-2.62.87-.74,2.01-1.14,3.54-1.14s2.8.35,3.71,1.09c.87.67,1.38,1.71,1.37,2.81h-3.23c.02-.42-.14-.83-.44-1.14-.39-.32-.89-.47-1.4-.44-.45-.03-.9.09-1.27.35-.27.23-.43.56-.44.92,0,.36.18.69.48.87.54.3,1.13.49,1.75.57,1.14.22,2.23.61,3.24,1.18.87.53,1.31,1.4,1.31,2.58,0,1.04-.51,2.01-1.36,2.62-.92.7-2.14,1.05-3.71,1.05-1.66,0-2.97-.44-3.85-1.31-.82-.69-1.31-1.69-1.36-2.75h3.07c0,.54.26,1.04.7,1.36.46.29.99.42,1.53.39,1.18.09,1.84-.35,1.84-1.23h-.01Z"/>
        <path id="path929" class="cls-2" d="M37.75,57.79c-1.26.62-2.69.79-4.07.48-.93-.21-1.84-.52-2.71-.92l-1.92-.78c-1.67-.52-3.46-.57-5.16-.13h-.18c-1.69-.48-3.49-.43-5.16.13-.65.22-1.27.52-1.92.78-.87.4-1.78.73-2.71.96-1.37.3-2.8.13-4.06-.48l-.18-.09s-.04,0-.04.04c.84.87,1.9,1.49,3.07,1.79.78.21,1.6.27,2.4.17,1.22-.17,2.39-.61,3.41-1.31l1.84-1.23c.69-.44,1.52-.6,2.31-.43.44.04.09.26.04.3-1.1.53-2.14,1.17-3.11,1.92-.66.48-1.84,1.62-1.84,1.62l.87.74.96-1.05c1.18-1.23,2.54-2.27,4.02-3.1.12-.09.28-.09.39,0,1.48.83,2.84,1.88,4.02,3.1l.96,1.05.87-.74-1.84-1.62c-.96-.75-2-1.39-3.1-1.92-.09-.04-.39-.26.04-.3.8-.16,1.63,0,2.32.44l1.84,1.23c1.02.7,2.18,1.14,3.41,1.31.8.1,1.62.04,2.4-.17,1.15-.34,2.2-.96,3.07-1.79-.02-.02-.05-.04-.09-.04l-.17.04M42.04,53.99c-.55.42-1.18.75-1.84.96-.94.28-1.91.42-2.88.44-1.26.04-2.51.14-3.76.31-.09,0-.13,0-.09-.04,1.09-.45,1.97-1.29,2.45-2.36l1.23-2.49v-.09c-.09.04-1.31,1.09-1.88,1.62l-2.04,2.01c-.92.79-2.01,1.36-3.19,1.66h-.04l-.04.04,2.34.57c1.01.3,2.05.49,3.1.57,2.65.26,5.23-.95,6.73-3.15,0-.04-.04-.04-.09-.04M45.88,48.14c-.62.75-1.36,1.4-2.18,1.92-.7.48-1.45.89-2.23,1.23-.99.4-1.92.95-2.75,1.62l-.17.13s-.04,0-.04-.04,1.31-1.35,1.7-4.11c.06-.99.2-1.97.44-2.93v-.09c-.91,1.12-1.62,2.4-2.1,3.76l-.79,2.23c-.32,1-.87,1.92-1.62,2.66l-.09.09v.04c.09,0,.17-.04.26-.04l2.53-.52c1.39-.22,2.71-.78,3.85-1.62,1.16-.84,2.11-1.95,2.75-3.23.16-.34.31-.69.44-1.05.09-.09.04-.09,0-.04M47.54,41.58c-.4,1.2-1.09,2.28-2.01,3.15-1.04,1.02-2.01,2.11-2.88,3.27,0,.04-.09,0-.04-.04.35-1.21.44-2.47.26-3.72-.17-1.05-.61-2.18-.74-3.45l-.04-.04s-.04.09-.04.13c-.26.82-.44,1.67-.52,2.53-.04,1.05.13,2.4.04,3.45-.09,1.23-.18,2.49-.74,3.58v.09l2.62-1.62c1.08-.68,2.02-1.57,2.76-2.61.95-1.34,1.45-2.95,1.43-4.59v-.18s-.06.02-.09.04"/>
        <path id="path931" class="cls-2" d="M44.74,42.28h0c0-.35,0-.7-.04-1.05-.09-1.23-.83-2.23-1.49-3.27-.44-.67-.84-1.37-1.18-2.1-.02-.02-.05-.04-.09-.04,0,.23.01.47.04.7.22,1.77.66,3.5,1.31,5.16.38,1.03.53,2.13.44,3.23q0,.09.04.13c.39-.57,1.18-1.36,1.66-1.97s3.1-3.58,1.84-7.69c-.05-.18-.13-.36-.22-.53l-.04.04c0,2.97-1.44,4.24-2.01,6.25-.11.37-.2.75-.26,1.14M44.79,36.16l-.26-.7-.18-.39c-.44-.8-1.05-1.48-1.79-2.01-.6-.51-1.13-1.1-1.57-1.75h-.13c.04.13.44,1.44.7,2.05.43.84.96,1.64,1.57,2.36l.13.17c.74.99,1.31,2.1,1.7,3.27,0,.02.02.04.04.04h0l.74-2.27c.26-.8.48-1.62.65-2.45.26-1.97-.35-4.46-1.49-5.86-.02.02-.04.05-.04.09l.04.17.09.26c.23,1.06.25,2.16.04,3.23-.16.85-.23,1.71-.22,2.58,0,.13.09,1.23.09,1.27s-.04,0-.09,0M41.28,25.19c.36.34.65.76.83,1.23.31.74.39,1.84.61,2.66l.39,1.44s-.04.09-.09.04c-.66-.79-1.46-1.45-2.36-1.96-.59-.36-1.1-.82-1.53-1.36l-.22-.31s-.06-.02-.09,0c0,0,0,0,0,0v.13c.21.98.68,1.89,1.36,2.62.57.53,1.18,1.01,1.75,1.49.75.64,1.46,1.34,2.1,2.1,0,0,.04.04.04,0v-.7l.04-2.1v-.7c0-.72-.13-1.43-.39-2.1-.44-1.07-1.24-1.96-2.27-2.49-.04-.04-.13-.04-.22-.09,0,.03.02.07.04.09M36.79,23.15c.61.58,1.15,1.22,1.62,1.92.42.69.94,1.32,1.53,1.88.39.39,1.57,1.31,1.88,1.57-.04-.35-.61-2.84-2.14-4.07-.89-.71-1.92-1.21-3.02-1.49v.09l.13.09M12.32,57.18c1.02-.08,2.03-.27,3.01-.57l2.36-.57h.04s-.02-.04-.04-.04h-.04c-1.19-.31-2.29-.88-3.23-1.66l-2.04-1.97-1.88-1.62v.09c.17.26.83,1.7,1.23,2.49.47,1.08,1.36,1.93,2.45,2.36.04.04,0,.04-.09.04-1.25-.17-2.5-.27-3.76-.3-.98-.01-1.95-.16-2.88-.44-.66-.21-1.29-.54-1.84-.96h-.09c.87,1.23,2.08,2.17,3.48,2.71,1.07.34,2.2.49,3.32.44M11.31,54.6c.09,0,.13.04.26.04v-.04l-.09-.09c-.73-.75-1.29-1.66-1.62-2.66l-.79-2.23c-.48-1.36-1.19-2.63-2.1-3.76v.09c.25.96.41,1.94.48,2.93.39,2.71,1.7,4.02,1.7,4.06s0,.09-.04.04l-.17-.13c-.83-.67-1.76-1.22-2.75-1.62-.78-.34-1.53-.75-2.23-1.23-.83-.52-1.56-1.17-2.18-1.92h-.04c.13.36.27.71.44,1.05.66,1.29,1.62,2.39,2.8,3.23,1.11.87,2.44,1.43,3.84,1.62.83.22,1.66.44,2.49.61M4.27,48.93l2.62,1.62s.04-.05.04-.09c-.57-1.14-.66-2.36-.74-3.58-.09-1.09.09-2.4.04-3.45-.08-.88-.26-1.74-.52-2.59,0-.04-.04-.09-.04-.13l-.04.04h0c-.09,1.27-.57,2.4-.74,3.45-.17,1.24-.08,2.51.26,3.71.04.04-.04.09-.04.04-.87-1.17-1.83-2.26-2.88-3.27-.91-.85-1.6-1.92-2.01-3.1-.02-.02-.05-.04-.09-.04-.04,0,0,.09,0,.18,0,1.64.5,3.24,1.44,4.59.72,1.04,1.64,1.93,2.71,2.62M3.8,45.09s.04-.04.04-.13c-.11-1.1.06-2.21.48-3.23.62-1.67,1.06-3.4,1.31-5.16,0-.22.04-.61.04-.7t-.04.04c-.34.73-.74,1.43-1.18,2.1-.7.96-1.4,2.01-1.49,3.23-.04.35-.04.7,0,1.05,0,.02-.02.04-.04.04h0v-.04l-.31-1.05c-.61-2.01-2.01-3.27-2.01-6.25l-.04-.04c-.09.17-.13.35-.22.52-1.27,4.11,1.31,7.08,1.84,7.69.53.61,1.23,1.35,1.62,1.92M1.96,36.91l.74,2.27s.04-.02.04-.04h0c.41-1.17.98-2.27,1.7-3.27l.13-.18c.6-.73,1.13-1.52,1.57-2.36.26-.61.66-1.92.7-2.05h-.13c-.44.65-.97,1.24-1.57,1.75-.77.53-1.4,1.24-1.84,2.05-.04.13-.13.26-.17.39l-.26.74s-.04.09-.04,0,.09-1.09.09-1.27c0-.87-.09-1.74-.27-2.59-.2-1.07-.19-2.17.04-3.23,0-.09.04-.18.09-.26,0-.04.04-.13.04-.18s0-.04-.04-.09c-1.14,1.4-1.79,3.93-1.53,5.86.22.83.44,1.66.7,2.45M3.53,30.53l.04,2.1v.65h.04c.62-.78,1.3-1.49,2.05-2.14l1.75-1.49c.68-.74,1.16-1.65,1.37-2.63v-.13h-.04l-.22.3c-.41.54-.91,1-1.49,1.36-1.05.66-1.75,1.14-2.36,1.97-.04.04-.09.04-.04-.04l.39-1.44c.22-.83.31-1.92.61-2.66.19-.46.47-.88.83-1.23v-.1c-.09,0-.13.04-.22.09-1.05.54-1.87,1.44-2.32,2.53-.29.66-.42,1.38-.39,2.1v.74M5.86,28.47h0l1.9-1.57c.58-.57,1.09-1.2,1.53-1.88.45-.71,1-1.35,1.62-1.92l.13-.13v-.09c-1.11.25-2.14.76-3.01,1.49-1.62,1.27-2.14,3.76-2.18,4.11M23.42,42.03c.13-.18-.18-.31-.26,0-.09.31.13.22.26,0M26.74,34.33c-.13-.04-.61.52-.53.61.23-.15.41-.36.53-.61M26.83,34.25c.09.04.39-.13.35-.18s-.44-.22-.44-.13c-.01.11.02.22.09.31M32.73,39.67c.18-.04.13-.31,0-.31s-.31.22-.26.22.17.13.26.09M30.58,33.85c-.13,0-.17.13-.04.22.1.03.22.02.31-.04.1-.05.17-.15.17-.26,0-.13-.17-.31-.09-.39.09-.09.22.04.31,0,.08-.04.13-.13.13-.22,0-.09-.04-.35-.22-.35s-.35.35-.35.35c-.04.1-.04.21,0,.31.04.17,0,.39-.22.39"/>
        <path id="path933" class="cls-2" d="M33.47,33.89c.07.27.16.53.26.79.04.13.09.61.17.57s.09-.31.04-.44c-.05-.31-.12-.62-.22-.92-.04-.18-.35-.83-.44-.79-.09.04.13.44.17.61.04.18-.04.09,0,.18M31.94,26.46c.13.04.13-.22-.09-.39-.22-.17-.57-.09-.48,0,.17.15.36.29.57.39M25.38,24.59c-.31-.18-.04-.44-.26-.61-.24-.09-.51-.04-.7.13-.22.26.26.18.39.26s.57.39.61.35c.03-.04.02-.09-.02-.12,0,0-.02-.01-.03-.01M27.13,23.71c-.39-.18-1.84-.18-1.79.22.05.39.83,0,1.05,0s1.09-.04.74-.22M23.15,40.58c-.09-.04-.22.04-.26-.04-.04-.09-.13-.04-.13,0-.03.08,0,.16.04.22.1.09.25.09.35,0,.05-.05.05-.13,0-.18M22.32,37.65c.13,0,.13-.09.18-.09s0,.09.13.09.26-.31-.13-.31c-.31,0-.26.31-.18.31M22.85,38c-.22-.04-.18.09-.35.09-.26.04-.04-.17-.13-.26-.04-.04-.18.18-.22.31,0,.09,0,.26.09.3l.83.09c.17,0,0-.48-.22-.52M20.14,40.84c.09,0,.13-.26.09-.39s-.31-.04-.31.04c.04.14.11.26.22.35M16.64,40.84c0-.09,0-.44-.09-.52s-.09.04-.13.04-.04-.17-.09-.17,0,.26.09.44c.09.17.22.44.22.22M16.56,40.05c.09-.25.13-.52.13-.79.01-.15-.05-.3-.17-.39-.04,0,0,.13.04.35-.02.22-.07.44-.13.66,0,.04.09.26.13.18"/>
        <path id="path935" class="cls-2" d="M12.1,49.84c6.49,6.49,17.02,6.5,23.51,0,6.49-6.49,6.5-17.02,0-23.51-6.49-6.49-17.02-6.5-23.51,0,0,0,0,0,0,0-6.49,6.47-6.51,16.97-.04,23.46.01.01.03.03.04.04M7.95,38.43h2.53c.04,1.29.26,2.57.66,3.8-.14-.04-.27-.1-.39-.18-.17-.09-.3.04-.35.04-.17,0-.39-.13-.39,0s.17.04.17.13-.44.09-.48-.09c-.04-.17-.13-.35-.17-.13-.04.22-.22.17-.31.22-.05.06-.09.14-.09.22,0,.09-.22.04-.22.18s.13.18.18.31c.04.13.17.22.09.26s-.04-.04-.13,0c-.09.04.39,1.36.48,1.31s-.13-.44-.13-.61c-.02-.13.06-.25.18-.31.13-.09.48.53.61.44s-.04-.17.09-.22c.13-.04.53.57.66.39.09-.13.17.09.17.13.13.22.35.22.48.48.13.26.44.74.66.74s.09-.22.18-.22.17.3.3.48c.09.13.23.23.39.26.3.39.66.79,1.01,1.18l-1.79,1.79c-2.78-2.84-4.34-6.65-4.37-10.63M22.41,34.79l-.18.09c-.24.11-.46.26-.65.44l-1.79-1.79c1.03-.91,2.34-1.45,3.71-1.51v2.53c-.31.03-.62.11-.92.22.07-.13.16-.25.26-.35-.17.1-.32.23-.44.39M21.05,38.96h0v.09c0-.09-.04-.13-.09-.22-.04-.04-.09-.09-.13-.09h-.21l-.09.04h-.61c-.09,0-.13,0-.13-.04-.04-.17.22-.04.39-.57.04-.04.04-.13.09-.17l.04-.09.04-.04.04-.04c.07-.07.17-.1.26-.09h.09l.09.09.13.26s.09.04.09.09c.07.03.13.08.18.13l.04.04v.04s.04.04.09.04h.17c.09-.04.09,0,.13,0v.04s0,.04-.04.09c0,.04-.04.04-.04.09-.04.04-.09.09-.13.09-.07,0-.15-.02-.22-.04-.04,0-.09,0-.09.04v.22M16.35,43.16c-.12-.24-.18-.51-.17-.79,0-.27-.09-.53-.24-.75-.05-.17-.08-.35-.09-.52,0-.31-.26-.22-.26-.31s.22,0,.22-.09c-.1-.22-.27-.4-.48-.51-.22-.09-.13-.22-.13-.35.02-.12-.01-.25-.09-.35-.04-.18,0-.48.22-.48.09,0,.22.09.35,0,.13-.09.04-.35.04-.57h1.23c0,.18.04.39.04.57-.09.04-.13.13-.09.18s.09.09.13.04c.22,1.27.79,2.46,1.66,3.42l-1.79,1.79c-.14-.15-.27-.31-.39-.48v-.13c0-.3-.22-.48-.31-.74M14.63,40.1c-.12-.55-.19-1.1-.22-1.66h1.05c-.09.13-.3.26-.35.39s-.3.57-.13.74c.39.44-.09.61-.35.53M14.85,46.57l-.22.22-.31-.3c.18-.08.38-.05.53.09M17.56,35.33s-.04.04-.09.04c-.13.13-.48.09-.44.22.04.13.96-.31.96-.22s-.39.22-.66.35c-.26.13-.35.35-.79.35-.22,0-.31.17-.39.3-.12.17-.22.34-.31.53,0,.27-.06.54-.18.79h-1.27c.09-2.24.97-4.38,2.49-6.03l1.79,1.79c-.44.59-.82,1.22-1.14,1.88M19.22,34.02l1.57,1.57h-.18c-.17,0-.17-.13-.3-.13-.26.04-.31.13-.35.09-.19-.18-.42-.33-.66-.44-.29-.09-.6-.08-.87.04-.04,0-.04.04-.09.04.3-.39.61-.79.87-1.18M17.04,37.21c0,.17-.04.35-.04.52h-.92c-.04-.14,0-.28.09-.39.11-.18.32-.27.52-.22.12.01.24.04.35.09M17.82,39.26l.09.13c.09.09.17.17.26.13.12-.02.23-.02.35,0,.12.05.22.12.31.22.09.13.26.04.39.13s.26.18.09.26c-.17.09.17.26.22.26s.09-.09.09-.22c0-.04.09-.22.22-.18.13.04.52.53.65.35s.04-.39.09-.48c0-.05.04-.08.09-.09.11.21.24.4.39.57l-1.79,1.79c-.76-.8-1.26-1.8-1.44-2.88M19.22,33.01l-1.75-1.79c1.65-1.52,3.79-2.4,6.03-2.48v2.53c-1.59.05-3.12.67-4.29,1.75M16.94,30.71l-1.79-1.79c2.27-2.14,5.24-3.37,8.36-3.46v2.53c-2.44.08-4.77,1.04-6.56,2.71M16.42,31.18c-1.66,1.79-2.62,4.11-2.71,6.55h-2.53c.09-3.11,1.32-6.08,3.45-8.35l1.79,1.79ZM13.71,38.43c0,.47.04.94.13,1.4-.04,0-.04-.13-.17-.09-.13.04-.61.87-.83,1.23-.18.3.09.96-.18,1.18-.25.09-.52.13-.79.13h-.04c-.43-1.21-.66-2.48-.7-3.76l2.58-.09ZM23.46,53.99c-3.97-.08-7.77-1.65-10.63-4.41l1.79-1.79c2.39,2.27,5.53,3.58,8.83,3.68v2.53ZM23.46,50.76c-3.11-.09-6.07-1.32-8.33-3.45l.31-.31c.07.05.14.1.22.13.19.1.4.13.61.09.18-.04.53-.35.74-.35s.57.09.79-.04-.13-.57-.26-.79c-.04-.04-.04-.09-.09-.13,1.72,1.45,3.87,2.26,6.12,2.32l-.1,2.53ZM23.46,47.49c-2.24-.09-4.38-.97-6.03-2.49l1.79-1.79c.84.77,1.86,1.31,2.97,1.57-.39.17-.57.44-.52.65.04.22-.26.35-.26.61s.35.44.39.7c.04.13.35.35.61.52.33.09.67.12,1.01.09l.04.13ZM23.37,43.99c-.13-.09-.22.09-.39.17-1.2-.17-2.32-.69-3.23-1.49l1.79-1.79c.55.45,1.22.72,1.92.79,0,.09.09.17.09.35s-.13.26-.09.35.44,0,.48-.13-.13-.22-.17-.35c-.04-.09-.04-.13-.09-.22h.13c.13,0,.27,0,.39-.04.05,0,.08-.04.09-.09,0-.04.04-.09.04-.13s.04-.04.04-.09h0l.04.04c.04.09.13.35.22.31.09-.04.13-.44.09-.53-.09-.12-.09-.28,0-.39,0-.04.04-.31.13-.26.09.04,0,.26,0,.35,0,.13.09.31.22.22.09-.04.18-.17.26-.13s-.22.13-.26.22c-.04.09.13.13.09.18-.04.04-.09,0-.13.04s.09.31,0,.35-.39.13-.48.18c-.09.04-.18-.04-.13-.09.04-.04,0-.22-.09-.22s-.09.04-.09.13.09.22.09.26-.13.09-.22.13c-.09.14-.21.26-.35.35-.13.09-.39.09-.39.18s.13.09.18.13c.09.13.13.31-.04.39-.17.09-.39-.13-.48-.09-.09.04-.13.26-.17.52s.48.35.74.22c.18-.09.13-.35.31-.44.18-.09.13-.26.31-.22.18.04.13-.13.3-.13s.18.13.39.18c.35.09.35.35.39.22s.09-.22-.17-.31-.39-.39-.18-.3c.26.13.48.13.53.26s.3.09.35.22c.04.22.22,0,.09-.13s-.09-.18,0-.26.13.04.26-.13c.13-.18-.04-.13-.09-.22-.04-.09,0-.57.18-.48.18.09.35-.04.26-.09-.09-.04.04-.3.09-.3s0,.17.04.22c.04.04.48-.13.53.09.04.22-.31.35-.39.35-.17,0-.31.18-.44.35-.13.17-.26.22-.17.39.09.18.26.13.44.04.18-.09.3-.22.39-.26.18-.09.31.44.22.52-.09.09-.26.13-.35.22-.25.15-.54.24-.83.26-.18.04-.18.09-.22.26-.04.18-.83.04-1.01.04s.13-.39-.13-.35l-.79.13s-.31.22-.53.04M25.69,48.06c.22.1.42.25.57.44.13.22.17.31.09.53-.22.39-.13.65.31.79.26.09.35.35.53.52-.97.26-1.97.4-2.97.44v-2.53c.48-.04,1-.09,1.49-.18M24.2,47.53v-.31c.57-.09.44.26.83.13.12-.04.26,0,.35.09-.39,0-.79.04-1.18.09M24.2,54.04v-2.59c1.32-.04,2.63-.27,3.88-.7.03.03.08.05.13.04.17-.01.34-.07.48-.17.42-.17.82-.39,1.18-.66,1.15-.59,2.21-1.34,3.15-2.23l1.79,1.79c-2.85,2.78-6.64,4.39-10.62,4.5M31.27,31.18l.61-.61c.16.18.38.3.61.35.19.01.34.16.35.35.04.22.26.31.48.35s.35.31.53.31.74.78.96,1.05c.13.13.31.35.44.17s.13-.13.22-.17c.67,1.5,1.05,3.12,1.11,4.77h-2.55c0-.57-.08-1.15-.22-1.7.09-.18.13-.37.13-.57.01-.1-.06-.18-.15-.19-.06,0-.12.02-.15.06-.09-.33-.21-.65-.35-.96-.04-.18-.09-.39-.13-.57,0-.04-.09-.09-.18-.18-.06-.15-.14-.3-.22-.44.13-.09.18-.31,0-.26-.26.04-.09-.13-.17-.22-.09-.09-.09,0-.13.04-.34-.52-.72-1.02-1.14-1.49v-.04c-.09,0-.09-.04-.04-.04M32.81,45.99c-.09-.17-.13-.39-.22-.57-.04-.17-.39-.17-.39-.09,0,.18,0,.35-.04.52v.05l-.92-.92c1.66-1.79,2.62-4.12,2.71-6.56h2.53c-.08,3.1-1.31,6.06-3.45,8.3l-.13-.13c.03-.21,0-.42-.09-.61M30.71,47.75c.13-.22.39-.61.53-.83.13-.22-.35-.52-.61-.61s-.26-.22-.26-.44c.14-.1.27-.22.39-.35l1.79,1.79c-.59.56-1.23,1.05-1.92,1.49-.04-.09.26-.39.35-.53.09-.13-.35-.3-.26-.52M31.81,37.3c-.22-.3.09-.35.39-.48.18-.09.39.04.39-.04.01-.12.08-.23.17-.31.11-.05.2-.12.26-.22,0,.09.04.18.04.26-.08.15-.13.31-.13.48,0,.13,0,.3.13,0,0-.04.04-.04.04-.09.07.27.1.55.09.83h-1.88v-.04c.13-.22.61-.18.48-.39M32.16,33.72s-.02.04-.04.04c0,0,0,0,0,0-.04.04-.26-.31-.26-.04s.09.35.26.39c.18.04.09.13.22.17.07.01.13.04.17.09.21.48.37.98.48,1.49-.07.03-.12.08-.17.13-.09.09-.04.26-.13.39-.13.22-.18.35-.53.26-.22-.09-.04-.35,0-.57.04-.22.13-.18.13-.31s-.44-.61-.66-.44c-.22.18-.17.35-.35.53-.09.09-.17.09-.3,0-.13-.09-.18-.18-.13-.26s-.31-.48-.44-.66c-.17-.22-.43-.34-.7-.35-.24-.41-.52-.79-.83-1.14l1.79-1.79c.58.61,1.08,1.3,1.49,2.04M29.14,34.93l-.09.13c-.04.09-.26-.09-.31-.04s.31.48-.04.35-.13-.13-.13-.26-.31-.22-.13-.3c.18-.09,0-.22.17-.26s.13-.22-.09-.26c-.22-.04-.17.48-.3.39-.13-.04-.26-.05-.39-.04l.61-.61c.07.03.14.05.22.04.11.32.27.61.48.87M28.44,43.8c.28.04.56.1.83.18.17.09.31.26.44.04.26-.4.44-.84.52-1.31.09-.66-.04-.87-.13-.87s-.26.18-.44.18c-.09,0-.09.17-.09.3s-.18.26-.22.18-.13-.04-.09.04c.04.09-.35.04-.53-.04-.26-.13.31-.13.57-.35.23-.19.45-.4.66-.61.13-.22.13-.48.35-.65.22-.17.57-.13.61-.39.04-.26.09-.22.22-.17s1.36-.04,1.36-.44c0-.18-.26-.39-.52-.44-.18,0-.22-.35-.31-.52-.09-.18-.19-.36-.31-.53h1.84c-.09,2.24-.97,4.38-2.49,6.03l-.04-.04v-.17c.04-.35-.22-.92-.31-.83-.09.09,0,.09-.26.48-.09.13-.22.35-.39.35s-.18-.09-.44-.04c-.23.04-.47.04-.7,0-.42-.13-.82-.33-1.18-.57.04-.04.18.04.18-.09s.7.26.87.3M35.31,49.09l-1.79-1.78c2.27-2.39,3.58-5.53,3.68-8.83h2.58c-.08,3.98-1.68,7.78-4.46,10.63M39.76,37.73h-2.58c-.04-1.88-.49-3.73-1.31-5.42l.04-.04c.17-.18-.83-1.49-1.01-1.62-.2-.18-.39-.37-.58-.57-.36-.35-.68-.73-.96-1.14l1.88-1.88c2.81,2.85,4.42,6.66,4.5,10.66M24.2,22.18c3.98.09,7.78,1.66,10.66,4.41l-1.75,1.74c-.09-.04-.17-.09-.13-.17.09-.13-.13-.13-.17-.48-.1-.35-.34-.65-.66-.83-.22-.13-.35-.3-.57-.39-.22-.09-.66-.35-.87-.26-.14.05-.29.08-.44.09-1.86-.99-3.92-1.53-6.03-1.57l-.04-2.53ZM24.2,25.45c1.87.06,3.7.52,5.38,1.36.05.29.17.56.35.79.1.21.22.42.35.61.13.13.04.39.09.61,0,.09.09.17.13.26v.35s.17.04.3-.04c.13-.09.22-.26.39-.22.18.04.39.39.52.61l-.83.83c-.09-.17-.18-.39-.13-.39s.13.04.17.04c.18,0-.13-.13-.13-.17-.13-.13-.13-.31-.3-.44-.17-.13-.44-.04-.53-.22-.17-.31-.41-.58-.7-.79-.04,0,.35.48.22.57-.13.09-.61-.31-.66-.22-.04.09.53.31.7.48.09.09.26.35.44.57-1.67-1.26-3.68-1.98-5.77-2.05v-2.54ZM24.2,28.68c2.24.09,4.38.97,6.03,2.49l-1.79,1.79c-1.17-1.05-2.67-1.66-4.24-1.75v-2.54ZM24.2,31.95c1.38.07,2.69.61,3.71,1.53l-.09.09-.09-.04c-.22-.09-.66.35-.57.39.09.04.26-.17.35-.13h.04l-.74.79c-.22.09-.44.26-.44.39v.04l-.26.27-.13-.13c-.21-.17-.44-.31-.7-.39.12-.1.2-.24.22-.39,0-.26-.09-.18-.22-.04-.13.13-.26.17-.35.3-.22-.09-.46-.13-.7-.13v-2.53h-.04ZM23.9,35.19c.03.07.01.16-.04.22h0c-.09.09-.35-.22-.39.04-.09.26.18.13.18.18.13.17.32.28.52.31.18,0,.44,0,.44.17,0,.09.22.09.26.18,0,.13.13.35.22.3.09-.04.22.04.26.13.04.09,0,.13-.04.22-.13.13.13.09.18.35.04.26-.22.09-.26.26-.09.13-.17.22-.26.35-.04.04.04.13.09.09.04-.04.13-.18.26-.18s.26.48.39.53c.13.04.09.22.13.26.04.04-.22,0-.18.09.04.09.31.13.31.26-.03.15-.16.26-.31.26-.13,0-.35-.3-.35-.22s.09.35.22.35.44-.13.31.04c-.13.18-.09.44-.18.44s-.13,0-.04.13c.03.14,0,.28-.09.39-.1.06-.23.04-.31-.04,0-.04.26-.04.26-.18s-.13-.17-.39-.09c-.13.04-.17-.04-.26-.04s-.35.31-.35.35v.22c0,.16-.04.31-.13.44-.16.04-.32.05-.48.04-.71-.02-1.39-.28-1.92-.74.11-.05.23-.08.35-.09.13.04.17-.04.26-.09.09-.04.31.09.44,0s.44-.65.39-.79c-.04-.13.31-.35.26-.39s-.09.04-.09,0,.09-.04,0-.22-.22-.09-.31-.09c-.13-.09-.35-.13-.39-.09-.04.04-.18-.09-.22-.04-.07,0-.13.06-.13.13-.04.09.04.18.04.26-.04.17-.31.3-.31.44s-.13.04-.17.09c-.04.04,0,.13-.09.13s-.22.22-.3.39c-.13-.18-.26-.39-.39-.57.09-.04.18-.09.22-.04.13.09.66-.83.57-1.09s-.22-.09-.35-.04c-.13.04-.13-.09-.09-.13.04-.04.61-.04.31-.22-.13-.09-.48-.09-.44-.22s.22,0,.26,0c.22.09.35-.35.48-.35.22,0,.13-.44-.09-.3s-.31.09-.39.22c-.09.13-.3.3-.3.13,0-.09.48-.35.57-.48.1-.1.17-.22.22-.35.04-.13.66-.22.79-.31.1-.09.16-.22.18-.35,0-.13-.18-.09-.22-.18-.04-.09.22,0,.22-.13s-.22,0-.31-.09t.04-.09c.31-.11.63-.17.96-.18h.09M23.5,22.18v2.53c-3.3.1-6.44,1.41-8.83,3.68l-1.79-1.79c2.86-2.76,6.66-4.33,10.63-4.41M12.32,27.13l1.79,1.79c-2.27,2.39-3.58,5.53-3.68,8.83h-2.53c.12-3.96,1.69-7.74,4.41-10.62"/>
      </g>
      <line class="cls-1" x1="276.32" y1="0" x2="276.32" y2="82.84"/>
      <g>
        <path class="cls-3" d="M351.05,19.47c-.11-1.12-.38-2.07-.8-2.86-.4-.79-.99-1.41-1.77-1.84-.78-.45-1.82-.68-3.13-.68s-2.35.23-3.13.68c-.78.44-1.37,1.05-1.8,1.84-.4.79-.67,1.75-.8,2.86-.11,1.1-.17,2.31-.17,3.62s.06,2.54.17,3.64c.13,1.1.4,2.05.8,2.84.42.79,1.02,1.4,1.8,1.82s2.13.63,3.44.63,2.04-.21,2.82-.63c.78-.42,1.37-1.03,1.77-1.82.42-.79.69-1.74.8-2.84.13-1.1.19-2.31.19-3.64s-.06-2.52-.19-3.62ZM347.65,26.07c-.05.81-.16,1.47-.34,1.99-.16.5-.4.87-.73,1.12-.31.23-.72.34-1.24.34s-.94-.11-1.26-.34c-.31-.24-.55-.61-.73-1.12-.16-.52-.27-1.18-.34-1.99-.05-.82-.07-1.82-.07-2.98s.02-2.15.07-2.96c.06-.81.18-1.47.34-1.99.18-.52.42-.89.73-1.12.32-.24.74-.36,1.26-.36s.93.12,1.24.36c.32.23.57.6.73,1.12.18.52.29,1.18.34,1.99.06.81.1,1.8.1,2.96s-.03,2.16-.1,2.98ZM338.18,30.6c-.06-.49-.11-1.19-.15-2.11-.02-.47-.03-.89-.05-1.26-.02-.39-.04-.74-.07-1.07-.1-.97-.35-1.67-.75-2.11-.4-.44-1.04-.72-1.92-.85v-.05c.99-.21,1.71-.68,2.18-1.41.47-.74.7-1.7.7-2.86,0-1.5-.4-2.62-1.21-3.35-.81-.74-1.94-1.12-3.4-1.12h-6.45v17.32h3.49v-7.33h1.87c.73,0,1.25.19,1.55.58s.48.92.51,1.6l.1,3.32c.02.34.05.67.1.99.05.31.16.58.34.82h3.79v-.15c-.32-.18-.53-.51-.63-.99ZM333.95,21.41c-.45.39-1.1.58-1.94.58h-1.46v-5h1.65c1.62,0,2.43.8,2.43,2.4,0,.94-.23,1.61-.68,2.01ZM325.79,14.42v2.86h-6.19v4.08h5.82v2.86h-5.82v4.66h6.43v2.86h-9.92V14.42h9.68ZM304.52,29.2l6.38-11.91h-5.94v-2.86h9.97v2.64l-6.48,11.82h6.58v2.86h-10.51v-2.55Z"/>
        <path class="cls-3" d="M338.09,50.02c-.06-.49-.11-1.19-.15-2.11-.02-.47-.03-.89-.05-1.26-.02-.39-.04-.74-.07-1.07-.1-.97-.35-1.67-.75-2.11-.4-.44-1.04-.72-1.92-.85v-.05c.99-.21,1.71-.68,2.18-1.41.47-.74.7-1.7.7-2.86,0-1.5-.4-2.62-1.21-3.35-.81-.74-1.94-1.12-3.4-1.12h-6.45v17.32h3.49v-7.33h1.87c.73,0,1.25.19,1.55.58.31.39.48.92.51,1.6l.1,3.32c.02.34.05.67.1.99.05.31.16.58.34.82h3.79v-.15c-.32-.18-.53-.51-.63-.99ZM333.87,40.82c-.45.39-1.1.58-1.94.58h-1.46v-5h1.65c1.62,0,2.43.8,2.43,2.4,0,.94-.23,1.61-.68,2.01ZM317.93,33.83v12.08c0,.44.02.84.07,1.21.06.36.17.67.32.95.16.26.37.47.63.63.28.15.61.22,1.02.22s.76-.07,1.02-.22c.26-.16.46-.37.61-.63.16-.27.27-.59.32-.95.06-.37.1-.78.1-1.21v-12.08h3.49v12.08c0,1.1-.15,2.01-.46,2.74-.31.71-.72,1.28-1.24,1.7-.52.42-1.11.7-1.77.85-.66.15-1.35.22-2.06.22s-1.4-.06-2.06-.19c-.66-.13-1.25-.39-1.77-.78-.52-.4-.93-.97-1.24-1.7-.31-.73-.46-1.67-.46-2.84v-12.08h3.49ZM313.13,38.88c-.11-1.12-.38-2.07-.8-2.86-.4-.79-.99-1.41-1.77-1.84-.78-.45-1.82-.68-3.13-.68s-2.35.23-3.13.68c-.78.44-1.37,1.05-1.8,1.84-.4.79-.67,1.75-.8,2.86-.11,1.1-.17,2.31-.17,3.62s.06,2.54.17,3.64c.13,1.1.4,2.05.8,2.84.42.79,1.02,1.4,1.8,1.82.78.42,1.82.63,3.13.63s2.35-.21,3.13-.63c.78-.42,1.37-1.03,1.77-1.82.42-.79.69-1.74.8-2.84.13-1.1.19-2.31.19-3.64s-.06-2.52-.19-3.62ZM309.73,45.48c-.05.81-.16,1.47-.34,1.99-.16.5-.4.87-.73,1.12-.31.23-.72.34-1.24.34s-.94-.11-1.26-.34c-.31-.24-.55-.61-.73-1.12-.16-.52-.27-1.18-.34-1.99-.05-.82-.07-1.82-.07-2.98s.02-2.15.07-2.96c.06-.81.18-1.47.34-1.99.18-.52.42-.89.73-1.12.32-.24.74-.36,1.26-.36s.93.12,1.24.36c.32.23.57.6.73,1.12.18.52.29,1.18.34,1.99.06.81.1,1.8.1,2.96s-.03,2.16-.1,2.98ZM289.14,33.83h3.49v6.62h4.08v-6.62h3.49v17.32h-3.49v-7.69h-4.08v7.69h-3.49v-17.32Z"/>
        <path class="cls-3" d="M354.3,53.24l2.28,6.7h.05l2.43-6.7h3.79l-4.49,10.51v6.82h-3.49v-6.82l-4.49-10.51h3.93ZM347.77,53.24l4.59,17.32h-3.64l-.8-3.66h-4.61l-.8,3.66h-3.64l4.59-17.32h4.32ZM347.31,64.04l-1.67-7.79h-.05l-1.67,7.79h3.4ZM327.05,53.24h5.73c1.21,0,2.19.2,2.94.61.74.39,1.32.95,1.72,1.7.42.73.7,1.61.85,2.64.15,1.04.22,2.19.22,3.47,0,1.52-.1,2.85-.29,3.98-.18,1.12-.49,2.04-.95,2.77-.45.73-1.06,1.27-1.82,1.63-.76.36-1.72.53-2.89.53h-5.51v-17.32ZM330.54,67.99h1.55c.61,0,1.11-.1,1.48-.32.37-.21.66-.56.87-1.04.23-.49.37-1.12.44-1.92.08-.79.12-1.78.12-2.96,0-.99-.03-1.85-.1-2.6-.06-.74-.2-1.36-.41-1.84-.19-.5-.49-.87-.9-1.12-.39-.26-.91-.39-1.58-.39h-1.48v12.18Z"/>
      </g>
    </g>
  </g>
</svg>