<?xml version="1.0" encoding="UTF-8"?>
<svg id="Layer_2" data-name="Layer 2" xmlns="http://www.w3.org/2000/svg" viewBox="0 0 1359.75 846.02">
  <defs>
    <style>
      .cls-1 {
        font-family: MyriadPro-Regular, 'Myriad Pro';
        font-size: 12px;
      }

      .cls-2 {
        letter-spacing: 0em;
      }

      .cls-3 {
        letter-spacing: -.01em;
      }

      .cls-4 {
        fill: #191a1a;
      }

      .cls-5 {
        letter-spacing: -.01em;
      }
    </style>
  </defs>
  <g id="tutto-insieme">
    <g>
      <g>
        <g>
          <path class="cls-4" d="M272.95,38.94h-72.28V4.13h121.25v32.16l-78.76,143.67h79.94v34.81h-127.73v-30.98l77.58-144.84Z"/>
          <path class="cls-4" d="M462.63,38.94h-75.22v49.56h70.8v34.81h-70.8v56.64h78.17v34.81h-120.66V4.13h117.71v34.81Z"/>
          <path class="cls-4" d="M565.29,4.13c17.7,0,31.46,4.48,41.3,13.42,9.83,8.95,14.75,22.57,14.75,40.86,0,14.16-2.85,25.72-8.55,34.66-5.71,8.95-14.56,14.7-26.55,17.26v.59c10.62,1.58,18.39,5.01,23.3,10.32,4.91,5.31,7.96,13.87,9.15,25.67.39,3.94.69,8.21.88,12.83.19,4.62.39,9.79.59,15.49.39,11.21.98,19.76,1.77,25.67,1.18,5.9,3.73,9.93,7.67,12.09v1.77h-46.02c-2.17-2.95-3.54-6.34-4.13-10.18-.59-3.84-.99-7.82-1.18-11.95l-1.18-40.42c-.4-8.26-2.46-14.75-6.19-19.47-3.74-4.72-10.03-7.08-18.88-7.08h-22.72v89.09h-42.48V4.13h78.47ZM547,96.17c10.22,0,18.09-2.41,23.6-7.23,5.5-4.82,8.26-12.93,8.26-24.34,0-19.47-9.84-29.21-29.5-29.21h-20.06v60.77h17.7Z"/>
          <path class="cls-4" d="M648.63,65.34c1.48-13.47,4.72-25.02,9.74-34.66,5.01-9.63,12.24-17.16,21.68-22.57,9.44-5.41,22.12-8.11,38.05-8.11s28.62,2.71,38.06,8.11c9.44,5.41,16.67,12.93,21.68,22.57,5.02,9.64,8.26,21.19,9.74,34.66,1.47,13.47,2.21,28.17,2.21,44.1s-.74,30.88-2.21,44.25c-1.47,13.38-4.72,24.88-9.74,34.51-5.01,9.64-12.24,17.01-21.68,22.12-9.44,5.11-22.12,7.67-38.06,7.67s-28.62-2.56-38.05-7.67c-9.44-5.11-16.67-12.49-21.68-22.12-5.01-9.63-8.26-21.14-9.74-34.51-1.47-13.37-2.21-28.12-2.21-44.25s.74-30.63,2.21-44.1ZM689.93,145.58c.69,9.93,2.06,17.99,4.13,24.19,2.06,6.2,5.01,10.72,8.85,13.57,3.83,2.85,8.9,4.28,15.19,4.28s11.36-1.42,15.19-4.28c3.83-2.85,6.79-7.38,8.85-13.57,2.06-6.2,3.44-14.26,4.13-24.19.69-9.93,1.03-21.98,1.03-36.14s-.35-26.15-1.03-35.99c-.69-9.83-2.07-17.89-4.13-24.19-2.07-6.29-5.02-10.86-8.85-13.72-3.83-2.85-8.9-4.28-15.19-4.28s-11.36,1.43-15.19,4.28c-3.83,2.85-6.79,7.43-8.85,13.72-2.07,6.3-3.44,14.36-4.13,24.19-.69,9.84-1.03,21.83-1.03,35.99s.34,26.21,1.03,36.14Z"/>
        </g>
        <g>
          <path class="cls-4" d="M42.48,239.86v80.54h49.56v-80.54h42.48v210.63h-42.48v-93.52h-49.56v93.52H0v-210.63h42.48Z"/>
          <path class="cls-4" d="M161.81,301.07c1.47-13.47,4.72-25.02,9.73-34.66,5.02-9.63,12.24-17.16,21.68-22.57,9.44-5.41,22.12-8.11,38.05-8.11s28.62,2.71,38.06,8.11c9.44,5.41,16.67,12.93,21.68,22.57,5.01,9.64,8.26,21.19,9.73,34.66,1.48,13.47,2.21,28.17,2.21,44.1s-.74,30.88-2.21,44.25c-1.47,13.38-4.72,24.88-9.73,34.51-5.02,9.64-12.24,17.01-21.68,22.12-9.44,5.11-22.12,7.67-38.06,7.67s-28.61-2.56-38.05-7.67c-9.44-5.11-16.67-12.49-21.68-22.12-5.01-9.63-8.26-21.14-9.73-34.51-1.48-13.37-2.21-28.12-2.21-44.25s.74-30.63,2.21-44.1ZM203.11,381.31c.69,9.93,2.06,17.99,4.13,24.19s5.01,10.72,8.85,13.57c3.83,2.85,8.9,4.28,15.19,4.28s11.36-1.42,15.19-4.28c3.83-2.85,6.78-7.38,8.85-13.57s3.44-14.26,4.13-24.19c.69-9.93,1.03-21.98,1.03-36.14s-.35-26.15-1.03-35.99c-.69-9.83-2.06-17.89-4.13-24.19-2.07-6.29-5.01-10.86-8.85-13.72-3.83-2.85-8.9-4.28-15.19-4.28s-11.36,1.43-15.19,4.28c-3.83,2.85-6.78,7.43-8.85,13.72-2.07,6.3-3.44,14.36-4.13,24.19-.69,9.84-1.03,21.83-1.03,35.99s.34,26.21,1.03,36.14Z"/>
          <path class="cls-4" d="M367.87,386.77c0,5.31.34,10.18,1.03,14.6.69,4.42,1.96,8.26,3.83,11.5,1.87,3.25,4.42,5.8,7.67,7.67,3.25,1.87,7.32,2.8,12.24,2.8s9.24-.93,12.39-2.8c3.14-1.87,5.65-4.42,7.52-7.67,1.87-3.24,3.14-7.08,3.83-11.5.69-4.42,1.03-9.29,1.03-14.6v-146.91h42.48v146.91c0,13.38-1.87,24.44-5.61,33.19-3.74,8.75-8.75,15.69-15.04,20.8-6.3,5.12-13.47,8.55-21.54,10.33-8.07,1.77-16.42,2.65-25.07,2.65s-17.01-.79-25.08-2.36c-8.07-1.57-15.24-4.77-21.54-9.59-6.3-4.82-11.31-11.65-15.04-20.5-3.74-8.85-5.61-20.36-5.61-34.52v-146.91h42.48v146.91Z"/>
          <path class="cls-4" d="M565.22,239.86c17.7,0,31.46,4.48,41.3,13.42,9.83,8.95,14.75,22.57,14.75,40.86,0,14.16-2.85,25.72-8.55,34.66-5.71,8.95-14.56,14.7-26.55,17.26v.59c10.62,1.58,18.39,5.01,23.3,10.32,4.91,5.31,7.96,13.87,9.15,25.67.39,3.94.69,8.21.88,12.83.19,4.62.39,9.79.59,15.49.39,11.21.98,19.76,1.77,25.67,1.18,5.9,3.73,9.93,7.67,12.09v1.77h-46.02c-2.17-2.95-3.54-6.34-4.13-10.18-.59-3.84-.99-7.82-1.18-11.95l-1.18-40.42c-.4-8.26-2.46-14.75-6.19-19.47-3.74-4.72-10.03-7.08-18.88-7.08h-22.71v89.09h-42.48v-210.63h78.47ZM546.93,331.9c10.22,0,18.09-2.41,23.6-7.23,5.5-4.82,8.26-12.93,8.26-24.34,0-19.47-9.84-29.21-29.5-29.21h-20.06v60.77h17.7Z"/>
        </g>
        <g>
          <path class="cls-4" d="M556.52,475.62c14.75,0,26.65,2.41,35.69,7.23,9.04,4.82,16.08,11.7,21.09,20.65,5.01,8.95,8.41,19.72,10.18,32.3,1.77,12.59,2.66,26.65,2.66,42.19,0,18.49-1.13,34.57-3.39,48.23-2.26,13.67-6.15,24.93-11.65,33.78-5.51,8.85-12.88,15.44-22.12,19.77-9.25,4.33-20.94,6.49-35.1,6.49h-66.96v-210.63h69.62ZM548.26,654.98c7.47,0,13.47-1.28,18-3.83,4.52-2.55,8.11-6.79,10.77-12.69,2.65-5.9,4.42-13.67,5.31-23.3.88-9.63,1.33-21.63,1.33-35.99,0-11.99-.4-22.52-1.18-31.56-.79-9.04-2.41-16.57-4.87-22.57-2.46-6-6.1-10.52-10.92-13.57-4.82-3.05-11.26-4.57-19.32-4.57h-18v148.09h18.88Z"/>
          <path class="cls-4" d="M747.68,475.62l55.75,210.63h-44.25l-9.73-44.54h-56.05l-9.73,44.54h-44.25l55.75-210.63h52.51ZM742.08,606.89l-20.35-94.7h-.59l-20.35,94.7h41.3Z"/>
          <path class="cls-4" d="M863.62,557.04h.59l29.5-81.42h46.02l-54.57,127.74v82.9h-42.48v-82.9l-54.57-127.74h47.79l27.73,81.42Z"/>
        </g>
      </g>
      <text class="cls-1" transform="translate(1294.29 843.02)"><tspan class="cls-3" x="0" y="0">L</tspan><tspan x="5.5" y="0">o</tspan><tspan class="cls-5" x="12.08" y="0">r</tspan><tspan class="cls-2" x="15.89" y="0">em ipsum</tspan></text>
    </g>
  </g>
</svg>