<?xml version="1.0" encoding="UTF-8"?>
<svg id="Layer_2" data-name="Layer 2" xmlns="http://www.w3.org/2000/svg" viewBox="0 0 102.12 51.86">
  <defs>
    <style>
      .cls-1 {
        fill: #191a1a;
      }
    </style>
  </defs>
  <g id="tutto-insieme">
    <g>
      <path class="cls-1" d="M5.32,9.02h-3.3v-1.9h3.3c.54,0,.98-.09,1.31-.27s.58-.42.74-.74.24-.67.24-1.08-.08-.76-.24-1.1-.41-.62-.74-.83-.77-.32-1.31-.32h-2.5v10.89H.4V.89h4.92c1,0,1.85.18,2.55.53s1.25.84,1.62,1.47.56,1.33.56,2.13-.19,1.54-.56,2.14-.91,1.06-1.62,1.38-1.56.48-2.55.48Z"/>
      <path class="cls-1" d="M14.09,6.12v7.57h-2.32V4.17h2.2l.12,1.94ZM16.98,4.11l-.04,2.16c-.13-.02-.27-.04-.44-.05s-.31-.02-.45-.02c-.36,0-.67.05-.94.15s-.49.24-.67.42-.31.4-.41.66-.15.55-.16.88l-.5-.06c0-.6.06-1.16.18-1.68s.3-.97.54-1.35.53-.69.88-.9.76-.32,1.23-.32c.13,0,.27.01.42.03s.27.05.36.08Z"/>
      <path class="cls-1" d="M17.59,9.03v-.18c0-.7.1-1.34.3-1.93s.49-1.1.87-1.53.85-.77,1.4-1.01,1.18-.37,1.88-.37,1.35.12,1.9.37,1.02.58,1.4,1.01.67.95.87,1.53.3,1.23.3,1.93v.18c0,.69-.1,1.33-.3,1.92s-.49,1.1-.87,1.54-.85.77-1.4,1.01-1.18.36-1.89.36-1.33-.12-1.89-.36-1.03-.58-1.41-1.01-.67-.95-.87-1.54-.3-1.23-.3-1.92ZM19.91,8.84v.18c0,.42.04.81.12,1.17s.21.68.38.96.39.49.66.65.6.23.98.23.7-.08.97-.23.49-.37.66-.65.3-.59.38-.96.12-.75.12-1.17v-.18c0-.41-.04-.79-.12-1.16s-.21-.68-.38-.96-.4-.5-.67-.66-.6-.24-.98-.24-.7.08-.97.24-.49.38-.66.66-.3.6-.38.96-.12.75-.12,1.16Z"/>
      <path class="cls-1" d="M27.81,9.04v-.18c0-.73.09-1.39.26-1.98s.43-1.11.76-1.53.73-.76,1.2-.99,1-.35,1.6-.35c.63,0,1.16.11,1.59.34s.79.55,1.07.98.51.92.67,1.5.29,1.21.37,1.9v.5c-.08.67-.21,1.29-.39,1.85s-.41,1.05-.71,1.47-.66.74-1.09.97-.94.34-1.53.34-1.11-.12-1.58-.36-.87-.58-1.2-1.01-.58-.94-.76-1.53-.26-1.22-.26-1.92ZM34.23,4.17h2.11v9.22c0,.86-.19,1.59-.56,2.19s-.89,1.06-1.56,1.37-1.44.47-2.33.47c-.38,0-.79-.05-1.23-.16s-.87-.27-1.27-.5-.75-.52-1.02-.88l1.05-1.37c.32.37.67.65,1.07.84s.83.29,1.29.29.87-.09,1.2-.26.59-.42.76-.76.27-.74.27-1.22v-7.08l.22-2.17ZM30.13,8.86v.18c0,.41.04.79.12,1.15s.21.67.38.95.38.48.64.64.57.23.92.23c.48,0,.87-.1,1.18-.3s.54-.48.7-.83.27-.75.31-1.2v-1.38c-.03-.35-.09-.68-.19-.98s-.23-.56-.4-.77-.39-.39-.65-.51-.58-.18-.94-.18-.66.08-.92.23-.48.37-.65.65-.3.59-.38.96-.13.76-.13,1.18Z"/>
      <path class="cls-1" d="M40.75,6.12v7.57h-2.32V4.17h2.2l.12,1.94ZM43.64,4.11l-.04,2.16c-.13-.02-.27-.04-.44-.05s-.31-.02-.45-.02c-.36,0-.67.05-.94.15s-.49.24-.67.42-.31.4-.41.66-.15.55-.16.88l-.5-.06c0-.6.06-1.16.18-1.68s.3-.97.54-1.35.53-.69.88-.9.76-.32,1.23-.32c.13,0,.27.01.42.03s.27.05.36.08Z"/>
      <path class="cls-1" d="M50.16,7.89l.02,1.38h-1.47c-.36,0-.68.04-.96.11s-.5.18-.68.32-.31.3-.4.49-.13.41-.13.65.05.45.16.63.27.34.47.44.45.16.73.16c.41,0,.77-.08,1.07-.25s.54-.37.71-.61.26-.47.27-.69l.67,1c-.08.24-.21.5-.37.76s-.38.52-.63.76-.57.43-.93.58-.79.23-1.27.23c-.62,0-1.17-.12-1.65-.37s-.87-.58-1.15-1.01-.42-.91-.42-1.46c0-.5.09-.95.28-1.34s.47-.71.83-.98.83-.47,1.38-.61,1.18-.21,1.89-.21h1.56ZM49.83,11.66v-4.39c0-.32-.06-.6-.17-.83s-.28-.42-.51-.54-.52-.19-.87-.19c-.31,0-.58.05-.81.16s-.41.25-.53.44-.18.41-.18.65h-2.33c0-.39.09-.77.28-1.12s.46-.67.8-.95.77-.5,1.26-.66,1.04-.24,1.65-.24c.72,0,1.36.12,1.93.37s1.01.61,1.34,1.09.49,1.1.49,1.84v4.15c0,.47.03.88.09,1.22s.15.63.28.87v.15h-2.36c-.11-.24-.2-.55-.25-.92s-.09-.74-.09-1.1Z"/>
      <path class="cls-1" d="M56.58,6.13v7.56h-2.32V4.17h2.19l.13,1.95ZM56.23,8.59h-.71c0-.66.08-1.27.24-1.83s.4-1.04.72-1.45.71-.73,1.17-.96,1.01-.34,1.62-.34c.43,0,.82.06,1.18.19s.67.32.93.59.46.61.6,1.04.21.93.21,1.52v6.35h-2.32v-6.11c0-.45-.06-.79-.19-1.05s-.31-.43-.54-.53-.52-.15-.84-.15c-.36,0-.68.07-.94.22s-.47.34-.64.59-.29.54-.37.87-.12.68-.12,1.06ZM62.02,8.16l-.96.18c0-.6.09-1.16.25-1.68s.39-.98.7-1.38.69-.71,1.15-.93.99-.34,1.6-.34c.47,0,.89.07,1.27.2s.7.34.97.62.48.65.62,1.1.22,1,.22,1.65v6.11h-2.34v-6.12c0-.46-.06-.82-.19-1.06s-.31-.42-.54-.51-.51-.15-.83-.15-.6.06-.84.18-.44.29-.6.5-.28.46-.36.73-.12.58-.12.9Z"/>
      <path class="cls-1" d="M79.34,4.17v1.67h-5.7v-1.67h5.7ZM77.41,13.68h-2.34V3.3c0-.71.14-1.32.41-1.81s.67-.86,1.18-1.11,1.11-.38,1.8-.38c.23,0,.45.01.65.04s.41.07.62.12l-.04,1.77c-.11-.03-.23-.05-.36-.06s-.28-.02-.44-.02c-.32,0-.59.06-.81.17s-.39.27-.51.49-.17.48-.17.79v10.39Z"/>
      <path class="cls-1" d="M80.36,9.03v-.18c0-.7.1-1.34.3-1.93s.49-1.1.87-1.53.85-.77,1.4-1.01,1.18-.37,1.88-.37,1.35.12,1.9.37,1.02.58,1.4,1.01.67.95.87,1.53.3,1.23.3,1.93v.18c0,.69-.1,1.33-.3,1.92s-.49,1.1-.87,1.54-.85.77-1.4,1.01-1.18.36-1.89.36-1.33-.12-1.89-.36-1.03-.58-1.41-1.01-.67-.95-.87-1.54-.3-1.23-.3-1.92ZM82.68,8.84v.18c0,.42.04.81.12,1.17s.21.68.38.96.39.49.66.65.6.23.98.23.7-.08.97-.23.49-.37.66-.65.3-.59.38-.96.12-.75.12-1.17v-.18c0-.41-.04-.79-.12-1.16s-.21-.68-.38-.96-.4-.5-.67-.66-.6-.24-.98-.24-.7.08-.97.24-.49.38-.66.66-.3.6-.38.96-.12.75-.12,1.16Z"/>
      <path class="cls-1" d="M93.28,6.12v7.57h-2.32V4.17h2.2l.12,1.94ZM96.17,4.11l-.04,2.16c-.13-.02-.27-.04-.44-.05s-.31-.02-.45-.02c-.36,0-.67.05-.94.15s-.49.24-.67.42-.31.4-.41.66-.15.55-.16.88l-.5-.06c0-.6.06-1.16.18-1.68s.3-.97.54-1.35.53-.69.88-.9.76-.32,1.23-.32c.13,0,.27.01.42.03s.27.05.36.08Z"/>
      <path class="cls-1" d="M10.38,26.07v4.98c-.19.24-.48.5-.88.78s-.92.52-1.57.73-1.44.3-2.37.3c-.81,0-1.56-.14-2.23-.41s-1.25-.67-1.74-1.2-.86-1.17-1.12-1.93-.4-1.63-.4-2.61v-.84c0-.98.12-1.85.37-2.61s.61-1.41,1.07-1.93,1.03-.93,1.68-1.2,1.38-.41,2.19-.41c1.08,0,1.98.18,2.68.54s1.24.85,1.61,1.47.61,1.34.7,2.15h-2.36c-.06-.45-.19-.84-.39-1.17s-.47-.6-.82-.79-.81-.29-1.38-.29c-.47,0-.89.09-1.26.28s-.67.46-.91.82-.43.8-.56,1.33-.19,1.13-.19,1.81v.86c0,.69.07,1.29.21,1.82s.34.98.61,1.34.6.63.99.82.85.28,1.35.28c.46,0,.84-.04,1.14-.12s.54-.17.73-.29.32-.22.42-.33v-2.4h-2.54v-1.77h4.96Z"/>
      <path class="cls-1" d="M14.95,19.18v13.5h-2.33v-13.5h2.33Z"/>
      <path class="cls-1" d="M16.75,28.03v-.18c0-.7.1-1.34.3-1.93s.49-1.1.87-1.53.85-.77,1.4-1.01,1.18-.37,1.88-.37,1.35.12,1.9.37,1.02.58,1.4,1.01.67.95.87,1.53.3,1.23.3,1.93v.18c0,.69-.1,1.33-.3,1.92s-.49,1.1-.87,1.54-.85.77-1.4,1.01-1.18.36-1.89.36-1.33-.12-1.89-.36-1.03-.58-1.41-1.01-.67-.95-.87-1.54-.3-1.23-.3-1.92ZM19.07,27.84v.18c0,.42.04.81.12,1.17s.21.68.38.96.39.49.66.65.6.23.98.23.7-.08.97-.23.49-.37.66-.65.3-.59.38-.96.12-.75.12-1.17v-.18c0-.41-.04-.79-.12-1.16s-.21-.68-.38-.96-.4-.5-.67-.66-.6-.24-.98-.24-.7.08-.97.24-.49.38-.66.66-.3.6-.38.96-.12.75-.12,1.16Z"/>
      <path class="cls-1" d="M27.34,19.18h2.33v11.4l-.23,2.1h-2.1v-13.5ZM35.79,27.83v.18c0,.71-.08,1.36-.23,1.95s-.39,1.1-.7,1.53-.7.76-1.16,1-1,.36-1.61.36-1.09-.11-1.52-.34-.79-.55-1.09-.97-.53-.91-.7-1.49-.31-1.2-.4-1.88v-.5c.09-.69.22-1.31.4-1.88s.41-1.06.7-1.49.65-.75,1.08-.98.93-.34,1.51-.34c.62,0,1.16.12,1.63.36s.85.57,1.16,1,.54.94.69,1.53.23,1.24.23,1.95ZM33.46,28.02v-.18c0-.4-.03-.79-.1-1.15s-.17-.68-.32-.95-.35-.49-.6-.65-.57-.24-.95-.24-.67.06-.93.18-.47.29-.63.51-.3.47-.39.76-.15.61-.18.95v1.37c.04.45.14.86.29,1.22s.38.65.68.86.69.32,1.17.32c.38,0,.69-.07.94-.22s.45-.36.6-.63.25-.59.31-.95.09-.76.09-1.19Z"/>
      <path class="cls-1" d="M43.04,26.89l.02,1.38h-1.47c-.36,0-.68.04-.96.11s-.5.18-.68.32-.31.3-.4.49-.13.41-.13.65.05.45.16.63.27.34.47.44.45.16.73.16c.41,0,.77-.08,1.07-.25s.54-.37.71-.61.26-.47.27-.69l.67,1c-.08.24-.21.5-.37.76s-.38.52-.63.76-.57.43-.93.58-.79.23-1.27.23c-.62,0-1.17-.12-1.65-.37s-.87-.58-1.15-1.01-.42-.91-.42-1.46c0-.5.09-.95.28-1.34s.47-.71.83-.98.83-.47,1.38-.61,1.18-.21,1.89-.21h1.56ZM42.71,30.66v-4.39c0-.32-.06-.6-.17-.83s-.28-.42-.51-.54-.52-.19-.87-.19c-.31,0-.58.05-.81.16s-.41.25-.53.44-.18.41-.18.65h-2.33c0-.39.09-.77.28-1.12s.46-.67.8-.95.77-.5,1.26-.66,1.04-.24,1.65-.24c.72,0,1.36.12,1.93.37s1.01.61,1.34,1.09.49,1.1.49,1.84v4.15c0,.47.03.88.09,1.22s.15.63.28.87v.15h-2.36c-.11-.24-.2-.55-.25-.92s-.09-.74-.09-1.1Z"/>
      <path class="cls-1" d="M49.61,19.18v13.5h-2.33v-13.5h2.33Z"/>
      <path class="cls-1" d="M65.5,19.89v1.91h-10.31v-1.91h10.31ZM61.52,19.89v12.8h-2.41v-12.8h2.41Z"/>
      <path class="cls-1" d="M66.89,20.69c0-.35.12-.63.36-.86s.56-.34.96-.34.73.11.96.34.36.52.36.86-.12.62-.36.85-.56.34-.96.34-.73-.11-.96-.34-.36-.51-.36-.85ZM69.38,23.17v9.51h-2.33v-9.51h2.33Z"/>
      <path class="cls-1" d="M73.91,25.13v7.56h-2.32v-9.51h2.19l.13,1.95ZM73.56,27.59h-.71c0-.66.08-1.27.24-1.83s.4-1.04.72-1.45.71-.73,1.17-.96,1.01-.34,1.62-.34c.43,0,.82.06,1.18.19s.67.32.93.59.46.61.6,1.04.21.93.21,1.52v6.35h-2.32v-6.11c0-.45-.06-.79-.19-1.05s-.31-.43-.54-.53-.52-.15-.84-.15c-.36,0-.68.07-.94.22s-.47.34-.64.59-.29.54-.37.87-.12.68-.12,1.06ZM79.35,27.16l-.96.18c0-.6.09-1.16.25-1.68s.39-.98.7-1.38.69-.71,1.15-.93.99-.34,1.6-.34c.47,0,.89.07,1.27.2s.7.34.97.62.48.65.62,1.1.22,1,.22,1.65v6.11h-2.34v-6.12c0-.46-.06-.82-.19-1.06s-.31-.42-.54-.51-.51-.15-.83-.15-.6.06-.84.18-.44.29-.6.5-.28.46-.36.73-.12.58-.12.9Z"/>
      <path class="cls-1" d="M91.5,32.86c-.72,0-1.37-.12-1.94-.35s-1.06-.56-1.46-.98-.71-.91-.92-1.47-.32-1.16-.32-1.81v-.35c0-.73.11-1.4.32-2s.51-1.12.9-1.55.85-.77,1.39-1,1.13-.35,1.78-.35,1.27.11,1.78.34.95.54,1.29.95.61.9.78,1.47.26,1.2.26,1.89v.98h-7.45v-1.6h5.17v-.18c-.01-.37-.08-.71-.21-1.01s-.33-.55-.6-.74-.62-.28-1.05-.28c-.35,0-.65.08-.9.22s-.47.36-.63.63-.29.6-.37.97-.12.79-.12,1.25v.35c0,.4.05.77.16,1.11s.27.63.48.88.47.44.77.58.65.21,1.03.21c.49,0,.93-.09,1.32-.29s.74-.47,1.03-.85l1.17,1.21c-.2.29-.47.57-.8.84s-.74.49-1.22.66-1.02.25-1.64.25Z"/>
      <path class="cls-1" d="M7.88,47.47h2.42c-.06.86-.3,1.61-.71,2.27s-.98,1.18-1.71,1.55-1.62.56-2.66.56c-.8,0-1.52-.14-2.17-.43s-1.19-.69-1.64-1.22-.8-1.17-1.04-1.92-.36-1.59-.36-2.52v-.98c0-.93.12-1.77.37-2.52s.6-1.39,1.06-1.92,1.01-.94,1.66-1.23,1.37-.43,2.18-.43c1.04,0,1.92.19,2.65.58s1.28.91,1.68,1.58.64,1.44.72,2.3h-2.42c-.05-.54-.16-1-.35-1.37s-.46-.66-.83-.86-.85-.29-1.45-.29c-.47,0-.88.09-1.23.26s-.65.44-.88.79-.41.78-.53,1.3-.18,1.12-.18,1.8v.99c0,.65.05,1.23.16,1.75s.27.95.49,1.31.51.63.86.82.77.28,1.26.28c.59,0,1.07-.09,1.45-.28s.66-.46.85-.83.32-.81.37-1.35Z"/>
      <path class="cls-1" d="M11.58,47.03v-.18c0-.7.1-1.34.3-1.93s.49-1.1.87-1.53.85-.77,1.4-1.01,1.18-.37,1.88-.37,1.35.12,1.9.37,1.02.58,1.4,1.01.67.95.87,1.53.3,1.23.3,1.93v.18c0,.69-.1,1.33-.3,1.92s-.49,1.1-.87,1.54-.85.77-1.4,1.01-1.18.36-1.89.36-1.33-.12-1.89-.36-1.03-.58-1.41-1.01-.67-.95-.87-1.54-.3-1.23-.3-1.92ZM13.9,46.84v.18c0,.42.04.81.12,1.17s.21.68.38.96.39.49.66.65.6.23.98.23.7-.08.97-.23.49-.37.66-.65.3-.59.38-.96.12-.75.12-1.17v-.18c0-.41-.04-.79-.12-1.16s-.21-.68-.38-.96-.4-.5-.67-.66-.6-.24-.98-.24-.7.08-.97.24-.49.38-.66.66-.3.6-.38.96-.12.75-.12,1.16Z"/>
      <path class="cls-1" d="M21.76,47.03v-.18c0-.7.1-1.34.3-1.93s.49-1.1.87-1.53.85-.77,1.4-1.01,1.18-.37,1.88-.37,1.35.12,1.9.37,1.02.58,1.4,1.01.67.95.87,1.53.3,1.23.3,1.93v.18c0,.69-.1,1.33-.3,1.92s-.49,1.1-.87,1.54-.85.77-1.4,1.01-1.18.36-1.89.36-1.33-.12-1.89-.36-1.03-.58-1.41-1.01-.67-.95-.87-1.54-.3-1.23-.3-1.92ZM24.08,46.84v.18c0,.42.04.81.12,1.17s.21.68.38.96.39.49.66.65.6.23.98.23.7-.08.97-.23.49-.37.66-.65.3-.59.38-.96.12-.75.12-1.17v-.18c0-.41-.04-.79-.12-1.16s-.21-.68-.38-.96-.4-.5-.67-.66-.6-.24-.98-.24-.7.08-.97.24-.49.38-.66.66-.3.6-.38.96-.12.75-.12,1.16Z"/>
      <path class="cls-1" d="M34.68,44.12v7.57h-2.32v-9.51h2.2l.12,1.94ZM37.57,42.11l-.04,2.16c-.13-.02-.27-.04-.44-.05s-.31-.02-.45-.02c-.36,0-.67.05-.94.15s-.49.24-.67.42-.31.4-.41.66-.15.55-.16.88l-.5-.06c0-.6.06-1.16.18-1.68s.3-.97.54-1.35.53-.69.88-.9.76-.32,1.23-.32c.13,0,.27.01.42.03s.27.05.36.08Z"/>
      <path class="cls-1" d="M38.27,47.04v-.18c0-.73.08-1.39.25-1.98s.41-1.11.73-1.53.71-.76,1.17-.99.98-.35,1.57-.35,1.06.11,1.49.34.79.55,1.09.98.54.92.73,1.5.31,1.21.4,1.9v.5c-.08.67-.21,1.29-.4,1.85s-.42,1.05-.73,1.47-.67.74-1.09.97-.93.34-1.5.34-1.1-.12-1.56-.36-.85-.58-1.17-1.01-.56-.94-.73-1.53-.25-1.22-.25-1.92ZM40.6,46.86v.18c0,.41.04.79.11,1.15s.18.67.34.95.36.48.61.64.55.23.91.23c.46,0,.83-.1,1.13-.3s.53-.48.69-.83.27-.75.32-1.2v-1.38c-.02-.35-.08-.68-.18-.98s-.23-.56-.4-.77-.39-.39-.64-.51-.55-.18-.9-.18-.66.08-.91.23-.46.37-.62.65-.27.59-.35.96-.11.76-.11,1.18ZM44.38,49.66v-11.48h2.34v13.5h-2.11l-.23-2.02Z"/>
      <path class="cls-1" d="M48.78,39.69c0-.35.12-.63.36-.86s.56-.34.96-.34.73.11.96.34.36.52.36.86-.12.62-.36.85-.56.34-.96.34-.73-.11-.96-.34-.36-.51-.36-.85ZM51.27,42.17v9.51h-2.33v-9.51h2.33Z"/>
      <path class="cls-1" d="M55.76,44.21v7.48h-2.32v-9.51h2.18l.14,2.03ZM55.39,46.59h-.69c0-.69.1-1.32.28-1.88s.44-1.05.77-1.45.73-.71,1.18-.93.97-.33,1.53-.33c.46,0,.87.06,1.24.19s.69.33.95.62.47.65.62,1.1.22,1.01.22,1.67v6.1h-2.34v-6.12c0-.43-.06-.78-.19-1.03s-.31-.43-.54-.54-.53-.16-.87-.16-.67.07-.94.22-.49.34-.67.59-.31.54-.41.87-.14.68-.14,1.06Z"/>
      <path class="cls-1" d="M69.1,45.89l.02,1.38h-1.47c-.36,0-.68.04-.96.11s-.5.18-.68.32-.31.3-.4.49-.13.41-.13.65.05.45.16.63.27.34.47.44.45.16.73.16c.41,0,.77-.08,1.07-.25s.54-.37.71-.61.26-.47.27-.69l.67,1c-.08.24-.21.5-.37.76s-.38.52-.63.76-.57.43-.93.58-.79.23-1.27.23c-.62,0-1.17-.12-1.65-.37s-.87-.58-1.15-1.01-.42-.91-.42-1.46c0-.5.09-.95.28-1.34s.47-.71.83-.98.83-.47,1.38-.61,1.18-.21,1.89-.21h1.56ZM68.77,49.66v-4.39c0-.32-.06-.6-.17-.83s-.28-.42-.51-.54-.52-.19-.87-.19c-.31,0-.58.05-.81.16s-.41.25-.53.44-.18.41-.18.65h-2.33c0-.39.09-.77.28-1.12s.46-.67.8-.95.77-.5,1.26-.66,1.04-.24,1.65-.24c.72,0,1.36.12,1.93.37s1.01.61,1.34,1.09.49,1.1.49,1.84v4.15c0,.47.03.88.09,1.22s.15.63.28.87v.15h-2.36c-.11-.24-.2-.55-.25-.92s-.09-.74-.09-1.1Z"/>
      <path class="cls-1" d="M77.7,42.17v1.67h-5.45v-1.67h5.45ZM73.71,39.84h2.33v9.11c0,.28.04.5.11.65s.19.25.34.31.33.08.54.08c.15,0,.29,0,.42-.03s.24-.04.33-.05v1.74c-.18.06-.4.12-.65.16s-.52.06-.82.06c-.52,0-.98-.09-1.37-.27s-.7-.47-.91-.87-.33-.93-.33-1.6v-9.29Z"/>
      <path class="cls-1" d="M79.22,39.69c0-.35.12-.63.36-.86s.56-.34.96-.34.73.11.96.34.36.52.36.86-.12.62-.36.85-.56.34-.96.34-.73-.11-.96-.34-.36-.51-.36-.85ZM81.71,42.17v9.51h-2.33v-9.51h2.33Z"/>
      <path class="cls-1" d="M83.51,47.03v-.18c0-.7.1-1.34.3-1.93s.49-1.1.87-1.53.85-.77,1.4-1.01,1.18-.37,1.88-.37,1.35.12,1.9.37,1.02.58,1.4,1.01.67.95.87,1.53.3,1.23.3,1.93v.18c0,.69-.1,1.33-.3,1.92s-.49,1.1-.87,1.54-.85.77-1.4,1.01-1.18.36-1.89.36-1.33-.12-1.89-.36-1.03-.58-1.41-1.01-.67-.95-.87-1.54-.3-1.23-.3-1.92ZM85.83,46.84v.18c0,.42.04.81.12,1.17s.21.68.38.96.39.49.66.65.6.23.98.23.7-.08.97-.23.49-.37.66-.65.3-.59.38-.96.12-.75.12-1.17v-.18c0-.41-.04-.79-.12-1.16s-.21-.68-.38-.96-.4-.5-.67-.66-.6-.24-.98-.24-.7.08-.97.24-.49.38-.66.66-.3.6-.38.96-.12.75-.12,1.16Z"/>
      <path class="cls-1" d="M96.39,44.21v7.48h-2.32v-9.51h2.18l.14,2.03ZM96.02,46.59h-.69c0-.69.1-1.32.28-1.88s.44-1.05.77-1.45.73-.71,1.18-.93.97-.33,1.53-.33c.46,0,.87.06,1.24.19s.69.33.95.62.47.65.62,1.1.22,1.01.22,1.67v6.1h-2.34v-6.12c0-.43-.06-.78-.19-1.03s-.31-.43-.54-.54-.53-.16-.87-.16-.67.07-.94.22-.49.34-.67.59-.31.54-.41.87-.14.68-.14,1.06Z"/>
    </g>
  </g>
</svg>