<?xml version="1.0" encoding="UTF-8"?>
<svg id="Layer_2" data-name="Layer 2" xmlns="http://www.w3.org/2000/svg" viewBox="0 0 203.24 35.32">
  <g id="Livello_1" data-name="Livello 1">
    <g>
      <g>
        <g>
          <path d="M50.51,31.1c-2.05,0-3.72-.37-5.03-1.11-1.31-.74-2.27-1.73-2.89-2.98s-.91-2.62-.89-4.12h.81c-.02,1.33.23,2.57.76,3.7s1.38,2.05,2.55,2.74c1.17.69,2.72,1.04,4.64,1.04,1.75,0,3.18-.28,4.27-.85,1.1-.57,1.91-1.33,2.42-2.29s.78-2.02.78-3.18c0-1.43-.33-2.57-.98-3.42-.65-.85-1.49-1.53-2.52-2.04-1.02-.5-2.13-.94-3.31-1.29-1.18-.36-2.29-.75-3.33-1.17-1.43-.57-2.6-1.29-3.5-2.18s-1.35-2.1-1.35-3.62c0-1.08.27-2.08.8-2.98s1.34-1.63,2.42-2.18c1.08-.56,2.43-.83,4.03-.83,1.38,0,2.63.23,3.74.7,1.11.47,2,1.2,2.66,2.2.67,1,1,2.3,1,3.9h-.81c0-1.5-.29-2.7-.87-3.59s-1.37-1.52-2.37-1.91c-1-.38-2.12-.57-3.35-.57-1.55,0-2.81.25-3.76.76-.95.51-1.63,1.15-2.05,1.94s-.63,1.64-.63,2.55c0,1.23.33,2.22.98,2.96.65.74,1.5,1.33,2.53,1.78,1.04.44,2.15.85,3.35,1.22,1.2.37,2.35.8,3.46,1.29.86.4,1.65.87,2.35,1.42s1.26,1.24,1.68,2.05c.42.81.63,1.81.63,3,0,1.33-.3,2.53-.91,3.59-.6,1.06-1.51,1.91-2.72,2.54s-2.75.94-4.62.94h.03Z"/>
          <path d="M50.51,31.45c-2.1,0-3.85-.39-5.2-1.16-1.36-.77-2.38-1.82-3.03-3.13-.64-1.29-.95-2.73-.92-4.28v-.34h1.51v.35c-.03,1.27.21,2.47.72,3.55.5,1.06,1.31,1.93,2.42,2.59,1.11.66,2.61.99,4.47.99,1.69,0,3.07-.27,4.11-.81,1.03-.53,1.8-1.26,2.28-2.15.49-.91.74-1.92.74-3.02,0-1.35-.31-2.43-.91-3.21-.62-.8-1.42-1.46-2.39-1.94-1-.5-2.1-.92-3.26-1.27-1.19-.36-2.33-.76-3.36-1.18-1.47-.58-2.68-1.34-3.61-2.26-.96-.95-1.45-2.25-1.45-3.87,0-1.14.28-2.2.84-3.15.56-.95,1.42-1.73,2.56-2.32,1.13-.58,2.54-.87,4.19-.87,1.42,0,2.72.25,3.87.73,1.17.49,2.12,1.28,2.82,2.33s1.06,2.43,1.06,4.1v.35h-1.51v-.35c0-1.43-.27-2.57-.81-3.4-.54-.82-1.28-1.42-2.2-1.77-.96-.37-2.04-.55-3.22-.55-1.49,0-2.7.24-3.59.72-.88.47-1.53,1.08-1.91,1.8-.39.73-.59,1.54-.59,2.39,0,1.14.3,2.06.89,2.73.62.7,1.43,1.26,2.41,1.69,1.02.44,2.13.84,3.31,1.21,1.2.37,2.38.81,3.5,1.31.89.41,1.7.9,2.42,1.47.74.58,1.34,1.31,1.78,2.17s.67,1.92.67,3.15c0,1.39-.32,2.65-.95,3.76-.63,1.11-1.6,2.01-2.86,2.67-1.25.65-2.86.98-4.79.98h0ZM42.05,23.24c.02,1.31.31,2.53.85,3.63.58,1.18,1.51,2.13,2.75,2.83,1.25.71,2.88,1.07,4.86,1.07,1.81,0,3.31-.3,4.47-.9,1.14-.6,2.01-1.4,2.58-2.4s.86-2.15.86-3.42c0-1.12-.2-2.08-.59-2.84-.39-.77-.93-1.42-1.59-1.94-.68-.53-1.44-1-2.28-1.38-1.09-.48-2.24-.91-3.42-1.28-1.21-.37-2.35-.79-3.38-1.23-1.08-.46-1.97-1.09-2.66-1.86-.71-.8-1.07-1.88-1.07-3.19,0-.97.23-1.88.67-2.72.45-.85,1.19-1.55,2.2-2.08,1-.53,2.31-.8,3.92-.8,1.27,0,2.44.2,3.47.6,1.06.41,1.92,1.09,2.53,2.04.57.87.88,2.02.92,3.43h.12c-.04-1.37-.36-2.5-.94-3.37-.62-.94-1.47-1.63-2.51-2.07-1.06-.45-2.27-.68-3.6-.68-1.54,0-2.84.27-3.88.79-1.02.52-1.79,1.21-2.28,2.05-.5.84-.75,1.79-.75,2.8,0,1.45.41,2.55,1.25,3.38.86.85,2,1.56,3.38,2.11,1.02.41,2.13.8,3.3,1.16,1.2.36,2.33.8,3.36,1.32,1.07.53,1.95,1.25,2.64,2.13.7.91,1.05,2.13,1.05,3.63,0,1.21-.28,2.34-.82,3.35-.55,1.02-1.41,1.84-2.57,2.44-1.14.59-2.63.89-4.43.89-1.98,0-3.6-.36-4.82-1.08-1.23-.72-2.13-1.7-2.69-2.89-.5-1.08-.77-2.25-.79-3.5h-.12v-.02Z"/>
        </g>
        <g>
          <path d="M69.38,30.66v-11.54l-8.07-14.36h.81l7.66,13.54,7.33-13.54h.93l-7.92,14.36v11.54h-.74Z"/>
          <path d="M70.46,31.01h-1.43v-11.8l-8.31-14.79h1.61l7.45,13.17,7.13-13.17h1.72l-8.16,14.79v11.8h-.01ZM69.72,30.31h.05v-11.31l-7.87-13.9,7.82,13.92v11.29ZM77.32,5.11l-6.81,12.6,6.95-12.6h-.14Z"/>
        </g>
        <g>
          <path d="M82.92,30.66V4.76h.96l15.95,24.71V4.76h.74v25.9h-.89l-16.02-24.9v24.9s-.74,0-.74,0Z"/>
          <path d="M100.91,31.01h-1.42l-15.48-24.07v24.07h-1.43V4.42h1.5l15.41,23.89V4.42h1.43v26.59h0ZM100.17,30.31h.05V5.1h-.05v25.21ZM99.87,30.31h.09l-16.31-25.21,16.22,25.21ZM83.26,30.31h.05V5.1h-.05v25.21Z"/>
        </g>
        <g>
          <path d="M118.25,31.1c-2.39,0-4.49-.56-6.29-1.68-1.8-1.12-3.19-2.69-4.16-4.7-.97-2.01-1.46-4.35-1.46-7.01s.49-5.03,1.46-7.03,2.36-3.56,4.16-4.68,3.9-1.68,6.29-1.68c2.74,0,4.93.62,6.59,1.85,1.65,1.23,2.76,2.96,3.33,5.18h-.81c-.49-1.9-1.47-3.42-2.94-4.57s-3.52-1.72-6.16-1.72c-2.17,0-4.09.5-5.77,1.5-1.68,1-2.98,2.44-3.92,4.33-.94,1.89-1.41,4.16-1.41,6.83s.47,4.9,1.41,6.79,2.24,3.34,3.92,4.35c1.68,1.01,3.6,1.52,5.77,1.52,2.59,0,4.64-.6,6.14-1.79,1.5-1.2,2.49-2.73,2.96-4.61h.81c-.57,2.27-1.68,4.03-3.33,5.27-1.65,1.25-3.85,1.87-6.59,1.87v-.02Z"/>
          <path d="M118.25,31.45c-2.45,0-4.62-.58-6.47-1.74-1.85-1.15-3.29-2.78-4.29-4.84-.99-2.05-1.5-4.46-1.5-7.16s.5-5.15,1.5-7.18c1-2.05,2.44-3.67,4.29-4.82,1.85-1.15,4.03-1.74,6.47-1.74,2.8,0,5.09.65,6.79,1.92,1.71,1.28,2.87,3.08,3.46,5.37l.11.43h-1.53l-.07-.26c-.47-1.81-1.42-3.29-2.82-4.38-1.4-1.09-3.4-1.65-5.95-1.65-2.1,0-3.98.49-5.59,1.45-1.61.96-2.89,2.37-3.79,4.19-.91,1.83-1.37,4.07-1.37,6.67s.46,4.81,1.37,6.63c.9,1.82,2.18,3.23,3.79,4.21,1.61.97,3.5,1.47,5.59,1.47,2.5,0,4.49-.58,5.93-1.72,1.44-1.14,2.39-2.63,2.84-4.42l.07-.26h1.53l-.11.43c-.58,2.34-1.75,4.17-3.46,5.46-1.71,1.29-3.99,1.94-6.79,1.94h0ZM118.25,4.66c-2.32,0-4.37.55-6.11,1.63-1.74,1.08-3.09,2.61-4.03,4.54-.95,1.94-1.43,4.25-1.43,6.88s.48,4.91,1.43,6.86c.94,1.94,2.3,3.48,4.03,4.56,1.74,1.08,3.79,1.63,6.11,1.63,2.65,0,4.79-.61,6.38-1.8,1.47-1.11,2.51-2.67,3.08-4.65h-.09c-.51,1.83-1.52,3.35-3.01,4.53-1.56,1.24-3.7,1.87-6.36,1.87-2.23,0-4.23-.53-5.95-1.57-1.73-1.04-3.09-2.55-4.05-4.49-.96-1.93-1.44-4.26-1.44-6.94s.49-5.05,1.44-6.98c.96-1.94,2.33-3.44,4.06-4.47,1.72-1.03,3.73-1.55,5.95-1.55,2.71,0,4.85.6,6.37,1.79,1.45,1.14,2.46,2.65,2.99,4.5h.09c-.57-1.93-1.61-3.46-3.08-4.56-1.58-1.18-3.73-1.78-6.38-1.78Z"/>
        </g>
        <g>
          <path d="M133.98,30.66V4.76h.74v25.9h-.74ZM134.2,17.78v-.67h17.24v.67h-17.24ZM150.85,30.66V4.76h.74v25.9h-.74Z"/>
          <path d="M151.93,31.01h-1.43v-12.88h-15.44v12.88h-1.43V4.42h1.43v12.36h15.44V4.42h1.43v26.59ZM151.19,30.31h.05v-12.18h-.05v12.18ZM134.32,30.31h.05v-12.18h-.05v12.18ZM151.19,16.77h.05V5.1h-.05v11.67ZM134.32,16.77h.05V5.1h-.05v11.67Z"/>
        </g>
        <g>
          <path d="M158.43,30.66V4.76h6.47c2.02,0,3.64.31,4.87.93,1.22.62,2.11,1.47,2.66,2.55.55,1.09.83,2.32.83,3.7,0,1.5-.28,2.8-.83,3.88-.55,1.08-1.44,1.92-2.66,2.52-1.22.59-2.84.89-4.87.89h-5.73v11.43h-.74ZM159.17,18.56h5.77c2.39,0,4.25-.52,5.57-1.57s1.98-2.73,1.98-5.05c0-2.15-.66-3.77-1.98-4.87-1.32-1.1-3.18-1.65-5.57-1.65h-5.77v13.13h0ZM172.71,30.66l-6.18-11.91h.81l6.18,11.91h-.81Z"/>
          <path d="M174.1,31.01h-1.59l-.1-.19-5.87-11.32c-.51.05-1.06.07-1.63.07h-5.39v11.43h-1.43V4.41h6.82c2.07,0,3.76.32,5.02.96,1.28.65,2.23,1.56,2.82,2.7.58,1.13.87,2.43.87,3.86,0,1.55-.29,2.91-.87,4.04-.59,1.15-1.54,2.05-2.82,2.67-.55.27-1.19.48-1.91.63l6.08,11.72v.02ZM172.92,30.31h.04l-5.66-10.9h-.03l5.65,10.9h0ZM158.78,30.31h.05V5.1h-.05v25.21ZM167.68,18.63h0c.74-.13,1.38-.34,1.94-.61,1.15-.55,1.99-1.35,2.51-2.36.53-1.03.79-2.29.79-3.73,0-1.32-.27-2.51-.79-3.54-.52-1.01-1.36-1.82-2.51-2.4-.66-.33-1.46-.58-2.38-.72,1.41.26,2.58.77,3.5,1.53,1.4,1.16,2.1,2.89,2.1,5.13,0,2.42-.71,4.21-2.11,5.32-.82.65-1.84,1.11-3.05,1.38ZM159.52,18.22h5.43c2.3,0,4.1-.5,5.35-1.5,1.23-.97,1.85-2.58,1.85-4.78,0-2.03-.62-3.57-1.86-4.6-1.25-1.04-3.05-1.57-5.35-1.57h-5.43v12.44h0Z"/>
        </g>
        <g>
          <path d="M190.62,31.1c-2.44,0-4.58-.56-6.42-1.68s-3.26-2.69-4.27-4.7c-1.01-2.01-1.52-4.35-1.52-7.01s.5-4.96,1.52-6.97c1.01-2.01,2.44-3.58,4.27-4.72,1.84-1.13,3.98-1.7,6.42-1.7s4.66.57,6.51,1.7c1.85,1.13,3.27,2.71,4.27,4.72s1.5,4.33,1.5,6.97-.5,5-1.5,7.01c-1,2.01-2.42,3.58-4.27,4.7s-4.02,1.68-6.51,1.68ZM190.66,30.36c2.15,0,4.08-.49,5.81-1.48,1.73-.99,3.09-2.43,4.11-4.33s1.52-4.18,1.52-6.84-.51-4.98-1.52-6.86c-1.01-1.89-2.38-3.32-4.11-4.31s-3.66-1.48-5.81-1.48-4.09.49-5.83,1.48-3.11,2.42-4.11,4.31-1.5,4.17-1.5,6.86.5,4.95,1.5,6.84,2.36,3.34,4.09,4.33,3.67,1.48,5.85,1.48Z"/>
          <path d="M190.62,31.45c-2.5,0-4.72-.58-6.6-1.73-1.89-1.15-3.37-2.78-4.4-4.84-1.03-2.05-1.55-4.46-1.55-7.17s.52-5.08,1.55-7.13c1.03-2.06,2.51-3.69,4.4-4.86,1.88-1.16,4.11-1.75,6.6-1.75s4.8.59,6.69,1.75c1.9,1.16,3.38,2.8,4.4,4.86,1.02,2.05,1.53,4.45,1.53,7.13s-.52,5.12-1.53,7.17c-1.02,2.06-2.5,3.69-4.4,4.84s-4.15,1.73-6.69,1.73ZM190.62,4.66c-2.37,0-4.46.56-6.24,1.65-1.77,1.1-3.17,2.64-4.15,4.58-.98,1.95-1.48,4.24-1.48,6.82s.5,4.9,1.48,6.86c.98,1.94,2.37,3.48,4.15,4.56,1.77,1.08,3.87,1.63,6.24,1.63s4.55-.55,6.33-1.63c1.79-1.08,3.18-2.62,4.14-4.56.97-1.95,1.46-4.26,1.46-6.86s-.49-4.87-1.46-6.82c-.96-1.94-2.36-3.48-4.14-4.58-1.79-1.1-3.92-1.65-6.33-1.65ZM190.66,30.71c-2.22,0-4.25-.51-6.02-1.53-1.78-1.01-3.2-2.52-4.22-4.47-1.02-1.94-1.54-4.3-1.54-7.01s.52-5.1,1.54-7.02c1.03-1.94,2.45-3.43,4.24-4.45,1.78-1.01,3.8-1.53,6-1.53s4.21.51,5.98,1.53c1.77,1.01,3.2,2.51,4.24,4.45,1.03,1.93,1.56,4.29,1.56,7.03s-.52,5.07-1.56,7.01c-1.04,1.95-2.47,3.45-4.24,4.47-1.77,1.01-3.78,1.53-5.98,1.53h0ZM190.66,5.4c-2.08,0-3.98.48-5.66,1.43-1.67.95-3.01,2.35-3.97,4.17-.97,1.83-1.46,4.08-1.46,6.7s.49,4.84,1.46,6.68c.96,1.83,2.29,3.24,3.95,4.19,1.66.95,3.57,1.44,5.67,1.44s3.97-.48,5.64-1.44c1.66-.95,3-2.36,3.97-4.19.98-1.84,1.48-4.09,1.48-6.68s-.5-4.87-1.48-6.7c-.98-1.82-2.31-3.22-3.97-4.17-1.67-.95-3.56-1.43-5.64-1.43h.01Z"/>
        </g>
      </g>
      <polygon points="18.39 .02 18.39 0 17.88 0 16.96 0 16.96 .04 16.96 3.92 18.39 3.92 18.39 .02"/>
      <polygon points="13.8 .44 13.79 .41 13.3 .54 12.41 .78 12.42 .83 13.43 4.57 14.81 4.2 13.8 .44"/>
      <polygon points="9.47 2.02 9.46 2 9.02 2.26 8.22 2.72 8.24 2.76 10.18 6.12 11.42 5.4 9.47 2.02"/>
      <polygon points="5.7 4.68 5.69 4.66 5.33 5.02 4.68 5.67 4.71 5.7 7.45 8.45 8.46 7.44 5.7 4.68"/>
      <polygon points="2.75 8.22 2.73 8.2 2.47 8.64 2.01 9.44 2.05 9.46 5.41 11.4 6.13 10.17 2.75 8.22"/>
      <polygon points=".82 12.4 .79 12.39 .66 12.88 .42 13.77 .46 13.78 4.21 14.79 4.58 13.41 .82 12.4"/>
      <polygon points=".03 16.94 0 16.94 0 17.45 0 18.37 .05 18.37 3.93 18.37 3.93 16.94 .03 16.94"/>
      <polygon points=".44 21.53 .42 21.53 .55 22.03 .79 22.91 .83 22.9 4.58 21.9 4.21 20.52 .44 21.53"/>
      <polygon points="2.03 25.85 2.01 25.87 2.26 26.31 2.72 27.1 2.76 27.08 6.12 25.14 5.41 23.9 2.03 25.85"/>
      <polygon points="4.68 29.62 4.67 29.64 5.03 30 5.68 30.65 5.71 30.62 8.45 27.87 7.44 26.86 4.68 29.62"/>
      <polygon points="8.22 32.57 8.21 32.6 8.65 32.85 9.45 33.31 9.47 33.27 11.41 29.91 10.17 29.2 8.22 32.57"/>
      <polygon points="12.4 34.51 12.4 34.53 12.89 34.67 13.78 34.9 13.79 34.86 14.79 31.11 13.41 30.74 12.4 34.51"/>
      <polygon points="16.94 35.3 16.94 35.32 17.45 35.32 18.37 35.32 18.37 35.28 18.37 31.4 16.94 31.4 16.94 35.3"/>
      <polygon points="21.53 34.88 21.54 34.91 22.03 34.78 22.92 34.54 22.91 34.49 21.9 30.75 20.52 31.12 21.53 34.88"/>
      <polygon points="25.86 33.3 25.87 33.32 26.31 33.06 27.11 32.6 27.09 32.56 25.15 29.2 23.91 29.92 25.86 33.3"/>
      <polygon points="29.63 30.64 29.64 30.66 30.01 30.3 30.66 29.65 30.62 29.62 27.88 26.87 26.87 27.88 29.63 30.64"/>
      <polygon points="32.58 27.1 32.6 27.12 32.86 26.68 33.32 25.88 33.28 25.86 29.92 23.92 29.2 25.15 32.58 27.1"/>
      <polygon points="34.52 22.92 34.54 22.93 34.67 22.44 34.91 21.55 34.87 21.54 31.12 20.53 30.75 21.91 34.52 22.92"/>
      <polygon points="35.3 18.38 35.33 18.38 35.33 17.87 35.33 16.95 35.28 16.95 31.4 16.95 31.4 18.38 35.3 18.38"/>
      <polygon points="34.89 13.79 34.91 13.79 34.78 13.29 34.54 12.41 34.5 12.42 30.75 13.42 31.12 14.8 34.89 13.79"/>
      <polygon points="33.3 9.47 33.32 9.45 33.07 9.01 32.61 8.22 32.57 8.24 29.21 10.18 29.92 11.42 33.3 9.47"/>
      <polygon points="30.65 5.7 30.67 5.68 30.31 5.32 29.66 4.67 29.62 4.7 26.88 7.45 27.89 8.46 30.65 5.7"/>
      <polygon points="27.11 2.75 27.12 2.72 26.68 2.47 25.88 2.01 25.86 2.05 23.92 5.41 25.16 6.12 27.11 2.75"/>
      <polygon points="22.93 .81 22.93 .79 22.44 .65 21.55 .42 21.54 .46 20.54 4.21 21.92 4.58 22.93 .81"/>
      <polygon points="20.07 4.15 20.07 4.12 19.65 4.06 18.89 3.96 18.88 4.01 18.37 7.85 19.55 8.01 20.07 4.15"/>
      <polygon points="16.49 3.98 16.48 3.96 16.06 4.01 15.3 4.11 15.31 4.16 15.81 8.01 16.99 7.85 16.49 3.98"/>
      <polygon points="12.99 4.76 12.98 4.73 12.59 4.89 11.88 5.19 11.9 5.23 13.38 8.81 14.48 8.36 12.99 4.76"/>
      <polygon points="9.81 6.41 9.79 6.39 9.46 6.64 8.85 7.11 8.87 7.15 11.23 10.23 12.18 9.5 9.81 6.41"/>
      <polygon points="7.16 8.82 7.14 8.81 6.88 9.14 6.42 9.75 6.45 9.78 9.53 12.14 10.25 11.2 7.16 8.82"/>
      <polygon points="5.23 11.84 5.21 11.83 5.05 12.22 4.75 12.93 4.8 12.95 8.38 14.44 8.83 13.34 5.23 11.84"/>
      <polygon points="4.15 15.26 4.13 15.26 4.07 15.68 3.97 16.44 4.01 16.44 7.86 16.95 8.02 15.77 4.15 15.26"/>
      <polygon points="3.99 18.84 3.96 18.84 4.02 19.26 4.12 20.02 4.16 20.02 8.01 19.51 7.86 18.33 3.99 18.84"/>
      <polygon points="4.76 22.34 4.74 22.35 4.9 22.74 5.19 23.45 5.23 23.43 8.82 21.95 8.37 20.85 4.76 22.34"/>
      <polygon points="6.41 25.52 6.39 25.53 6.65 25.87 7.11 26.48 7.15 26.45 10.23 24.09 9.51 23.15 6.41 25.52"/>
      <polygon points="8.83 28.16 8.81 28.18 9.15 28.44 9.76 28.91 9.78 28.87 12.15 25.8 11.21 25.07 8.83 28.16"/>
      <polygon points="11.85 30.09 11.84 30.12 12.23 30.28 12.94 30.57 12.96 30.53 14.44 26.95 13.34 26.49 11.85 30.09"/>
      <polygon points="15.26 31.17 15.26 31.2 15.68 31.26 16.44 31.36 16.45 31.31 16.96 27.47 15.78 27.31 15.26 31.17"/>
      <polygon points="18.84 31.34 18.85 31.36 19.27 31.31 20.03 31.21 20.02 31.16 19.52 27.31 18.34 27.47 18.84 31.34"/>
      <polygon points="22.34 30.56 22.35 30.59 22.74 30.43 23.45 30.13 23.44 30.09 21.95 26.51 20.85 26.96 22.34 30.56"/>
      <polygon points="25.52 28.91 25.54 28.93 25.88 28.68 26.48 28.21 26.46 28.17 24.1 25.09 23.15 25.82 25.52 28.91"/>
      <polygon points="28.17 26.5 28.19 26.51 28.45 26.18 28.91 25.57 28.88 25.54 25.8 23.18 25.08 24.12 28.17 26.5"/>
      <polygon points="30.1 23.48 30.12 23.49 30.28 23.1 30.58 22.39 30.54 22.37 26.95 20.88 26.5 21.98 30.1 23.48"/>
      <polygon points="31.18 20.06 31.2 20.06 31.26 19.64 31.36 18.88 31.32 18.88 27.47 18.37 27.31 19.55 31.18 20.06"/>
      <polygon points="31.34 16.48 31.37 16.48 31.31 16.06 31.21 15.3 31.17 15.3 27.32 15.81 27.47 16.99 31.34 16.48"/>
      <polygon points="30.57 12.98 30.59 12.97 30.43 12.58 30.14 11.87 30.1 11.89 26.51 13.37 26.97 14.47 30.57 12.98"/>
      <polygon points="28.92 9.8 28.94 9.79 28.68 9.45 28.22 8.84 28.18 8.87 25.1 11.23 25.82 12.17 28.92 9.8"/>
      <polygon points="26.5 7.16 26.52 7.14 26.18 6.88 25.57 6.41 25.55 6.45 23.18 9.52 24.12 10.25 26.5 7.16"/>
      <polygon points="23.48 5.23 23.49 5.2 23.1 5.04 22.39 4.75 22.38 4.79 20.89 8.37 21.99 8.83 23.48 5.23"/>
    </g>
  </g>
</svg>